<svg xmlns="http://www.w3.org/2000/svg" width="160" height="165.119" viewBox="0 0 160 165.119">
  <g id="rikken" transform="translate(0 0.036)">
    <path id="path_7775" data-name="path 7775" d="M5.412,37.069A23.343,23.343,0,0,0,32.366,60.715L68.3,56.3V38.332L32.366,42.745a7.782,7.782,0,0,1-8.984-7.882,10.454,10.454,0,0,1,8.984-10.088L68.3,20.362V2.381L32.366,6.794A31.362,31.362,0,0,0,5.412,37.069Z" transform="translate(6.366 2.847)" fill="#094392"/>
    <path id="path_7776" data-name="path 7776" d="M99.346,23.893A23.343,23.343,0,0,0,72.392.247L54.422,2.453,36.452,4.659V58.57l35.936-4.413A31.362,31.362,0,0,0,99.346,23.893ZM72.392,18.217A7.782,7.782,0,0,1,81.378,26.1a10.454,10.454,0,0,1-8.986,10.088l-17.97,2.206V20.423Z" transform="translate(42.938)" fill="#094392"/>
    <path id="path_7777" data-name="path 7777" d="M72.39,27.21,36.454,31.623V94.565l17.97-2.206V83.322l17.97-2.206A31.362,31.362,0,0,0,99.348,50.843,23.343,23.343,0,0,0,72.39,27.21Zm0,35.936L54.42,65.352V47.382l17.97-2.206a7.782,7.782,0,0,1,8.986,7.882A10.454,10.454,0,0,1,72.39,63.15Z" transform="translate(42.941 31.76)" fill="#094392"/>
    <g id="gr_296" data-name="gr 296" transform="translate(23.685 69.505)">
      <g id="gr_293" data-name="gr 293">
        <path id="path_7778" data-name="path 7778" d="M13.713,37.7V33.258l1.433-.176V31.993l-4.271.525v1.089l1.442-.176v4.443Z" transform="translate(-10.875 -31.777)" fill="#094392"/>
        <path id="path_7779" data-name="path 7779" d="M14.949,34.172c.595-.072.619.464.619.889v2.211l1.2-.148v-2.8c0-.871-.455-1.348-1.307-1.244a1.773,1.773,0,0,0-1.167.693V31.894l-1.207.148v5.532l1.207-.148V35.27c0-.64.152-1.035.656-1.1Z" transform="translate(-8.269 -31.894)" fill="#094392"/>
        <path id="path_7780" data-name="path 7780" d="M19.139,35.157l-.908-.359a1.281,1.281,0,0,1-1.035.856.8.8,0,0,1-.932-.858v-.046l2.923-.359v-.054c0-1.137-.516-2.3-2.054-2.115a2.346,2.346,0,0,0-2.1,2.507A1.7,1.7,0,0,0,17.1,36.59a2.683,2.683,0,0,0,2.036-1.433Zm-2.015-2.071a.686.686,0,0,1,.815.708l-1.677.2a1.037,1.037,0,0,1,.865-.913Z" transform="translate(-5.991 -31.533)" fill="#094392"/>
      </g>
      <path id="path_7781" data-name="path 7781" d="M13.545,41.1a3.145,3.145,0,0,0,2.383-1.718l-1.089-.423a1.566,1.566,0,0,1-1.2.969c-.745.091-1.363-.436-1.363-1.651a1.766,1.766,0,0,1,1.363-1.923,1.1,1.1,0,0,1,1.176.7l1.089-.684a2.269,2.269,0,0,0-2.335-1.148,3.186,3.186,0,0,0-2.679,3.267c0,1.869,1.187,2.788,2.653,2.609Z" transform="translate(-10.857 -28.006)" fill="#094392"/>
      <path id="path_7782" data-name="path 7782" d="M15.526,39.992a2.346,2.346,0,0,0,2.2-2.441,1.786,1.786,0,0,0-2.241-1.895,2.354,2.354,0,0,0-2.156,2.411,1.779,1.779,0,0,0,2.2,1.925Zm-.048-3.38c.653-.081,1.026.257,1.026,1.128a1.172,1.172,0,0,1-.965,1.285c-.706.087-1-.418-1-1.1C14.546,37.072,15.023,36.669,15.478,36.612Z" transform="translate(-7.995 -27.535)" fill="#094392"/>
      <path id="path_7783" data-name="path 7783" d="M15.6,35.746v4.09l1.207-.148V37.4c0-.549.078-.95.636-1.019.486-.059.595.248.595.632v2.524l1.207-.148V36.449c0-.83-.436-1.2-1.27-1.089a1.684,1.684,0,0,0-1.152.6V35.6Z" transform="translate(-5.307 -27.833)" fill="#094392"/>
      <path id="path_7784" data-name="path 7784" d="M21.407,37.8c0-.76-.588-1.048-1.474-1.1l-.29-.02c-.477-.035-.666-.074-.666-.27s.3-.351.564-.383a1.559,1.559,0,0,1,1.041.279l.745-.782a2.729,2.729,0,0,0-1.819-.388,1.742,1.742,0,0,0-1.731,1.583c0,.627.4,1,1.372,1.045l.368.017c.436.017.653.052.653.281s-.329.436-.73.49a1.546,1.546,0,0,1-1.191-.418l-.76.782a2.411,2.411,0,0,0,1.982.549c.862-.1,1.936-.642,1.936-1.662Z" transform="translate(-3.084 -28.115)" fill="#094392"/>
      <path id="path_7785" data-name="path 7785" d="M21.218,34.412l-1.191.146v1.278l-.595.074v.736l.595-.074V38.7c0,.956.51,1.089,1.167,1.017a4,4,0,0,0,.76-.157v-.932l-.423.059c-.187.024-.314-.024-.314-.3v-1.96l.8-.1V35.6l-.8.1Z" transform="translate(-0.795 -28.928)" fill="#094392"/>
      <path id="path_7786" data-name="path 7786" d="M22.109,34.141l-1.2.148v.932l1.2-.148Z" transform="translate(0.944 -29.247)" fill="#094392"/>
      <path id="path_7787" data-name="path 7787" d="M20.91,39.041l1.2-.148V34.8l-1.2.148Z" transform="translate(0.946 -28.467)" fill="#094392"/>
      <path id="path_7788" data-name="path 7788" d="M22.306,34.275v1.276l-.595.074v.736l.595-.072v2.132c0,.956.51,1.089,1.167,1.017a4.006,4.006,0,0,0,.76-.157V38.35l-.423.059c-.187.024-.314-.024-.314-.3V36.15l.8-.1v-.736l-.8.1V34.129Z" transform="translate(1.889 -29.261)" fill="#094392"/>
      <path id="path_7789" data-name="path 7789" d="M25.646,37.095a.719.719,0,0,1-.69.758c-.486.059-.579-.259-.579-.534V34.694l-1.215.15v2.744c0,1.011.383,1.418,1.285,1.307a1.742,1.742,0,0,0,1.191-.653v.383l1.207-.148V34.383l-1.2.146Z" transform="translate(3.597 -28.962)" fill="#094392"/>
      <path id="path_7790" data-name="path 7790" d="M26.888,33.712l-1.191.146v1.276l-.6.074v.736l.6-.072V38c0,.956.51,1.089,1.167,1.017a3.976,3.976,0,0,0,.76-.157v-.932l-.423.059c-.187.024-.314-.024-.314-.3v-1.96l.8-.1V34.9l-.8.1Z" transform="translate(5.881 -29.752)" fill="#094392"/>
      <path id="path_7791" data-name="path 7791" d="M27.776,33.445l-1.2.148v.932l1.2-.148Z" transform="translate(7.62 -30.067)" fill="#094392"/>
      <path id="path_7792" data-name="path 7792" d="M26.578,38.345l1.2-.148v-4.09l-1.2.148Z" transform="translate(7.622 -29.287)" fill="#094392"/>
      <path id="path_7793" data-name="path 7793" d="M31.786,35.825a1.786,1.786,0,0,0-2.241-1.895,2.354,2.354,0,0,0-2.154,2.413,1.782,1.782,0,0,0,2.193,1.925A2.346,2.346,0,0,0,31.786,35.825ZM29.608,37.3c-.706.087-1-.418-1-1.1,0-.854.479-1.257.932-1.307.653-.081,1.026.257,1.026,1.128A1.172,1.172,0,0,1,29.6,37.3Z" transform="translate(8.567 -29.568)" fill="#094392"/>
      <path id="path_7794" data-name="path 7794" d="M32.1,35.28V37.8l1.207-.148V34.718c0-.83-.436-1.2-1.27-1.089a1.679,1.679,0,0,0-1.152.6v-.362l-1.222.15v4.09l1.207-.148V35.674c0-.549.078-.95.636-1.019C31.989,34.592,32.1,34.9,32.1,35.28Z" transform="translate(11.254 -29.872)" fill="#094392"/>
      <path id="path_7795" data-name="path 7795" d="M32.542,35.421a1.535,1.535,0,0,0-.871,1.281,1.089,1.089,0,0,0,1.339,1.089,2.274,2.274,0,0,0,1.254-.632v.368l1.183-.144c-.1-.137-.118-.268-.118-.621v-2.4c0-.987-1.058-1.045-1.764-.958-.893.109-1.725.579-1.725,1.481l1.207-.148a.634.634,0,0,1,.636-.555c.436-.054.462.3.462.436v.218a10.818,10.818,0,0,0-1.6.582Zm1.614.335a1.05,1.05,0,0,1-.83,1.1.379.379,0,0,1-.462-.359c0-.181.1-.388.518-.573l.775-.355Z" transform="translate(13.621 -30.144)" fill="#094392"/>
      <path id="path_7796" data-name="path 7796" d="M34.925,32.567l-1.2.148v5.532l1.2-.148Z" transform="translate(16.041 -31.101)" fill="#094392"/>
      <g id="gr_294" data-name="gr 294" transform="translate(0.087 9.892)">
        <path id="path_7797" data-name="path 7797" d="M12.812,38.461l-1.9.233v5.532l2.178-.268a2.884,2.884,0,0,0,2.775-3.106C15.868,39.034,14.951,38.2,12.812,38.461Zm-.054,4.426-.446.054V39.689l.682-.083c1.207-.148,1.49.538,1.49,1.4,0,1.252-.536,1.734-1.727,1.88Z" transform="translate(-10.915 -34.107)" fill="#094392"/>
        <path id="path_7798" data-name="path 7798" d="M15.545,38.728a2.346,2.346,0,0,0-2.1,2.507A1.7,1.7,0,0,0,15.515,43.1a2.683,2.683,0,0,0,2.039-1.433l-.908-.359a1.281,1.281,0,0,1-1.035.856.8.8,0,0,1-.932-.856v-.048L17.6,40.9v-.054c0-1.137-.518-2.3-2.056-2.115ZM14.674,40.5a1.039,1.039,0,0,1,.871-.913.684.684,0,0,1,.815.708Z" transform="translate(-7.949 -33.76)" fill="#094392"/>
        <path id="path_7799" data-name="path 7799" d="M20.353,38.315a2.08,2.08,0,0,0-1.215.627,1.233,1.233,0,0,0-1.143-.338,1.644,1.644,0,0,0-1.152.675v-.423l-1.2.148V43.1l1.191-.146V40.584c0-.344.063-.854.6-.919.377-.046.588.124.588.695v2.446l1.2-.146V40.208c0-.494.187-.791.619-.845s.564.244.564.793v2.359l1.2-.148v-3C21.607,38.552,21.1,38.224,20.353,38.315Z" transform="translate(-5.345 -34.24)" fill="#094392"/>
        <path id="path_7800" data-name="path 7800" d="M20.794,38.11a2.354,2.354,0,0,0-2.156,2.411,1.782,1.782,0,0,0,2.2,1.925A2.346,2.346,0,0,0,23.035,40a1.786,1.786,0,0,0-2.241-1.895Zm.054,3.371c-.706.087-1-.418-1-1.1,0-.854.477-1.259.932-1.307.653-.081,1.026.257,1.026,1.128a1.172,1.172,0,0,1-.963,1.276Z" transform="translate(-1.831 -34.536)" fill="#094392"/>
        <path id="path_7801" data-name="path 7801" d="M23.014,41.2c-.666.081-.908-.6-.908-1.119s.218-1.259.871-1.337a.758.758,0,0,1,.8.475l.893-.619a1.742,1.742,0,0,0-1.742-.773,2.3,2.3,0,0,0-2.052,2.446,1.721,1.721,0,0,0,2.03,1.9,2.407,2.407,0,0,0,1.819-1.32l-.908-.359A.978.978,0,0,1,23.014,41.2Z" transform="translate(0.803 -34.827)" fill="#094392"/>
        <path id="path_7802" data-name="path 7802" d="M24.05,38.194v-.423l-1.167.144v4.09l1.2-.146v-2.3c0-.436.118-.619.751-.8l.4-.111V37.582a2.287,2.287,0,0,0-.706.25,1.786,1.786,0,0,0-.477.362Z" transform="translate(3.183 -35.086)" fill="#094392"/>
        <path id="path_7803" data-name="path 7803" d="M27.776,38.4c0-.987-1.058-1.045-1.764-.96-.893.109-1.725.579-1.725,1.481l1.207-.148a.634.634,0,0,1,.634-.555c.436-.054.462.3.462.436v.218a10.722,10.722,0,0,0-1.614.575,1.538,1.538,0,0,0-.871,1.281,1.089,1.089,0,0,0,1.339,1.089,2.276,2.276,0,0,0,1.254-.632v.368l1.183-.144c-.1-.137-.118-.268-.118-.621Zm-1.183,1.392a1.05,1.05,0,0,1-.83,1.1.379.379,0,0,1-.462-.359c0-.181.1-.388.516-.573l.775-.353Z" transform="translate(4.621 -35.286)" fill="#094392"/>
        <path id="path_7804" data-name="path 7804" d="M27.821,36.7l-1.191.146v1.276l-.595.072v.736l.595-.074v2.132c0,.956.51,1.089,1.167,1.017a3.992,3.992,0,0,0,.76-.157v-.932l-.423.061c-.187.022-.314-.024-.314-.3v-1.96l.8-.1v-.736l-.8.1Z" transform="translate(6.895 -36.121)" fill="#094392"/>
        <path id="path_7805" data-name="path 7805" d="M27.511,37.516l1.2-.148v-.932l-1.2.148Z" transform="translate(8.634 -36.436)" fill="#094392"/>
        <path id="path_7806" data-name="path 7806" d="M27.511,41.336l1.2-.148V37.1l-1.2.148Z" transform="translate(8.634 -35.656)" fill="#094392"/>
        <path id="path_7807" data-name="path 7807" d="M30.543,40.274c-.666.081-.908-.6-.908-1.119s.218-1.259.871-1.337a.758.758,0,0,1,.8.473l.893-.619a1.742,1.742,0,0,0-1.742-.773A2.3,2.3,0,0,0,28.4,39.344a1.721,1.721,0,0,0,2.03,1.9,2.4,2.4,0,0,0,1.819-1.32l-.908-.359A.98.98,0,0,1,30.543,40.274Z" transform="translate(9.669 -35.918)" fill="#094392"/>
      </g>
      <g id="gr_295" data-name="gr 295" transform="translate(0.072 16.936)">
        <path id="path_7808" data-name="path 7808" d="M13.652,41.653l-2.744.338v5.532l1.387-.17v-1.81l1.119-.137A2.243,2.243,0,0,0,15.647,43.3c0-1.272-.688-1.806-1.995-1.644ZM13.206,44.4l-.908.111V42.838l.886-.109c.436-.054,1.089-.126,1.089.673,0,.723-.442.923-1.069,1Z" transform="translate(-10.908 -37.368)" fill="#094392"/>
        <path id="path_7809" data-name="path 7809" d="M16.922,42.983c0-.987-1.058-1.045-1.762-.958-.893.109-1.723.579-1.723,1.481l1.207-.148a.634.634,0,0,1,.634-.555c.436-.054.462.3.462.436v.218a10.756,10.756,0,0,0-1.614.575,1.535,1.535,0,0,0-.871,1.281A1.089,1.089,0,0,0,14.594,46.4a2.274,2.274,0,0,0,1.254-.632v.368l1.183-.146c-.1-.137-.118-.268-.118-.621Zm-1.183,1.392a1.05,1.05,0,0,1-.83,1.1.379.379,0,0,1-.462-.359c0-.181.1-.388.518-.573l.775-.355Z" transform="translate(-8.145 -36.931)" fill="#094392"/>
        <path id="path_7810" data-name="path 7810" d="M16.4,42.385v-.423l-1.167.144V46.2l1.2-.148v-2.3c0-.436.118-.619.751-.8l.4-.113V41.769a2.287,2.287,0,0,0-.706.25,1.8,1.8,0,0,0-.477.366Z" transform="translate(-5.815 -37.198)" fill="#094392"/>
        <path id="path_7811" data-name="path 7811" d="M18.372,41.113l-1.191.146v1.276l-.6.074v.736l.6-.072v2.132c0,.956.51,1.089,1.167,1.017a3.963,3.963,0,0,0,.76-.157v-.932l-.423.061c-.187.024-.314-.024-.314-.3v-1.96l.8-.1V42.3l-.8.1Z" transform="translate(-4.222 -37.971)" fill="#094392"/>
        <path id="path_7812" data-name="path 7812" d="M19.921,44.537l-.673-2.849-1.285.159,1.191,3.7a1.132,1.132,0,0,1,.087.381c0,.142-.078.307-.407.348l-.516.063v.965l.871-.107a1.146,1.146,0,0,0,.854-.418,2.2,2.2,0,0,0,.4-.817l1.442-4.6-1.285.159Z" transform="translate(-2.598 -37.671)" fill="#094392"/>
        <path id="path_7813" data-name="path 7813" d="M22.659,41.131A2.354,2.354,0,0,0,20.5,43.542,1.782,1.782,0,0,0,22.7,45.467a2.346,2.346,0,0,0,2.2-2.441,1.786,1.786,0,0,0-2.241-1.895Zm.054,3.371c-.706.087-1-.418-1-1.1,0-.854.477-1.257.932-1.307.653-.081,1.026.257,1.026,1.128a1.172,1.172,0,0,1-.967,1.276Z" transform="translate(0.384 -38.022)" fill="#094392"/>
        <path id="path_7814" data-name="path 7814" d="M24.474,41.6c0-.3.039-.405.54-.466l.218-.026V40.2a5.3,5.3,0,0,0-.721.017c-.706.087-1.231.479-1.231,1.185v.588l-.653.078v.736l.653-.078V46l1.2-.146V42.583l.8-.1v-.736l-.808.1Z" transform="translate(2.896 -39.049)" fill="#094392"/>
        <path id="path_7815" data-name="path 7815" d="M25.628,44.073c0,.4-.157.514-.808.592l-.274.033v1.119l.926-.113c1.011-.124,1.544-.473,1.544-1.525v-4.2l-1.387.17Z" transform="translate(5.157 -39.308)" fill="#094392"/>
        <path id="path_7816" data-name="path 7816" d="M29.639,41.421c0-.987-1.058-1.045-1.762-.958-.893.109-1.723.579-1.723,1.481l1.207-.148A.634.634,0,0,1,28,41.24c.436-.054.462.3.462.436v.218a10.756,10.756,0,0,0-1.614.575,1.535,1.535,0,0,0-.871,1.281,1.089,1.089,0,0,0,1.339,1.089,2.276,2.276,0,0,0,1.254-.632v.368l1.183-.146c-.1-.137-.118-.268-.118-.621Zm-1.183,1.392a1.05,1.05,0,0,1-.83,1.106.379.379,0,0,1-.462-.359c0-.181.1-.388.516-.573l.775-.355Z" transform="translate(6.837 -38.771)" fill="#094392"/>
        <path id="path_7817" data-name="path 7817" d="M30.247,40.193a1.525,1.525,0,0,0-1.143.634v-.4l-1.089.133v5.508l1.222-.15V44.233a1.507,1.507,0,0,0,1,.218,2.119,2.119,0,0,0,1.779-2.35c0-1.13-.6-2.052-1.771-1.908Zm-.218,3.422c-.558.068-.83-.416-.83-1.089,0-.947.416-1.39.871-1.446.73-.089.815.841.815,1.115-.026.627-.253,1.344-.871,1.42Z" transform="translate(9.243 -39.072)" fill="#094392"/>
        <path id="path_7818" data-name="path 7818" d="M33.666,40.927c0-.987-1.058-1.045-1.762-.958-.893.109-1.723.579-1.723,1.481l1.207-.148a.632.632,0,0,1,.634-.555c.436-.054.462.3.462.436V41.4a10.8,10.8,0,0,0-1.614.575A1.538,1.538,0,0,0,30,43.255a1.089,1.089,0,0,0,1.339,1.089,2.276,2.276,0,0,0,1.254-.632v.368l1.183-.144c-.1-.137-.118-.268-.118-.621Zm-1.183,1.392a1.05,1.05,0,0,1-.83,1.1.379.379,0,0,1-.462-.359c0-.181.1-.388.516-.573l.775-.353Z" transform="translate(11.579 -39.353)" fill="#094392"/>
        <path id="path_7819" data-name="path 7819" d="M34.426,39.687a1.684,1.684,0,0,0-1.152.6v-.368l-1.222.15v4.09l1.207-.148V41.726c0-.549.078-.95.634-1.019.486-.059.6.248.6.632v2.524l1.207-.148V40.793c0-.838-.438-1.209-1.27-1.106Z" transform="translate(13.998 -39.67)" fill="#094392"/>
      </g>
    </g>
    <g id="gr_297" data-name="gr 297" transform="translate(0 134.373)">
      <path id="path_7820" data-name="path 7820" d="M35.7,85V80.184h9.753c.1.218.2.423.311.638a20.608,20.608,0,0,0,11.38,10.249v-5.24a15.463,15.463,0,0,1-6.185-5.647h7.187V75.878H48.916a20.876,20.876,0,0,1-.686-2.52h7.716V62.292H30.9l-.065,28.065,13.939-1.7V83.864Zm0-18.434H51.223v2.52H35.7Zm7.958,9.313H35.7v-2.52h7.623a23.015,23.015,0,0,0,.544,2.52Z" transform="translate(36.322 -60.955)" fill="#094392"/>
      <path id="path_7821" data-name="path 7821" d="M64.345,70.39H84.5v3.859H89V66.308H83.448l1.089-3.356H79.845l-1.089,3.356H76.622v-4.63H71.933V66.3h-2.1l-1.061-3.267H64.084L65.144,66.3h-5.07v7.941h4.273Z" transform="translate(70.763 -61.678)" fill="#094392"/>
      <path id="path_7822" data-name="path 7822" d="M84.38,78.551c-.128,3.125-.32,3.509-1.244,3.509h-2.52c-1.052,0-1.211-.1-1.211-1.089V76.728H82.89V66.3H64.814V76.732h3.2a11.044,11.044,0,0,1-7.4,5.323V86.94a16.241,16.241,0,0,0,12.769-10c.033-.07.059-.139.089-.218H74.8v4.306c0,3.955.926,5.325,5.166,5.325H83.6c4.554,0,4.942-3.008,5.009-7.8ZM78.1,72.683H69.263V70.355H78.1Z" transform="translate(71.392 -56.229)" fill="#094392"/>
      <path id="path_7823" data-name="path 7823" d="M61.645,81.19h9.119V76.725H61.647v-4.72H72.388V67.477H61.438l-.969-5.769H55.59l.969,5.769H45.6v4.528H56.511v4.72H47.394V81.19h9.117v5.227H45.6v4.561H72.523V86.421H61.647Z" transform="translate(53.719 -61.643)" fill="#094392"/>
      <path id="path_7824" data-name="path 7824" d="M31.833,72.966H40.9v-2.4H31.833v-.764H43.409v-.1h.033V63.682H31.833v-2H27.273v2.008H15.856l-.013,6.124h11.43v.764H18.278v2.4h8.995v.8h-11.9v2.712H43.952V73.768H31.833Zm0-6.251h7.144v.734H31.833Zm-4.561.734H20.129v-.734h7.144Z" transform="translate(18.113 -61.678)" fill="#094392"/>
      <path id="path_7825" data-name="path 7825" d="M36.978,76.652l.331.993-2.666-.065-.653-2.455H40.9V68.779H18.208v5.168h-1.05L15.44,82.607h4.691l1.483-7.481h8.2l.871,3.228h2.973c-.163.832-.436,1.021-1.226,1.021H28.985c-1.276,0-1.525-.1-1.525-.956V75.761h-4.5v2.712c0,3.413,1.019,4.528,5.421,4.528h4.528a4.343,4.343,0,0,0,4.774-4.216l1.272,3.809h4.691L41.66,76.639ZM24.533,72.573H22.492V71.3h2.041ZM34.26,71.3h2.1v1.276h-2.1Zm-5.9,0h2.073v1.276H28.36Z" transform="translate(18.187 -53.313)" fill="#094392"/>
      <path id="path_7826" data-name="path 7826" d="M23.319,71.435h5.009V66.875H17v-5.2H12.109v5.2H1v4.561H5.841l1.8,14.734H0v4.656H29.315V86.171H21.527ZM12.349,86.169l-1.8-14.734h8.078l-1.8,14.734Z" transform="translate(0 -61.678)" fill="#094392"/>
    </g>
  </g>
</svg>
