<svg xmlns="http://www.w3.org/2000/svg" width="1109.455" height="731.799" viewBox="0 0 1109.455 731.799">
  <g id="aboutus" transform="translate(-1985 -1923.878)">
    <g id="shape" transform="translate(2124 1859.57)">
      <path id="Background_Shape" data-name="Background Shape" d="M.939,192.075c18.882-97.237,209.945-41.843,335.2-71.9S609.593-49.89,707.668,18.689s-6.276,234.355-231.219,271.766S-17.943,289.313.939,192.075Z" transform="translate(54.337 399.759)" fill="#f2f2f2"/>
      <g id="Cells" transform="translate(103.004 134.32)" opacity="0.5">
        <path id="Fill_5" data-name="Fill 5" d="M1.272,1.177C-.572,3.018.144,9.562.1,11.984.046,15.754.28,19.491.6,23.247.807,25.762,2,49.765,5.31,47.922c1.868-1.039.7-7.982.694-10.178,0-4.883-.211-9.754-.536-14.626A128,128,0,0,1,5.149,9.594C5.192,8.488,6.227-3.787,1.272,1.177" transform="translate(0.724 1.803)" fill="#89c5cc"/>
        <path id="Fill_7" data-name="Fill 7" d="M82.227.021C66.383.147,50.545.929,34.709,1.408c-7.62.23-15.236.523-22.848.946-2.594.144-8.157-.686-10.318.7-4.8,3.069,2.94,3.786,5,3.711,31.34-1.136,62.691-2.633,94.058-2.7,15.387-.034,30.766.4,46.154.3,5.882-.037,12.4-2.572,13.882,4.275,1.677,7.726-.25,16.328-.774,24.092a136.215,136.215,0,0,0,.008,15.436c.15,3.317-.24,7.055.346,10.311.564,3.135,2.818,5.015,4.884,1.5,1.234-2.1.62-7.279.7-9.71.111-3.274.007-6.547.007-9.821,0-7.992,1.127-15.953.978-23.944-.1-5.153-.37-14.494-6.869-15.732C152.76-.587,143.964.785,136.64.7,118.5.488,100.38-.121,82.227.021" transform="translate(0.084)" fill="#89c5cc"/>
        <path id="Fill_9" data-name="Fill 9" d="M38.653.1Q29.692.1,20.73.233C15.607.318,7.552-.75,2.783,1.083c-3.264,1.255-4.132,4.9,0,5.87C7.289,8.012,14.081,6.281,18.8,6.2c23.641-.417,47.51-.961,71.118.534,22.122,1.4,44.669,2.759,66.823,1.28,1.864-.124,11.37-.5,7.033-4.066-2.531-2.08-12.788-.712-16.077-.811-11.6-.35-23.213-.428-34.81-.867C101.437,1.833,90.042.546,78.593.227,65.291-.143,51.96.1,38.653.1" transform="translate(0 49.914)" fill="#89c5cc"/>
        <path id="face" d="M19.656,32.713h0c-8.1,0-16.935-3.888-18.428-12.574A8.084,8.084,0,0,1,1.173,18.6a6.886,6.886,0,0,0-.085-1.659,3.2,3.2,0,0,0-.519-.968A2.542,2.542,0,0,1,0,14.737c-.017-2.367,1.354-3.655,2.941-5.148A23.489,23.489,0,0,0,4.691,7.82c3.16-3.665,5.157-5.46,9.343-7.1A11.024,11.024,0,0,1,18.064,0c3.756,0,8.043,1.662,11.761,4.56,3.682,2.869,6.231,6.481,6.992,9.908a14.091,14.091,0,0,1-1.946,10.719,16.173,16.173,0,0,1-10.157,7,23.979,23.979,0,0,1-5.058.526ZM7,14.023H7a9.222,9.222,0,0,0,.89,8.819c2.321,3.341,6.983,5.5,11.877,5.5a13.768,13.768,0,0,0,7.9-2.308,8.842,8.842,0,0,0,3.574-4.621A9.118,9.118,0,0,0,31.2,16.08a15.317,15.317,0,0,0-4.8-7.145A13.278,13.278,0,0,0,18.569,5.6a2.025,2.025,0,0,1-1.116.549A.963.963,0,0,1,16.993,6h-.011a1.047,1.047,0,0,0-.5-.146,1.128,1.128,0,0,0-.341.058,13.692,13.692,0,0,0-3.992,2.366L11.86,8.5l-.333.251A22.677,22.677,0,0,0,8.1,11.682c-.005.006-.125.271-.277.6-.3.651-.789,1.737-.815,1.749a.024.024,0,0,1,0-.014Z" transform="translate(14.107 10.435)" fill="#89c5cc"/>
        <path id="Fill_13" data-name="Fill 13" d="M0,2.859c0,3.774,5.962,3.774,5.962,0C5.962-.872,0-1.033,0,2.859" transform="translate(24.259 22.949)" fill="#89c5cc"/>
        <path id="Fill_15" data-name="Fill 15" d="M0,2.272c0,3,4.738,3,4.738,0C4.738-.694,0-.82,0,2.272" transform="translate(31.718 22.773)" fill="#89c5cc"/>
        <path id="Fill_17" data-name="Fill 17" d="M5.627.111C4.11.694,2.186-.515.94.281c-2.206,1.412,0,2.69,1.188,3.257C7.451,6.093,8.4-.951,5.627.111" transform="translate(27.558 31.119)" fill="#89c5cc"/>
        <path id="Fill_19" data-name="Fill 19" d="M2.414,11.03a2.684,2.684,0,0,1-.708-.1C.447,10.588-.12,9.882.021,8.836.255,7.091,2.4,4.87,4.338,3.373,6.781,1.48,9.3.3,10.9.3a2.84,2.84,0,0,1,.4.027,10.986,10.986,0,0,1,4.336,2.012,10.673,10.673,0,0,0,4.5,2.036,7.007,7.007,0,0,0,.8.046c2.267,0,4.316-1.111,6.3-2.186A18.511,18.511,0,0,1,31.818.258,10.483,10.483,0,0,1,34.11,0c2.94,0,5.466,1.269,7.909,2.5l.049.025c2.42,1.214,4.922,2.47,7.745,2.47a10.14,10.14,0,0,0,3.525-.645c.39-.142.815-.322,1.3-.548l.03-.012c.47-.223.943-.463,1.4-.7a13.919,13.919,0,0,1,5.191-1.833c.148-.01.3-.014.446-.014,2.5,0,4.652,1.378,6.727,2.711.818.525,1.664,1.068,2.508,1.508a5.526,5.526,0,0,0,1.247.4c.989.237,1.923.462,2.052,1.646a1.541,1.541,0,0,1-.277,1.247,1.7,1.7,0,0,1-1.341.428A10.56,10.56,0,0,1,71.46,9.1c-.155-.017-.3-.034-.443-.047A10.319,10.319,0,0,1,66.441,6.99a10.249,10.249,0,0,0-4.407-2.016,4.754,4.754,0,0,0-.494-.025c-1.836,0-3.9,1-5.892,1.964a19.084,19.084,0,0,1-4.455,1.746,11.713,11.713,0,0,1-2.142.2,16,16,0,0,1-7.407-2.183l-.774-.4C38.485,5.025,36.6,4.04,34.319,4.04a9.717,9.717,0,0,0-3.667.789c-1.031.417-2.013.9-2.963,1.357-2.407,1.171-4.68,2.276-7.417,2.276a10.5,10.5,0,0,1-1.739-.148,13.3,13.3,0,0,1-3.611-1.533c-1.5-.806-3.056-1.64-4.371-1.64a2.925,2.925,0,0,0-.318.017C8.854,5.31,7.679,6.7,6.542,8.039,5.3,9.509,4.008,11.03,2.414,11.03Z" transform="translate(59.483 19.219)" fill="#89c5cc"/>
        <path id="Fill_21" data-name="Fill 21" d="M91.945.063C75.661.212,59.322.454,43.084,1.76,39.235,2.069-.074,5.78,0,6.048c.138.495,5.194,1.25,5.162,1.367Q4.651,6.147,2.826,6.366c37.281,0,74.444-3.338,111.775-2.738,9.38.151,18.795.088,28.168.383,2.34.074,8.138,1.751,9.976.7,4.823-2.773-3.939-3.094-5.39-3.21C128.983.026,110.368-.121,91.945.063" transform="translate(6.409 73.779)" fill="#69a1ac"/>
        <path id="Fill_23" data-name="Fill 23" d="M1.13,1.218C-1.3,3.659.937,12.44,1.033,15.74c.139,4.771.024,9.576.443,14.335a96.959,96.959,0,0,0,2.646,16.5c.786,2.9,3.543,7.523,4.635,2.243.78-3.771-.4-8.773-.817-12.614A148.683,148.683,0,0,1,7.235,20.83c-.019-4.5-.1-9.017-.474-13.5C6.569,5,5.4-3.027,1.13,1.218" transform="translate(0.453 80.535)" fill="#69a1ac"/>
        <path id="Fill_25" data-name="Fill 25" d="M56.9.1C45.344.3,33.764.568,22.228,1.29c-4.728.3-9.453.737-14.164,1.237-.961.1-11.6.534-6.847,4.46C3.363,8.76,12.19,6.309,15.106,6.054c4.9-.43,9.806-.709,14.724-.917,11.394-.484,22.824-.911,34.23-.713,20.83.361,41.527.523,62.363.058,2.96-.066,26.152.554,26.94-2.526C154-.527,145.7.612,144.191.657c-5.548.166-11.1.127-16.645.1C104.037.635,80.391-.3,56.9.1" transform="translate(5.93 126.373)" fill="#69a1ac"/>
        <path id="Fill_27" data-name="Fill 27" d="M0,2.891C.369,13.18,2.121,23.457,2.681,33.776c.256,4.717.557,9.431.788,14.15.075,1.522-.539,5.19,1.261,6.066,2.469,1.2,2.8-1.219,3.264-2.856,1.335-4.728.432-10.87.311-15.727-.117-4.7-.125-9.415-.472-14.109-.355-4.8-1.321-9.5-1.769-14.281C5.875,5,6.537,1.633,4.391.379A2.941,2.941,0,0,0,0,2.891" transform="translate(155.364 74.744)" fill="#69a1ac"/>
        <path id="face-2" data-name="face" d="M21.363,33.893h-.18c-3.085-.027-8.986-.43-13.838-2.828a13.99,13.99,0,0,1-5.224-4.2A11.356,11.356,0,0,1,0,20.133,21.739,21.739,0,0,1,4.945,6.889,20.079,20.079,0,0,1,10.388,2.1,14.553,14.553,0,0,1,17.073.021c.27-.014.545-.021.819-.021a18.616,18.616,0,0,1,6.649,1.291,23.422,23.422,0,0,1,6.106,3.488A23.321,23.321,0,0,1,35.47,9.887a18.422,18.422,0,0,1,2.8,6.151A13,13,0,0,1,35.981,27.5,16.23,16.23,0,0,1,29.6,32.23a21.071,21.071,0,0,1-8.236,1.662h0ZM16.815,4.687A12.615,12.615,0,0,0,7.656,9.3a16.29,16.29,0,0,0-3.781,9.744,8.511,8.511,0,0,0,2.306,6.5,13.786,13.786,0,0,0,6.758,3.5,33.832,33.832,0,0,0,7.965.87h.541c4.6-.058,8.828-1.911,11.042-4.838a8.987,8.987,0,0,0,1.332-8.034,13.963,13.963,0,0,0-2.692-5.02,24.047,24.047,0,0,0-4.145-4A14.192,14.192,0,0,0,20.047,5.39a30.519,30.519,0,0,1-3.232-.69Z" transform="translate(15.149 87.015)" fill="#69a1ac"/>
        <path id="Fill_31" data-name="Fill 31" d="M0,2.3c0,3.034,4.793,3.034,4.793,0C4.793-.7,0-.83,0,2.3" transform="translate(22.671 99.345)" fill="#69a1ac"/>
        <path id="Fill_33" data-name="Fill 33" d="M0,2.316c0,3.058,4.831,3.058,4.831,0C4.831-.707,0-.837,0,2.316" transform="translate(32.725 97.995)" fill="#69a1ac"/>
        <path id="Fill_35" data-name="Fill 35" d="M.554.4c-3.12,3.115,7.84,8.575,10.424,4.242C13.1,1.083,8.478,2.263,6.84,2.071,5.06,1.864,2.007-1.046.554.4" transform="translate(26.628 106.828)" fill="#69a1ac"/>
        <path id="Fill_37" data-name="Fill 37" d="M2.376,10.95h0A2.3,2.3,0,0,1,.65,10.335,3.12,3.12,0,0,1,0,8C.143,4.28,10.423.767,13.67.158A9.174,9.174,0,0,1,15.355,0c2.553,0,4.763,1.11,6.9,2.183l.03.015c2.153,1.081,4.379,2.2,7,2.2a9.641,9.641,0,0,0,2.1-.236,27.406,27.406,0,0,0,3.807-1.256,19.78,19.78,0,0,1,5.254-1.484c.294-.026.582-.039.859-.039a9.1,9.1,0,0,1,5.244,1.851A19.478,19.478,0,0,0,49.5,4.828a5.409,5.409,0,0,0,2.13.423,12.128,12.128,0,0,0,1.547-.129h.035a12.935,12.935,0,0,1,1.654-.133c.158,0,.315,0,.467.015,1.567.1,2.559.627,2.722,1.447.177.894-.687,1.926-2.256,2.693a7.474,7.474,0,0,1-3.314.848c-1.951,0-3.516-.928-5.172-1.91a12.569,12.569,0,0,0-5.1-2.065,7.744,7.744,0,0,0-.826-.044c-2.222,0-4.378.894-6.661,1.84l-.107.044A18.616,18.616,0,0,1,27.647,9.74c-.129,0-.26,0-.387-.008a16.671,16.671,0,0,1-6.327-1.851A13.508,13.508,0,0,0,15.34,6.264a8.476,8.476,0,0,0-3.234.669c-.389.158-1.016.5-1.811.935C8.048,9.1,4.654,10.95,2.376,10.95Z" transform="translate(59.98 95.145)" fill="#69a1ac"/>
        <path id="point" d="M7.8,14.59h0a7.053,7.053,0,0,1-4.831-2.224A10.221,10.221,0,0,1,.181,7.389,6.6,6.6,0,0,1,.474,3.358,6,6,0,0,1,3.652.292,3.6,3.6,0,0,1,5.152,0c2.432,0,5.417,1.711,6.76,2.926A6.37,6.37,0,0,1,13.9,7.8a7.258,7.258,0,0,1-2.457,5.382A5.544,5.544,0,0,1,7.8,14.59ZM5.521,4.569c-.837.786-.675,2.223-.283,3.214C5.722,9,6.59,9.794,7.448,9.794a1.481,1.481,0,0,0,.32-.035c.893-.2,1.387-.553,1.468-1.054C9.5,7.088,5.561,4.593,5.521,4.569Z" transform="translate(130.801 93.734)" fill="#69a1ac"/>
        <path id="Fill_41" data-name="Fill 41" d="M44.312.038C33.027.041,21.644-.2,10.375.473,8.478.586,1.253.225.276,2.208-1.511,5.834,5.922,4.034,7,3.925c22.438-2.246,45.877-.954,68.39-.314,18.412.523,36.725.848,55.115,1.8q7.251.374,14.494.816c1.574.1,5.537,1.139,5.869-1.376.307-2.327-4.636-1.8-5.87-1.867q-14.729-.775-29.448-1.611C91.923.039,67.977.034,44.312.038" transform="translate(5.249 152.135)" fill="#89c5cc"/>
        <path id="Fill_43" data-name="Fill 43" d="M1.631,1.16C-.477,3.255.511,11.255.452,13.9c-.1,4.625-.321,9.246-.419,13.87-.1,4.833.04,9.688.326,14.513C.478,44.31,2.141,54.1,4.76,48.5c1.17-2.5-.028-9.479-.01-12.317.032-5.164.31-10.307.567-15.464.221-4.433.229-8.871.423-13.305C5.8,6,5.968-3.191,1.631,1.16" transform="translate(3.532 155.046)" fill="#89c5cc"/>
        <path id="Fill_45" data-name="Fill 45" d="M154.72.009C143.738,1.135,132.58.6,121.556,1.434c-9.5.716-18.993,1.009-28.518,1.211-21.569.455-43.174.9-64.681,2.7-4.9.409-9.8.844-14.711,1.064C11.189,6.515.875,5.4.107,7.988c-1.308,4.413,9.721,2.666,12.1,2.6,5.231-.151,10.438-.529,15.655-.927C49.791,7.988,71.8,7.488,93.779,6.794c11.952-.377,23.82-1.252,35.746-2.047,5.944-.4,11.9-.409,17.847-.793,1.555-.1,7.06.1,8.178-1.154.769-.859.963-2.957-.83-2.79" transform="translate(3.297 197.508)" fill="#89c5cc"/>
        <path id="Fill_47" data-name="Fill 47" d="M0,3.217C.38,13.749.975,24.271,1.33,34.8c.107,3.167-.85,8.843.914,11.636,2.836,4.491,5.049-.262,5.568-3.06,1.639-8.832-.123-18.589-.581-27.475-.174-3.39.879-10.936-.76-13.97C4.911-.958-.137-.667,0,3.217" transform="translate(154.291 153.74)" fill="#89c5cc"/>
        <path id="hola_:_" data-name="hola :)" d="M8.241,18.529A8.827,8.827,0,0,1,5.376,18,7.85,7.85,0,0,1,2.2,15.861a8.757,8.757,0,0,1-1.925-3.31C-.385,10.392.259,8.939.941,7.4A9.64,9.64,0,0,0,1.9,4.342a5.366,5.366,0,0,0-.1-1.1A3.513,3.513,0,0,1,1.965.79C2.342.29,3.26.05,4.765.05c.555,0,1.1.03,1.572.057.244.014.473.027.661.032A6.824,6.824,0,0,1,8.351,0,5.748,5.748,0,0,1,13.3,2.9a12.1,12.1,0,0,1,1.717,6.369A10.723,10.723,0,0,1,12.444,16.8,5.715,5.715,0,0,1,8.241,18.529ZM8.181,3.778h0C5.648,5,3.5,9.632,4.149,12.468a2.9,2.9,0,0,0,3.169,2.344,6.673,6.673,0,0,0,.937-.071,3.415,3.415,0,0,0,2.4-1.54,6.018,6.018,0,0,0,.91-2.976,8.313,8.313,0,0,0-.757-4.015A4.33,4.33,0,0,0,8.181,3.778Z" transform="translate(127.676 168.178)" fill="#89c5cc"/>
        <path id="Fill_51" data-name="Fill 51" d="M16.464,33.557h0a16.37,16.37,0,0,1-13.7-7.535,13.819,13.819,0,0,1-.328-13.884,1.609,1.609,0,0,1-.967.417c-.853,0-1.27-1.141-1.442-1.82C-.241,9.668,1.444,7.8,2.56,6.563c.256-.284.477-.529.63-.716C5.6,2.894,8.433.142,12.821.008,12.974,0,13.129,0,13.283,0A15.983,15.983,0,0,1,23.375,3.848a21.815,21.815,0,0,1,6.514,9.09,17.305,17.305,0,0,1,1.023,8.909,13.12,13.12,0,0,1-4.4,7.866,15.045,15.045,0,0,1-10.048,3.844ZM12.534,7.7a3.751,3.751,0,0,0-1.073.117,8.673,8.673,0,0,0-4.134,3.258,14.86,14.86,0,0,0-2.34,4.8,11.152,11.152,0,0,0,.849,8.645,10.95,10.95,0,0,0,6.971,4.926,14.249,14.249,0,0,0,3.584.466,11.4,11.4,0,0,0,6.356-1.807,9.6,9.6,0,0,0,3.92-5.489,12.221,12.221,0,0,0-1.593-10.485A20.429,20.429,0,0,0,16.633,5.28l.074.635.074.635c-.292,1.062-1.4,1.2-2.438,1.2-.309,0-.634-.014-.921-.026h-.029C13.091,7.714,12.808,7.7,12.534,7.7Zm.238-3.712a7.892,7.892,0,0,0-4.839,1.83A9.828,9.828,0,0,1,12.772,3.99Z" transform="translate(13.664 158.127)" fill="#89c5cc"/>
        <path id="Fill_53" data-name="Fill 53" d="M0,1.516a1.57,1.57,0,0,0,3.139,0A1.57,1.57,0,0,0,0,1.516" transform="translate(22.593 170.722)" fill="#89c5cc"/>
        <path id="Fill_55" data-name="Fill 55" d="M0,1.541a1.6,1.6,0,0,0,3.189,0A1.6,1.6,0,0,0,0,1.541" transform="translate(27.949 171.043)" fill="#89c5cc"/>
        <path id="Fill_57" data-name="Fill 57" d="M8.424.007C6.932.128,1.471-.379.512.928c-1.6,2.184.955,2.26,2.211,2.5,1.131.213,6.048.092,6.741-.912.612-.888.469-2.633-1.04-2.5" transform="translate(21.956 179.793)" fill="#89c5cc"/>
        <path id="Fill_59" data-name="Fill 59" d="M2.019,10.921h0c-.787,0-1.394-.541-1.856-1.654C-.8,6.935,2.783,3.89,3.961,2.889A7.594,7.594,0,0,1,9.062.758a10.123,10.123,0,0,1,3.06.538,24.137,24.137,0,0,1,2.3.888A9.415,9.415,0,0,0,18.3,3.216a7.9,7.9,0,0,0,1.859-.236,27.005,27.005,0,0,0,3.82-1.335,18.639,18.639,0,0,1,5.6-1.618C29.812.009,30.05,0,30.288,0A18.374,18.374,0,0,1,36.55,1.493a27.7,27.7,0,0,0,4.157,1.281,14.281,14.281,0,0,0,2.774.279,18.155,18.155,0,0,0,6.491-1.416A17,17,0,0,1,56.1.232a13.8,13.8,0,0,1,4.228.725c.192.061.567.166,1.041.3,2.423.682,7.464,2.1,7.7,2.965a1.826,1.826,0,0,1-.115,1.616,1.844,1.844,0,0,1-1.54.545A15.4,15.4,0,0,1,63.1,5.4h-.007l-.225-.076c-.581-.2-1.14-.4-1.681-.592A16.915,16.915,0,0,0,55.35,3.355a9.787,9.787,0,0,0-2.716.391c-1.027.293-1.985.609-2.911.914A23.155,23.155,0,0,1,42.24,6.229a15.708,15.708,0,0,1-2.079-.141,23.742,23.742,0,0,1-4.014-1.033,17.735,17.735,0,0,0-5.316-1.123h-.063a16.723,16.723,0,0,0-6.39,1.786,24.443,24.443,0,0,1-4.373,1.557,7.087,7.087,0,0,1-1.5.159,13.19,13.19,0,0,1-4.237-.915l-.11-.037a12.261,12.261,0,0,0-3.9-.877,5.6,5.6,0,0,0-.946.079c-.754.129-1.806,1.161-2.92,2.252C4.968,9.333,3.347,10.921,2.019,10.921Z" transform="translate(45.964 172.6)" fill="#89c5cc"/>
      </g>
      <g id="Big_Cards" data-name="Big Cards" transform="translate(324.235 64.301)" opacity="0.5">
        <path id="Fill_67" data-name="Fill 67" d="M6.054,118.824h0a21.1,21.1,0,0,1-2.431-.131c-1.684-.2-2.639-.559-3.006-1.141-.4-.635-.107-1.489.265-2.571a15.483,15.483,0,0,0,.567-1.935c.582-2.833.1-6.408-.37-9.866-.25-1.85-.487-3.6-.55-5.158-.87-21.51-.5-43.065-.074-61.58.1-4.458.227-8.99.349-13.373q.041-1.46.081-2.92c.01-.362.022-.731.035-1.1a41.4,41.4,0,0,0-.071-5.8,4.438,4.438,0,0,0-.387-1.322c-.3-.712-.522-1.226.387-2.414C2.036,7.957,5.111,7.759,7.656,7.759c.808,0,1.623.022,2.455.047l.169.005c.733.022,1.425.043,2.042.043.539,0,.97-.016,1.318-.05,4.96-.479,9.56-.826,14.06-1.063C41.871,6,56.254,5.036,70.163,4.107c30.235-2.018,61.5-4.1,92.4-4.1h2.745c5.626,0,11.11.1,16.346,1.286a26.013,26.013,0,0,0,3.4.624,4.374,4.374,0,0,0,.458.022c.21,0,.417-.012.616-.023h.011c.193-.011.393-.022.591-.022a3.079,3.079,0,0,1,1.23.223,4.649,4.649,0,0,1,2.722,3.463c.557,2.084.022,4.943-.5,7.708a38.241,38.241,0,0,0-.589,3.784c-.38,4.723-.558,9.859-.542,15.7V34.6c.018,8.736.037,17.769,1.168,26.557.282,2.191.6,4.4.9,6.545.821,5.793,1.669,11.779,1.951,17.781.1,2.026.17,4.088.242,6.081v.015c.1,2.838.208,5.772.377,8.661.029.5.027,1.01.026,1.553a12.751,12.751,0,0,0,.245,3.155,2.352,2.352,0,0,0,.855,1.221,1.4,1.4,0,0,1,.511.647c.357,1.437.476,2.394.031,3.037-.411.592-1.259.915-2.888,1.375-6.345,1.789-13.487,2.035-20.259,2.035-1.377,0-2.728-.01-4.035-.02h-.39c-1.2-.008-2.341-.016-3.489-.016h-.185c-23.243.012-44.192.069-65.2.643-6.379.174-12.881.275-19.169.373-14.952.232-30.411.472-45.524,1.717-3.551.293-7.158.644-10.646.984-1.367.133-2.776.271-4.161.4-1.509.143-3.094.377-4.772.624a60.763,60.763,0,0,1-8.585.852ZM69.087,38.753c4.775,0,9.886,1.687,15.625,5.158a114.3,114.3,0,0,1,13.53,10.121l.662.55c1.532,1.271,3.072,2.572,4.561,3.831,3.373,2.851,6.862,5.8,10.432,8.539l.7.538.121.093c3.022,2.321,6.147,4.722,9.391,6.815a8.027,8.027,0,0,0,4.22,1.654c1.6,0,3.083-.934,5.378-2.458.8-.529,1.591-1.066,2.361-1.586a87.863,87.863,0,0,1,9.759-5.993,30.007,30.007,0,0,1,11.018-3.245c.752-.062,1.53-.094,2.312-.094,4.933,0,13.081,1.279,23.889,7.374a195.642,195.642,0,0,1-2.8-50.634c.194-2.9.515-5.818.833-8.538.031-.263.122-.674.228-1.15.253-1.139.6-2.7.317-3.255-.6-1.177-2.761-1.327-4.58-1.327-.487,0-.961.011-1.486.024h-.079c-.455.012-.882.022-1.268.022-.17,0-.32,0-.458-.006-2.231-.069-4.533-.1-7.038-.1-5.672,0-11.442.179-17.021.352-2.536.079-5.155.16-7.727.223C119.015,6.224,94.989,7.5,70.554,9.447c-9.083.725-18.329,1.246-27.27,1.75-10.437.588-21.227,1.2-31.816,2.131-3.94.347-3.942.68-3.967,3.865,0,.374-.006.8-.016,1.262-.024,1.073-.052,2.162-.078,3.216v.009l-.016.641C7.25,27.845,7.1,33.737,6.9,39.687c-.249,7.4-.647,14.918-1.031,22.187-.222,4.2-.452,8.549-.651,12.824,5.955-3.644,11.715-7.8,17.286-11.819C27.867,59.006,33.418,55,39.145,51.451c8.254-5.115,16.4-9.891,25.272-12.125a19.145,19.145,0,0,1,4.67-.573Z" fill="#69a1ac"/>
        <path id="Fill_69" data-name="Fill 69" d="M.086,2.692c0,3.269-.513,8.093.994,11.172,1.912,3.9,4.3,2.684,4.937-.985.363-2.1.354-8.324-.321-10.187C4.739.056.086-1.74.086,2.692" transform="translate(137.513 19.645)" fill="#89c5cc"/>
        <path id="Fill_71" data-name="Fill 71" d="M15.16.023C12.091.132,3.152-.605,1.076,1.863-2.486,6.1,3.715,6.845,6.377,6.608c3.081-.274,12.6.395,14.665-2.076C24.494.4,17.573-.065,15.16.023" transform="translate(127.924 23.576)" fill="#89c5cc"/>
        <path id="Fill_73" data-name="Fill 73" d="M18.308,31.255h0A19.522,19.522,0,0,1,7.724,27.867,17.519,17.519,0,0,1,.781,19.542,14,14,0,0,1,2.037,7.707,15.847,15.847,0,0,1,6.416,2.871,14.521,14.521,0,0,1,12.546.286,20.79,20.79,0,0,1,15.989,0a19.044,19.044,0,0,1,9.55,2.438,13.825,13.825,0,0,1,6.276,7.478,15.622,15.622,0,0,1,.785,6.015,18.747,18.747,0,0,1-1.4,6.084A16.935,16.935,0,0,1,27.855,27.2a12.977,12.977,0,0,1-5.044,3.315,13.474,13.474,0,0,1-4.5.74ZM17.127,6.636a14.6,14.6,0,0,0-6.4,1.582,9.7,9.7,0,0,0-4.607,4.5,6.072,6.072,0,0,0-.009,4.967c1.377,3.243,5.288,5.924,8.554,7.143a10.531,10.531,0,0,0,3.668.713,7.453,7.453,0,0,0,5.687-2.528,9.917,9.917,0,0,0,2.4-5.77,9.542,9.542,0,0,0-8.288-10.56C17.81,6.652,17.471,6.636,17.127,6.636Z" transform="translate(5.85 126.132)" fill="#89c5cc"/>
        <path id="Fill_75" data-name="Fill 75" d="M54.855.028c-3.355.278-6.263,2.63-9.643,3.047-3.161.389-5.78-.692-8.739-1.557A19.092,19.092,0,0,0,25.959.943c-2.793.71-5.549,2.61-8.45,2.84-5.71.451-12.346-6.064-16.8,1.3-2.137,3.532.966,5.808,4.162,4.16C8.2,7.53,6.564,6.915,10.7,7.93c3.449.845,6.236,1.3,9.691.12,3.13-1.073,5.877-3.038,9.278-3.258C33,4.576,35.9,6.092,39.08,6.748A20.626,20.626,0,0,0,50.166,5.715c3.528-1.167,4.936-1.806,8.5-.764,2.254.659,7.179,2.754,9.373,1.066C71.83,3.1,66.75,2.672,64.75,2.257c-3.221-.667-6.55-2.5-9.9-2.229" transform="translate(45.611 135.192)" fill="#89c5cc"/>
        <path id="Fill_77" data-name="Fill 77" d="M12.886,23.95h0A12.338,12.338,0,0,1,4.15,20.412,13.676,13.676,0,0,1,.119,12.479a11.022,11.022,0,0,1,1.46-7.412A11.875,11.875,0,0,1,8.709.079,2.525,2.525,0,0,1,9.379,0c2.114,0,6.029,1.827,7.627,2.849A12.811,12.811,0,0,1,22.1,8.9a12.831,12.831,0,0,1,.809,5.355,11.8,11.8,0,0,1-1.464,5.109,8.592,8.592,0,0,1-6.194,4.381,14.242,14.242,0,0,1-2.365.205ZM9.4,7.39c-2.723.9-2.836,2.859-2.661,3.95a7.1,7.1,0,0,0,2.2,3.819,6.073,6.073,0,0,0,3.978,1.8h.193c1.933-.094,3-.987,3.017-2.514A7.267,7.267,0,0,0,14,9.959,7.265,7.265,0,0,0,9.4,7.39Z" transform="translate(164.646 125.179)" fill="#89c5cc"/>
        <path id="Image_Border" data-name="Image Border" d="M1.374,99.587c-1.1-2.644.427-3.861,2.655-4.414a29.411,29.411,0,0,1-.235-5.863c-.12-3.37-.163-6.743-.292-10.112-.309-8.029-.514-16.1-1.132-24.116C1.777,47.424.284,40,.241,32.284.212,27.066-1.238,13.845,3.331,10.3,11.185,5.718,8.08,21.887,7.95,24.685a166.931,166.931,0,0,0,.987,24.85c.777,7.672-.116,15.311-.415,22.985-.158,4.074-.245,8.142-.551,12.209-.1,1.268.051,6.983-.614,10.027,1.011-.043,1.992-.034,2.814-.025.57,0,1.063.012,1.435,0,6.362-.192,12.725-.361,19.086-.6,24.469-.92,48.952-.5,73.417-1.666,23.14-1.1,46.365-1.333,69.522-1.617a2.348,2.348,0,0,1,1.631,3.937c-1.272,1.6-7.17,1.248-9.008,1.4-6.522.523-13.032.76-19.574.822-13.777.131-27.5.722-41.255,1.506-24.438,1.393-48.911,1.278-73.361,2.273-5.936.241-11.87.421-17.808.577-1.589.042-4.481.548-7.149.548C4.517,101.907,2.138,101.43,1.374,99.587ZM178.133,78.1q-.772-13.37-1.968-26.73c-1.3-14.374-2.419-28.409-2.408-42.842,0-3.425,4.112-4.114,5.935-1.784,1.742,2.229.62,8.976.664,11.642.14,8.786.971,17.521,1.76,26.267.783,8.674,1.337,17.352,1.942,26.039.28,4.015,3.365,20.04-1.12,22.379a2.985,2.985,0,0,1-1.369.387C177.4,93.462,178.28,80.626,178.133,78.1ZM3.511,9.146C2.044,8.546.858,7.708,1.664,5.931c.663-1.46,3.022-1.332,4.812-1.2.555.04,1.054.079,1.433.073,5.773-.112,11.533-.436,17.3-.789,13.085-.8,26.141-1.737,39.252-1.961C89.446,1.628,114.4.254,139.394.02c7.4-.069,14.766.061,22.158.485,3.279.188,6.556.369,9.837.509.6.025,1.455-.021,2.388-.066,2-.1,4.366-.2,5.5.4,6.525,3.453-6.769,3.831-8.386,3.8-6.783-.114-13.552-.643-20.334-.808-24.943-.613-50.074.905-75,1.927-11.988.493-23.97.562-35.954,1.236-6.551.368-13.1.788-19.648,1.134-3.02.159-6.042.313-9.066.389-1.285.033-3.487.41-5.3.41a5.777,5.777,0,0,1-2.083-.29Z" transform="translate(2.569 169.821)" fill="#69a1ac"/>
        <path id="Image_X" data-name="Image X" d="M2.841,57.534C1.248,57.5.174,57.158.008,55.227c-.212-2.47,3.766-3.484,5.373-4.288q8.266-4.134,16.619-8.1c11.044-5.268,22.191-10.325,33.378-15.282l.194-.086q-9.307-3.15-18.662-6.156C33.344,20.174,8.359,14.008,9.27,10.7c1.024-3.71,23.152,5.038,26.557,6.122q12.573,4,25.048,8.285C80.823,16.145,100.983,6.6,121.79.075c1.311-.409,2.139.941,1.841,2.075-.4,1.517-5.065,2.746-6.361,3.324-5.124,2.289-10.275,4.521-15.4,6.81-11.163,4.989-22.348,9.931-33.51,14.922l-.66.294q11.777,4.183,23.426,8.7c4.158,1.606,8.293,3.264,12.441,4.893,2.078.816,10.718,2.864,11.215,4.938.7,2.929-8.508-.669-9.974-1.138-4.139-1.323-8.226-2.8-12.313-4.277-9.146-3.294-18.252-6.693-27.433-9.888l-2.578-.894q-14.62,6.572-29.167,13.291-7.8,3.612-15.524,7.367C14,52.329,7.17,57.536,2.951,57.536Z" transform="translate(33.027 192.112)" fill="#89c5cc"/>
        <path id="Fill_117" data-name="Fill 117" d="M15.266,28.845A14.806,14.806,0,0,1,5.892,25.86a9.955,9.955,0,0,1-3.351-4.9,11.238,11.238,0,0,1-.24-4.634,3.066,3.066,0,0,1-.45.035A2.033,2.033,0,0,1,.022,15.3c-.35-4.337,3.622-8.132,6.021-10.009C9.494,2.588,13.966.5,17.169.089A11.337,11.337,0,0,1,18.584,0a12.327,12.327,0,0,1,8.927,4.071,14.8,14.8,0,0,1,4.1,10.717,14.057,14.057,0,0,1-4.3,9.585,16.5,16.5,0,0,1-9.661,4.333,20.96,20.96,0,0,1-2.384.139ZM18.685,4.574a2.238,2.238,0,0,0-2.434,1.343,3.866,3.866,0,0,1-1.84,1.8,3.157,3.157,0,0,1-1.337.183,3.739,3.739,0,0,0-1.649.252,8.159,8.159,0,0,0-3,3.42l-.076.127c-1.914,3.213-2.33,6.482-1.139,8.969,1.059,2.212,3.269,3.615,6.391,4.057a15.3,15.3,0,0,0,2.141.151,13.468,13.468,0,0,0,7.832-2.365,9.68,9.68,0,0,0,4.063-6.981A9.979,9.979,0,0,0,25.69,8.486,9.828,9.828,0,0,0,19.5,4.615C19.2,4.587,18.928,4.574,18.685,4.574Z" transform="translate(7.45 277.752)" fill="#89c5cc"/>
        <path id="Fill_119" data-name="Fill 119" d="M9.516,1.146C6.722,2.626,2.3,4.9.665,7.712c-1.731,2.97.061,6.219,3.708,4.814C7.267,11.411,9.108,7.867,12.2,6.732c2.725-1,3.823-.491,6.7.507,2.967,1.028,5.561,2.022,8.769,1.77,4.032-.317,7.524-2.655,11.47-3.187,3.323-.448,6.063.845,9.245,1.359,3.692.6,6.106-.8,9.56-1.528,2.35-.5,6.491,1.519,8.2.766,3.853-1.694-.223-3.766-2.356-4.45-3.593-1.153-5.8-.135-9.223.82-3.711,1.038-5.314.258-8.861-.7C38.531.164,32.987,4.827,26.184,3.979c-6.3-.785-10.067-6.329-16.669-2.834" transform="translate(45.259 286.075)" fill="#89c5cc"/>
        <path id="Fill_121" data-name="Fill 121" d="M12,22.067h0a15.771,15.771,0,0,1-5.4-.943,11.332,11.332,0,0,1-4.414-2.833A8.17,8.17,0,0,1,.031,11.857,10.9,10.9,0,0,1,4.393,3.7,20.793,20.793,0,0,1,13.157.191,10.145,10.145,0,0,1,15.075,0a7.409,7.409,0,0,1,6.019,2.907,11.49,11.49,0,0,1,2.239,6.642,13.377,13.377,0,0,1-2.327,8.17,10.271,10.271,0,0,1-7.828,4.3C12.792,22.052,12.4,22.067,12,22.067ZM14.983,5.4c-2.909,0-6.626.98-8.371,3.17A5.717,5.717,0,0,0,5.18,12.9a4.513,4.513,0,0,0,2.069,3.04,8.081,8.081,0,0,0,4.57,1.516,6.592,6.592,0,0,0,3.772-1.172,6.517,6.517,0,0,0,2.362-2.966,6.345,6.345,0,0,0,.254-3.872,8.237,8.237,0,0,0-2.489-4.022C15.482,5.411,15.234,5.4,14.983,5.4Z" transform="translate(156.407 278.351)" fill="#89c5cc"/>
      </g>
      <path id="Fill_79" data-name="Fill 79" d="M19.846.007C14.748.1,2.158,1.96.286,7.991c-1.421,4.578,2.8,3.573,5.062,1.907a21.389,21.389,0,0,1,9.535-4.286C29.327,3,43.2,12.368,57.51,13.553c5.419.449,11.958.741,17.132-1.014,3.685-1.25,4.165-3.974-.039-4.39-3.573-.352-7.526.759-11.188.727C48.258,8.747,34.785-.278,19.846.007" transform="translate(624.051 101.007)" fill="#c1dee2" opacity="0.5"/>
      <g id="Cards" transform="translate(44.536 385.774)" opacity="0.5">
        <path id="Fill_173" data-name="Fill 173" d="M62.5.037Q47.685.2,32.894,1.136C23.519,1.73,13.348,1.28,4.127,3.1,1.508,3.612-2.029,6,1.453,8.624c2.447,1.845,11.4-.277,14.323-.457,10.762-.661,21.529-1.454,32.307-1.835,10.2-.361,20.4-.488,30.612-.59,1.558-.015,4.145-.515,5.7-.063,2.23.65,1.7.827,1.868,3.658.3,5.128.219,10.275.117,15.409-.1,4.967-.282,9.934-.264,14.9.013,3.546-1.121,10.591.658,13.67,2.561,4.432,5.217-.382,5.409-3.327.366-5.633.2-11.335.2-16.976,0-5.294.039-10.589-.147-15.88-.135-3.823.411-10.5-1.648-13.97C88.492-.371,83.442.392,79.758.223,74.01-.041,68.253-.023,62.5.037" transform="translate(1.953)" fill="#89c5cc"/>
        <path id="Fill_171" data-name="Fill 171" d="M1.61,3.005C1.621,12.952.47,22.833.148,32.769,0,37.338-.3,42.354.856,46.838c1.167,4.528,4.872,5.509,5.3.454.864-10.236.652-20.85,1.325-31.169C7.717,12.481,9.263,5.8,7.82,2.393c-1.271-3-6.22-3.581-6.21.612" transform="translate(0 3.42)" fill="#89c5cc"/>
        <path id="Fill_175" data-name="Fill 175" d="M91.581.015C74.428,2.285,56.5,1.458,39.22,1.814c-8.288.171-16.575.182-24.864.269-2.893.03-10.24-1.07-12.742.556C-2.37,5.228,1.953,7.226,4.59,7.283c16.358.358,32.9-.394,49.254-.931,7.348-.241,14.72-.359,22.049-.983A77.716,77.716,0,0,0,89.717,3.4c.933-.259,2.966-.2,3.175-1.478.129-.788-.1-2.073-1.311-1.906" transform="translate(2.649 50.258)" fill="#89c5cc"/>
        <path id="Fill_177" data-name="Fill 177" d="M21.535.5C16.768.531,2.4-1.683.428,2.965c-2.632,6.2,7.636,4.753,10.4,4.682,6.272-.161,12.54-.178,18.813-.176,6.156,0,12.311-.037,18.465-.183,1.783-.043,5.933.7,6.959-1.45a2.7,2.7,0,0,0-1.274-3.783C50.329-.024,41.342,1.182,37.291,1,32.047.753,26.786.5,21.535.5" transform="translate(1.367 64.229)" fill="#89c5cc"/>
        <path id="Fill_179" data-name="Fill 179" d="M12.359.31C9.635.472,4.124-.651,1.683.6c-2.774,1.417-1.8,3.636.6,4.612,1.658.675,8.462.321,10.078-.461,1.684-.816,3.588-4.657,0-4.436" transform="translate(68.541 65.569)" fill="#89c5cc"/>
        <path id="Fill_181" data-name="Fill 181" d="M2.4.01C-.51.808.372,17.328.3,19.947c-.2,7.175-1.012,16.2,1.372,23.11,1.52,4.4,4.441,3.808,3.943-.83C5.176,38.156,4.426,34.132,4.1,30.035,3.368,20.764,2.369,10.876,3.062,1.6c.3.539,3.056,5.54,3.705,5.166C6.571,6.88,3.583-.3,2.4.01" transform="translate(108.37 7.392)" fill="#89c5cc"/>
        <path id="Fill_183" data-name="Fill 183" d="M36.841.09C30.952.177,25.064.281,19.177.444,14.5.575,7.14-.194,2.848,1.775-2.264,4.119.161,9.343,4.962,9.453c4.247.1,8.776-.86,13.062-1.007,11.576-.4,23.172-.481,34.753-.58,10.474-.09,21.393,1.027,31.775-.546,1.54,13.674-2.625,27.406-1.208,41.237.22,2.147.121,5.18,2.855,5.669,3.45.617,3.592-2.8,3.723-5.247C90.3,41.993,90.094,35,90.605,28c.474-6.483,1.407-13.11.619-19.6-.97-7.991-4.8-7.35-11.568-7.683C65.36.018,51.153-.12,36.841.09" transform="translate(106.66 1.227)" fill="#89c5cc"/>
        <path id="Fill_185" data-name="Fill 185" d="M10.648.169C7.647.245,2.664-.68.741,2.2c-2,2.994.373,5.6,3.282,6.219,3.443.727,7.933-.27,11.506-.281,3.721-.011,7.444.03,11.165.045,15.955.063,31.978.3,47.922-.356,2.227-.092,8.546.655,10.087-1.481,1.368-1.894.411-3.594-1.39-4.558C80.358.2,74.289.805,71,.68,66.943.525,62.879.475,58.818.411,42.789.164,26.676-.227,10.648.169" transform="translate(113.118 49.703)" fill="#89c5cc"/>
        <path id="Fill_187" data-name="Fill 187" d="M22.428,0C16.457.1,10.087-.16,4.175.745c-5.2.8-5.838,5.821-.242,6.409,5.142.541,11.376-.469,16.543-.8,1.835-.118,3.969.049,4.849-1.979.918-2.12-.837-4.152-2.9-4.373" transform="translate(114.835 63.712)" fill="#89c5cc"/>
        <path id="Fill_189" data-name="Fill 189" d="M14.433.414C11.245.493,1.937-.877.358,2.763c-2.628,6.06,9.974,3.758,12.391,3.669C15.8,6.319,27.671,8.1,27.674,3.248c0-4.756-10.323-2.907-13.241-2.834" transform="translate(167.969 63.826)" fill="#89c5cc"/>
        <path id="Fill_191" data-name="Fill 191" d="M.221,3.755C.229,14.78-.457,25.907.549,36.9c.416,4.548.345,13.26,2.979,17.116,1.87,2.737,4.463,2.545,5.485-.741.683-2.2-.409-6.59-.531-8.941-.117-2.256-.254-4.51-.359-6.766-.268-5.812-.247-11.615-.167-17.431.068-4.988,1.269-11.588.137-16.385C7.037-.715.221-1.761.221,3.755" transform="translate(0.873 90.597)" fill="#69a1ac"/>
        <path id="Fill_193" data-name="Fill 193" d="M108.956.373c-19.126.48-38.3.051-57.4,1-9.424.467-18.812,1.492-28.188,2.514-4.607.5-9.211,1.02-13.81,1.587-1.388.171-12.92.618-8.582,5,1.894,1.915,7.921-.085,10.305-.368C15.9,9.561,20.525,9.086,25.149,8.6c8.8-.931,17.608-1.812,26.444-2.3C72.4,5.144,93.3,5.49,114.13,4.721c5.635-.208,11.253-.357,16.89-.135,1.48.058,12.357.611,7.635-3.406C136.416-.721,128,.26,125.206.2c-5.416-.112-10.836.034-16.25.17" transform="translate(2.932 84.282)" fill="#69a1ac"/>
        <path id="Wireframy_Stuff" data-name="Wireframy Stuff" d="M.009,65.693c-.444-6.266,15.276-6.255,19.772-6.673,19.3-1.795,38.917-1.417,58.277-1.147,9.362.13,18.706.416,28.06-.156S125.125,57.3,134.4,56.29c-1.2-4.632-1.02-10.425-1.356-15.158-.861-12.153-.63-24.347-1.185-36.511-.244-5.359,7.056-6.172,9.221-1.833,2.187,4.381.766,13.076.907,17.935.327,11.249,2.413,23.841.21,34.967-.767,3.869-4.031,5.9-6.2,3.793l-.009.014c-.817,1.2-3.36,1.2-5.234,1.2-.516,0-.981,0-1.345.023-5.131.349-10.168.937-15.255,1.7a244.925,244.925,0,0,1-30.426,2.707c-20.261.5-40.606.033-60.837,1.42a111.069,111.069,0,0,0-13.3,1.679A30.617,30.617,0,0,1,4,69.14C1.938,69.14.2,68.4.009,65.693Z" transform="translate(5.679 83.331)" fill="#69a1ac"/>
        <path id="Fill_199" data-name="Fill 199" d="M3.9.775C1.321,1.126-.835,3.338.319,6.142,1.772,9.674,6.1,8.294,8.958,8.07c9.087-.712,18.574.71,27.551-.363,2.452-.293,6.008-1.628,3.807-4.923C38.662.309,32.633.744,30.071.507A136.7,136.7,0,0,0,3.9.775" transform="translate(149.537 91.102)" fill="#c1dee2"/>
        <path id="Fill_201" data-name="Fill 201" d="M13.643.127C10.119.364,1.916.177.431,4.187-2.233,11.38,8.2,8.845,11.378,8.436c3.69-.475,12.39.8,14.355-2.781,3.514-6.4-9-5.741-12.089-5.528" transform="translate(155.134 107.158)" fill="#c1dee2"/>
        <path id="Fill_203" data-name="Fill 203" d="M1.255,1.554a4.621,4.621,0,0,0,0,6.331c2.05,2.048,6.516,1.622,9.21,1.772,3.757.21,14.547,2.2,16.412-2.227,2.517-5.969-7.254-5.844-10.467-6.182C12.695.857,4.333-1.526,1.255,1.554" transform="translate(158.461 121.517)" fill="#c1dee2"/>
        <path id="Fill_205" data-name="Fill 205" d="M0,4.823c0,6.417,10.022,6.417,10.022,0C10.022-1.559,0-1.656,0,4.823" transform="translate(28.023 16.08)" fill="#89c5cc"/>
        <path id="Fill_207" data-name="Fill 207" d="M0,5.511c0,7.336,11.415,7.321,11.415,0S0-1.874,0,5.511" transform="translate(47.033 15.465)" fill="#89c5cc"/>
        <path id="Fill_209" data-name="Fill 209" d="M2.485.1c-5.549,1.532-.437,6.235,2.14,7.309,4.095,1.708,9.684,2.966,13.78.406,1.63-1.019,2.953-2.372,1.759-4.35-1.273-2.1-3.015-1.169-4.952-.975A15.2,15.2,0,0,1,8.4,1.911C6.634,1.324,4.414-.432,2.485.1" transform="translate(33.048 30.632)" fill="#89c5cc"/>
        <path id="Fill_211" data-name="Fill 211" d="M0,3.255c0,4.34,6.739,4.34,6.739,0S0-1.085,0,3.255" transform="translate(136.185 18.055)" fill="#89c5cc"/>
        <path id="Fill_213" data-name="Fill 213" d="M0,3.617c0,4.822,7.487,4.823,7.487,0S0-1.205,0,3.617" transform="translate(151.09 18.346)" fill="#89c5cc"/>
        <path id="Fill_215" data-name="Fill 215" d="M16,.21C12.066.717.691,1.87.055,6.718c-.982,7.479,11.482,1.426,14.326.839A41.229,41.229,0,0,1,24.857,7.15c1.986.079,4.627.4,4.419-2.624C28.934-.442,19.437-.23,16,.21" transform="translate(134.536 32.218)" fill="#89c5cc"/>
        <path id="Fill_217" data-name="Fill 217" d="M5.165.1C2.315.858-1.414,5.786.547,8.8c3.216,4.947,4.634-2.648,5.98-3.379,2.449-1.33,4.437,3.53,7,.981C17.561,2.38,7.708-.583,5.165.1" transform="translate(46.488 101.302)" fill="#69a1ac"/>
        <path id="eye" d="M11.063,0C7.683.032.546,4.818.04,8.352A3.5,3.5,0,0,0,3.4,12.5c3.082.038,4.062-3.97,6.733-4.808,2.882-.9,2.454,1.178,4.943,2.257,1.822.79,4.1.46,4.733-1.78C21,3.941,14.537-.066,11.063,0" transform="translate(73.253 97.742)" fill="#69a1ac"/>
        <path id="Fill_221" data-name="Fill 221" d="M1.707.522C-3.7,3.69,5.2,10.482,8.281,11.332c4.656,1.281,14.028-1.111,15.131-6.8.439-2.264-.977-4.314-3.475-3.909-2.057.334-3.376,2.914-5.282,3.838C12.084,5.709,9.8,5.625,7.612,3.747,5.832,2.218,4.878-1.328,1.707.522" transform="translate(56.733 117.456)" fill="#69a1ac"/>
        <path id="Fill_223" data-name="Fill 223" d="M46.925.461c-4.831,1.03-9.742.339-14.6,1.308-4.95.988-7.908,2.858-12.507.974l-.648-.274C15.615.936,11.884.482,8.158,2.926c-2.2,1.446-8.9,6.447-8.091,9.5,1.748,6.616,9.28-3.758,11.2-4.769,3.662-1.928,6.173.535,9.943,1.23,4.516.833,8.15-1.554,12.4-2.5,4.975-1.112,10.573-1.5,15.635-2.094,2-.235,9.575,1.347,10.259-1.142C60.683-1.131,48.824.058,46.925.461" transform="translate(15.433 164.334)" fill="#c1dee2"/>
        <path id="Fill_225" data-name="Fill 225" d="M19.066,23.688h0c-3.6,0-6.486-.117-9.08-.368a13.863,13.863,0,0,1-5.174-1.209,6.063,6.063,0,0,1-2.98-4.055A57.449,57.449,0,0,1,.193,10.374C-.291,6.525.137,4.247,1.466,3.606a3.1,3.1,0,0,1,1.379-.259c.27,0,.549.018.773.032h.029c.243.015.473.03.688.03a2.714,2.714,0,0,0,.488-.037c1.162-.214,2.349-.524,3.6-.852a42.75,42.75,0,0,1,5-1.1C18.2.781,23.386.343,29.279.089h.072C30.3.045,31.38,0,32.543,0A22.179,22.179,0,0,1,39.09.8a6.848,6.848,0,0,1,4.586,3.7c.72,1.678.778,4.391.164,7.64a26.362,26.362,0,0,1-2.461,7.35c-2.062,3.687-6.152,4.2-10.265,4.2-.771,0-1.557-.018-2.251-.034h-.045c-.734-.017-1.427-.033-2.107-.033h-.463l-1.976.027h-.026C22.549,23.663,20.8,23.688,19.066,23.688ZM5.278,6.042h0c.092.582.153,1.688.224,2.967.179,3.231.425,7.656,1.39,8.746.922,1.04,4.184,1.072,6.133,1.092.485,0,.9.009,1.193.027,3.075.192,6.208.284,9.237.373,1.272.037,2.588.076,3.882.122.674.024,1.582.14,2.544.262a35.777,35.777,0,0,0,4.3.375,6.063,6.063,0,0,0,2.63-.442c1.181-.586,2.529-3.064,3.436-6.313,1-3.6,1.114-6.765.282-8.073a4.652,4.652,0,0,0-2.81-1.8,16.923,16.923,0,0,0-4.437-.488,70.937,70.937,0,0,0-10,.994c-1.141.171-2.126.319-2.836.391a46.281,46.281,0,0,0-4.665.869A41.123,41.123,0,0,1,7.775,6.371a8.11,8.11,0,0,1-2.5-.329Z" transform="translate(90.294 160.259)" fill="#c1dee2"/>
        <path id="quare" d="M27.165,29.249h0a147.982,147.982,0,0,1-16.476-.841c-3.322-.37-5.451-1.084-6.9-2.316-1.616-1.37-2.506-3.481-2.8-6.643C.917,18.714.8,17.841.655,16.83-.02,11.98-1.045,4.651,2.727,2.247,5.549.446,11.207.268,15.339.138,16.3.108,17.2.08,17.98.035Q18.641,0,19.355,0a62.131,62.131,0,0,1,7.731.663c2.1.268,4.266.545,6.368.634,3.609.154,5.88.44,7.543,1.512,1.684,1.085,2.684,2.936,3.449,6.387a6.228,6.228,0,0,0,.456,1.253,4.572,4.572,0,0,1,.529,1.985A26.3,26.3,0,0,1,44.62,17.6c-.179.812-.347,1.579-.462,2.236-.587,3.371-1.81,5.724-3.739,7.192-1.8,1.37-4.265,2.05-7.757,2.143C30.784,29.224,28.935,29.249,27.165,29.249Zm4.919-8.2c-2.11.385-4.337.8-7.008,1.3l-1.318.248c.824.059,1.564.164,2.28.265a17.14,17.14,0,0,0,2.306.227,4.182,4.182,0,0,0,3.74-2.038Zm-16.372-.39h0l-.356.119-1.419.475h-.011l-.96.316c1.046.129,2.039.244,3.036.351a2.434,2.434,0,0,1-.29-1.265ZM9.288,17a.559.559,0,0,0-.418.127.414.414,0,0,0-.1.319.776.776,0,0,0,.1.58.282.282,0,0,0,.218.088c.306,0,.834-.329,1.57-.977h-.1a4.437,4.437,0,0,1-.645-.07H9.9A4.293,4.293,0,0,0,9.288,17ZM27.529,8.061a.368.368,0,0,0-.293.162c-.21.165-.3.266-.29.308,0,.015.024.022.057.022a3.441,3.441,0,0,0,.737-.224c.082-.03.152-.057.2-.073a.679.679,0,0,0-.411-.195Zm9.849-1.714c.994,1.444,1.475,1.556,1.6,1.556a.158.158,0,0,0,.167-.164C39.176,7.363,38.6,6.552,37.378,6.347Z" transform="translate(142.34 156.791)" fill="#89c5cc"/>
      </g>
      <g id="Profile" transform="translate(336.247 381.742)" opacity="0.5">
        <path id="face-3" data-name="face" d="M26.041,45.176h0a27.237,27.237,0,0,1-7.12-.968,29.163,29.163,0,0,1-6.639-2.717A27.561,27.561,0,0,1,6.618,37.3a23.231,23.231,0,0,1-4.185-5.39A18.524,18.524,0,0,1,0,22.466,20.656,20.656,0,0,1,3.322,11.914c-1.326-.27-2.049-.753-2.149-1.433C.9,8.624,5.247,5.871,6.337,5.288l.391-.209C10.474,3.075,14.349,1,18.484.385A35.267,35.267,0,0,1,23.7,0,32.783,32.783,0,0,1,37.33,2.828a23.817,23.817,0,0,1,5.777,3.708,20,20,0,0,1,4.348,5.391,18.82,18.82,0,0,1,2.261,7.6,22.038,22.038,0,0,1-.807,7.8,25.622,25.622,0,0,1-3.337,7.213,25.207,25.207,0,0,1-5.33,5.827,22.6,22.6,0,0,1-14.2,4.809ZM23.232,5.423A19.581,19.581,0,0,0,8.613,11.8a15.434,15.434,0,0,0-3.148,5.553,15.684,15.684,0,0,0-.548,6.832,18.794,18.794,0,0,0,7.057,11.988,22.073,22.073,0,0,0,6.207,3.549,19.865,19.865,0,0,0,6.942,1.288c.416,0,.834-.015,1.244-.043a19.721,19.721,0,0,0,12.044-5.374,19.8,19.8,0,0,0,6.137-11.7,13.8,13.8,0,0,0-3.132-11.278A19.532,19.532,0,0,0,33.494,7.3a29.611,29.611,0,0,0-9.828-1.873C23.522,5.425,23.376,5.423,23.232,5.423Z" transform="translate(60.361)" fill="#89c5cc"/>
        <path id="Fill_231" data-name="Fill 231" d="M0,3.116c0,4.155,6.449,4.155,6.449,0S0-1.039,0,3.116" transform="translate(76.32 16.204)" fill="#89c5cc"/>
        <path id="Fill_233" data-name="Fill 233" d="M0,3.378c0,4.5,6.992,4.5,6.992,0S0-1.126,0,3.378" transform="translate(88.277 16.607)" fill="#89c5cc"/>
        <path id="Fill_235" data-name="Fill 235" d="M.058,1.167C-.883,4.584,9.846,6.337,10.2,2.382,10.373.492.713-1.217.058,1.167" transform="translate(80.15 27.727)" fill="#89c5cc"/>
        <path id="Fill_237" data-name="Fill 237" d="M1.22,7.051c12.345-1.481,25.074-.8,37.478-.442,3.1.09,6.209.177,9.314.228,1.974.033,6.237.981,7.96.057,7.055-3.783-6.784-5.613-8.744-5.787A427.414,427.414,0,0,0,3.471.209C-.189.351-.98,7.315,1.22,7.051" transform="translate(110.439 19.73)" fill="#89c5cc"/>
        <path id="Hola_:_2" data-name="Hola :)" d="M167.21,65.106c.106-12.935.57-25.957,1.564-38.853.4-5.257.891-10.506,1.293-15.763.19-2.476,1.069-5.944-.386-8.117a4.435,4.435,0,0,0-6.772-.72c-2.373,3.072-1.684,8.228-1.979,11.944-.454,5.714-1,11.423-1.274,17.149a263.047,263.047,0,0,0,.241,33.426,101.47,101.47,0,0,0,2.545,15.411c.553,2.318,4.946,12.646,4.023,14.07-1.432,2.208-12.013,1.374-14.308,1.435-5.89.158-11.783.261-17.674.374q-7.566.144-15.133.21c-2,.018-13.772-.339-11.161,2.631C79,100.338,49.244,96.942,20.229,95.777c-1.466-.059-3.864-.475-6.077-.6a19.324,19.324,0,0,1-.537-2.689c-.381-4.663-.481-9.342-.894-14C11.964,69.96,10.5,61.516,9.624,53s-.783-17.038-1.29-25.566C8.247,25.973,8.042,14,5.021,11.1a13.711,13.711,0,0,0,5.071.506c10.764-.868,21.448-2.739,32.12-4.344,3.053-.459,9.981-.134,12.513-1.66C56.917,4.278,57.784-.354,53.971.02c-10.64,1.141-21.223,2.91-31.78,4.652-2.824.466-5.64.964-8.456,1.473-1.881.34-6.845.314-8.3,1.448-1.772,1.376-1.96,2.313-1.359,2.936-.835-.229-1.835.131-3.037,1.333C-1.236,14.818.9,22.1,1.17,25.567c.326,4.159.485,8.324.675,12.49A207.052,207.052,0,0,0,4.352,62.035c1.454,8.923,2.69,17.882,4.147,26.8A62.021,62.021,0,0,0,10,95.669c-3.926,2.008-1.257,5.2,1.857,5.768l.068.011c.971,2.367,2.328,4.56,3.388,1.388a3.135,3.135,0,0,0,.129-.879c8.042.91,16.882.345,24.8.668,17.15.7,34.407,1.753,51.575,1.22a199.257,199.257,0,0,0,20.353-1.722c3.949-.531,7.912-1.165,11.8-2.046.278-.063.7-.129,1.19-.209l.236,0q8.924-.135,17.838-.5c4.99-.207,10-.314,14.976-.784,3.089-.293,9.619-.238,11.515-3.345,1.725-2.825-1.159-10.1-1.568-13.275a123.957,123.957,0,0,1-.949-16.856" transform="translate(0 23.045)" fill="#c1dee2"/>
        <path id="Fill_241" data-name="Fill 241" d="M63.05.029C58.3.437,53.9,2.669,49.1,2.7c-4.027.023-7.992-1.181-12.041-1C32.312,1.9,29.7,4.973,25.538,6c-3.312.818-5.4-1.718-8.312-2.839-3.678-1.417-6.4-.685-9.549,1.457C5.361,6.193-.042,9.725,0,12.909c.124,9.644,11.376-3.678,13.644-3.84,3.014-.214,6.381,3.221,9.588,3.417,4.24.259,6.958-2.474,10.862-3.47,3.948-1.007,8.215.227,12.173.61,4.516.437,8.468-.57,12.836-1.648a25.931,25.931,0,0,1,12.143-.112c2.9.592,10.137,4.035,11.406-.392,1.73-6.028-16.28-7.728-19.6-7.445" transform="translate(43.867 50.773)" fill="#89c5cc"/>
        <path id="Fill_243" data-name="Fill 243" d="M48.5.013c-9.741.945-19.541,1.774-29.326,2.04C14.938,2.168-1.355.352.09,5.737,1.329,10.355,23.5,7.447,28.016,7.1,33,6.708,37.98,6.167,42.941,5.539c1.758-.222,6,.008,7.244-1.467,1.182-1.407.6-4.288-1.682-4.06" transform="translate(59.861 69.184)" fill="#89c5cc"/>
        <path id="have_a_nice_day_:_" data-name="have a nice day :)" d="M10.822,22.047a9.99,9.99,0,0,1-7.8-3.9A13.765,13.765,0,0,1,0,9.842,9.7,9.7,0,0,1,2.247,3.149,10.18,10.18,0,0,1,9.817,0h.1A1.668,1.668,0,0,1,11.3.639a1.385,1.385,0,0,0,.9.532h.028A1.755,1.755,0,0,0,12.973.8l.106-.071A2.105,2.105,0,0,1,14.1.277h.045c3.176.2,5.21.8,6.861,3.378a9.173,9.173,0,0,1,1.366,4.609,14.178,14.178,0,0,1-.774,5.11c-1.3,3.833-3.945,6.881-6.907,7.954A11.373,11.373,0,0,1,10.822,22.047ZM12.975,5.219a2.18,2.18,0,0,0-1.16.348,3.887,3.887,0,0,1-2,.535c-2.565.081-4.015,1.431-3.98,3.7a7.215,7.215,0,0,0,1.679,4.265A5.2,5.2,0,0,0,11.39,16.18a4.615,4.615,0,0,0,3.287-1.55,9.19,9.19,0,0,0,2.043-4c.262-1.065.549-3.04-.475-4.3-.591-.728-.836-.748-1.28-.784a4.044,4.044,0,0,1-.818-.135,4.514,4.514,0,0,0-1.172-.192Z" transform="translate(33.404 87.594)" fill="#89c5cc"/>
        <path id="espero" d="M9.061,19.95h-.2a8.591,8.591,0,0,1-6.4-3.007A10.452,10.452,0,0,1,.077,8.919C.709,3.78,3.915.973,10.168.088A8.874,8.874,0,0,1,11.389,0a6.482,6.482,0,0,1,4.888,2.077,10.565,10.565,0,0,1,2.318,7.9,12.042,12.042,0,0,1-2.668,6.857A8.734,8.734,0,0,1,9.061,19.95ZM7.656,7.157h.012a3.274,3.274,0,0,0-1.177,3.825,3.107,3.107,0,0,0,2.854,2.459,3.093,3.093,0,0,0,1.1-.213,4.8,4.8,0,0,0,2.316-3.159,2.167,2.167,0,0,0-.374-2.006c.04.041.053.074.043.1s-.079.051-.192.051a14.928,14.928,0,0,1-2.621-.528c-.787-.2-1.5-.4-1.81-.487l-.148-.041Z" transform="translate(75.935 87.456)" fill="#89c5cc"/>
        <path id="hola" d="M8.148,23.588h0a7.728,7.728,0,0,1-5.7-2.322,9.007,9.007,0,0,1-2.4-5.337A9.573,9.573,0,0,1,1.533,9.662,9.373,9.373,0,0,1,7.6,5.715,2.927,2.927,0,0,1,6.41,1.766,2.934,2.934,0,0,1,8.852,0c3.473,0,7.581,8.2,7.938,10.281a15.57,15.57,0,0,1-.528,8.008,8.253,8.253,0,0,1-2.1,3.18,7.824,7.824,0,0,1-3.687,1.856A10.96,10.96,0,0,1,8.148,23.588Zm2.55-11.51h0c-3.65.322-3.98,1.82-3.952,2.45a2.239,2.239,0,0,0,2.09,2.021,1.467,1.467,0,0,0,1.1-.493c.451-.487.95-1.572.766-3.978Z" transform="translate(132.96 82.777)" fill="#89c5cc"/>
      </g>
      <path id="Fill_251" data-name="Fill 251" d="M11.6.331C8.133.948-.071,4.781,0,8.9c.111,6.424,7.084-.6,8.635-1.539,8.332-5.071,19.124,1.5,27.8,2.9,3.978.641,11.759,1.825,15.273-.841,6.248-4.741-8.2-3.554-10.043-3.744C31.663,4.641,21.711-1.474,11.6.331" transform="translate(490.886 475.026)" fill="#c1dee2" opacity="0.5"/>
      <g id="List" transform="translate(661.922 418.582)" opacity="0.5">
        <path id="Fill_253" data-name="Fill 253" d="M.045,3.61c0,6.657-.34,13.453.887,20.031.368,1.991.668,5.8,2.768,6.838a3.2,3.2,0,0,0,4.68-2.291c.612-2.517-.73-6.283-.866-8.925-.187-3.609-.2-7.223-.2-10.837,0-2.61.858-6.808-2.223-8.151A3.708,3.708,0,0,0,.045,3.61" transform="translate(2.846 6.965)" fill="#c1dee2"/>
        <path id="Fill_255" data-name="Fill 255" d="M103.8.045C81.744,2.259,59.369,2.72,37.233,3.874,27,4.408,14.633,3.727,4.993,7.688c-1.789.736-8.2,4.83-3,6.5,1.622.52,3.271-1.228,4.6-1.814a29.489,29.489,0,0,1,7.153-1.656C33.861,7.488,54.9,8.05,75.223,6.541c5.207-.387,10.417-.785,15.613-1.3,3.712-.365,11.516-3.041,14.942-1.672,5.854,2.339,5.717,17.533,5.833,22.759.06,2.7-2.563,12.4,2.651,11.42,4.173-.787,2.662-10.866,2.337-13.622C115.752,16.9,114.3-1.018,103.8.045" transform="translate(4.338)" fill="#c1dee2"/>
        <path id="Fill_257" data-name="Fill 257" d="M108.933.01c-19.159,1.73-38.76.033-58,.713-10.084.358-20.158.925-30.243,1.258-4.362.145-8.728.151-13.092.181-2.087.014-11.586,1.28-5.71,5.418,2.6,1.832,10.893.356,13.878.321,4.484-.053,8.966-.239,13.446-.415C39.6,7.08,49.968,6.518,60.353,6.237c9.933-.269,19.872-.327,29.8-.6A125.5,125.5,0,0,0,105,4.63c1.105-.163,4.7-.292,5.463-1.525.726-1.165.216-3.268-1.538-3.1" transform="translate(7.34 37.388)" fill="#89c5cc"/>
        <path id="Fill_259" data-name="Fill 259" d="M10.917,20.636h0a10.662,10.662,0,0,1-7.655-3.057A11.1,11.1,0,0,1,.04,10.75,9.478,9.478,0,0,1,1.9,4.11,11.545,11.545,0,0,1,9.252.045,2.713,2.713,0,0,1,9.733,0a3.364,3.364,0,0,1,1.541.455,3.742,3.742,0,0,0,1.242.432,3.528,3.528,0,0,0,.391.021A8.023,8.023,0,0,0,14.062.8,7.97,7.97,0,0,1,15.226.682a3.3,3.3,0,0,1,.937.127A6.991,6.991,0,0,1,19.45,3.076,11.419,11.419,0,0,1,21.441,6.57a10.662,10.662,0,0,1,.594,4.543A10.282,10.282,0,0,1,17.872,18.5a10.643,10.643,0,0,1-4.185,1.844,13.757,13.757,0,0,1-2.77.292Zm3.076-13.7h0c-2.5.014-6.945.544-7.759,2.445-.365.851.028,1.9,1.166,3.1A4.936,4.936,0,0,0,11,14.143a4.573,4.573,0,0,0,4.165-2.656A4.107,4.107,0,0,0,13.994,6.94Z" transform="translate(16.025 13.482)" fill="#c1dee2"/>
        <path id="Fill_261" data-name="Fill 261" d="M38.041.14C28.754.17,19.465.564,10.18.74,7.332.794.011-.481,0,4.009c-.013,4.8,8.142,3.026,10.855,2.961,9.211-.22,18.445-.624,27.619-1.5,2.317-.222,10.339.161,10.331-2.991C48.8-.859,39.913.14,38.041.14" transform="translate(46.176 19.164)" fill="#c1dee2"/>
        <path id="Fill_263" data-name="Fill 263" d="M102.824.023C79.855.639,56.924.854,33.971,2.03c-8.584.44-17.157.767-25.754.767-1.656,0-4.99-.641-6.548.4C-2.56,6.025,2.255,8.453,5.012,8.6,23.865,9.652,42.992,7.048,61.835,6.46,72.866,6.116,83.9,6.015,94.924,5.453c3.008-.153,6.016-.331,9.019-.564,1.727-.134,6.293.233,7.689-.777,6.094-4.411-6.753-4.145-8.808-4.09" transform="translate(3.575 50.596)" fill="#89c5cc"/>
        <path id="Fill_265" data-name="Fill 265" d="M.13,3.982A105.512,105.512,0,0,0,.67,21.711c.307,2.33.447,4.975,3.179,5.567,2.481.537,3.739-1.339,4.253-3.419,1.254-5.08.151-12.392.136-17.669C8.231,3.58,8.228.66,5,.07A4.105,4.105,0,0,0,.13,3.982" transform="translate(0.885 57.867)" fill="#89c5cc"/>
        <path id="Fill_267" data-name="Fill 267" d="M130.745.009Q74.974,2.948,19.225,5.251c-2.9.123-25.443-.123-17.563,7.738,2.434,2.428,8.7.783,11.853.629,4.73-.233,9.463-.41,14.194-.651,18.756-.955,37.56-1.212,56.3-2.284Q99.48,9.8,114.873,7.971c4.88-.571,10.938-.512,15.508-2.424,2.351-.984,4.889-5.778.363-5.538" transform="translate(0 76.197)" fill="#89c5cc"/>
        <path id="Fill_269" data-name="Fill 269" d="M1.723,1.588C-1.1,4.4.349,9.96.563,13.44c.293,4.79.649,9.583,1.247,14.346.389,3.094.183,7.91,1.834,10.583a4.568,4.568,0,0,0,7.937-.24c1.546-2.674.764-8.3.723-11.265-.055-4.1-.31-8.2-.554-12.293-.2-3.419.571-8.9-1.309-11.823a5.619,5.619,0,0,0-8.718-1.16" transform="translate(107.643 44.409)" fill="#89c5cc"/>
        <path id="Fill_271" data-name="Fill 271" d="M10.195,17.047h0a12.074,12.074,0,0,1-1.849-.137A10.4,10.4,0,0,1,.871,11.7,7.507,7.507,0,0,1,0,8.42,7.59,7.59,0,0,1,.823,4.836,7.576,7.576,0,0,1,5.772,1.06,30.828,30.828,0,0,1,12.336.07L12.9.026c.209-.017.426-.026.64-.026a8.919,8.919,0,0,1,6.391,2.822A7.622,7.622,0,0,1,22.05,8.576a8.171,8.171,0,0,1-4.141,6.307A14.883,14.883,0,0,1,10.2,17.047Zm-2.9-10.2a.7.7,0,0,0-.456.191C6.46,7.36,5.95,8.1,6.8,9.428a3.72,3.72,0,0,0,3.283,1.711,7.145,7.145,0,0,0,3.733-1.174,3.733,3.733,0,0,0,1.9-2.34c.058-.58-.236-1.344-1.965-1.692h-.1A17.02,17.02,0,0,0,8.7,7.221a.6.6,0,0,1-.241.05,1.24,1.24,0,0,1-.581-.21,1.232,1.232,0,0,0-.583-.214Z" transform="translate(17.239 61.091)" fill="#89c5cc"/>
        <path id="Fill_273" data-name="Fill 273" d="M18.845.323C14.49.394,5.929-.894,2.135,1.229-1.62,3.329.055,7.069,3.48,7.964c2.264.591,5.964-.363,8.321-.459,3.1-.126,6.2-.153,9.306-.2C26.325,7.239,31.54,7.3,36.758,7.3c5.329,0,10.75.146,16.07-.246,6.732-.5,6.55-5.536-.033-6.166C41.612-.185,30.064.147,18.845.323" transform="translate(46.415 63.789)" fill="#89c5cc"/>
        <path id="Fill_275" data-name="Fill 275" d="M0,1.064c0,2.4,2.125,0,2.11,0,.015,0-2.11-2.4-2.11,0" transform="translate(54.135 119.501)" fill="#89c5cc"/>
        <path id="Fill_277" data-name="Fill 277" d="M0,3.347c.137,6.961.227,13.929.524,20.885.094,2.2-.536,6.494,2.13,7.616,2.967,1.248,3.89-1.863,4.232-3.971,1.082-6.679.021-14.3-.083-21.062-.034-2.27.457-5.429-2.12-6.56A3.436,3.436,0,0,0,0,3.347" transform="translate(6.069 97.94)" fill="#89c5cc"/>
        <path id="Fill_279" data-name="Fill 279" d="M119.535,25h0a3.277,3.277,0,0,1-2.679-1.914c-1.005-1.682-.571-4.638-.15-7.5a22.315,22.315,0,0,0,.389-4.54c-.024-.289-.044-.574-.063-.849-.139-2.01-.259-3.746-1.959-4.491a6.143,6.143,0,0,0-2.415-.375c-1,0-2.054.107-3.079.21-.849.086-1.65.167-2.289.169-5.332.024-10.755.039-16,.053h-.01c-15.945.042-32.432.086-48.641.413-9.594.192-16.939.44-23.816.8A65.446,65.446,0,0,0,7.933,8.233a23.072,23.072,0,0,1-4.483.519c-1.857,0-2.977-.371-3.331-1.1C-.207,6.974.137,5.991,1.14,4.726,2.914,2.492,9.04,2.059,12.7,1.8c.674-.048,1.254-.089,1.737-.134,3.95-.374,8.005-.543,11.927-.708h.015L28.147.883C37.693.475,47.407.327,56.8.184h.107l3.3-.051C65.921.043,71.789,0,78.146,0c4.715,0,9.6.024,14.938.073,6.262.058,12.576.351,19.3.895,2.726.22,4.7.38,6.2,1.215s2.512,2.383,3.33,5.151c1.173,3.966,2.42,9.065,1.644,13.327a6.339,6.339,0,0,1-1.448,2.94,3.572,3.572,0,0,1-2.575,1.4Z" transform="translate(4.352 95.568)" fill="#89c5cc"/>
        <path id="Fill_281" data-name="Fill 281" d="M100.724,2.01C77.545,4.7,53.706,3.115,30.4,3.21c-5.667.023-11.338.068-17,.343C10.41,3.7,3.322,2.873,1.273,5.18c-4.318,4.863,3.46,5.57,6.3,5.369,5.741-.408,11.5-.594,17.253-.639C45.1,9.754,65.49,10.7,85.749,9.7a176.822,176.822,0,0,0,25.115-3.493c1.846-.36,14.479-2.761,7.275-5.64-4.257-1.7-12.947.921-17.419,1.443" transform="translate(6.103 122.465)" fill="#89c5cc"/>
        <path id="Fill_284" data-name="Fill 284" d="M10.487,17.356h0a13.089,13.089,0,0,1-4.71-.858A9.659,9.659,0,0,1,1.96,13.9C-1.94,9.448.68,4.929,3.76,1.1A3.211,3.211,0,0,1,6.44,0,14.528,14.528,0,0,1,9.6.494c.56.13,1.088.253,1.532.312.325.043.633.081.93.117,2.429.3,3.9.474,5.7,2.615a9.433,9.433,0,0,1,2.3,7.449,6.672,6.672,0,0,1-3.277,4.732,12.408,12.408,0,0,1-6.3,1.637Zm.776-10.317a3.451,3.451,0,0,0-2.507.689.707.707,0,0,0-.187.57c.085.611,1.035,1.26,2.628,1.26a7.236,7.236,0,0,0,1.882-.267,5.358,5.358,0,0,0-1.127-2.229c-.237-.015-.469-.023-.689-.023Z" transform="translate(25.525 106.576)" fill="#89c5cc"/>
        <path id="Fill_286" data-name="Fill 286" d="M0,3.345C0,8.5,22.255,6.281,26.214,6.275c3.316,0,23.37,1.825,21.931-3.48C46.962-1.562,27.209.6,23,.6,19.366.593,0-1.9,0,3.345" transform="translate(61.413 111.486)" fill="#89c5cc"/>
      </g>
      <g id="Checkmark_" data-name="Checkmark!" transform="translate(407.152 569.43)" opacity="0.5">
        <path id="Fill_292" data-name="Fill 292" d="M32.834,54.25h0a24.16,24.16,0,0,1-6.828-1,28.3,28.3,0,0,1-6.715-3.01A33.289,33.289,0,0,1,7.614,38.065,28.312,28.312,0,0,1,3.987,21.69a3.9,3.9,0,0,1-2,.727A1.649,1.649,0,0,1,.5,21.532,6.445,6.445,0,0,1,.671,16.2a40.479,40.479,0,0,1,4.377-6.037c.284-.345.576-.7.855-1.045a24.376,24.376,0,0,1,8.322-6.849A24.191,24.191,0,0,1,24.851,0h.429A44.74,44.74,0,0,1,42.288,3.32a31.241,31.241,0,0,1,7.485,4.4,22.6,22.6,0,0,1,8.4,14.614,27.426,27.426,0,0,1-.1,8.686,29.163,29.163,0,0,1-7.675,15.4A26.6,26.6,0,0,1,42.075,52.3,22.809,22.809,0,0,1,32.834,54.25ZM25.015,6.7a16.946,16.946,0,0,0-6.33,1.049,11.315,11.315,0,0,0-5.139,4.071,20.549,20.549,0,0,0-3.2,7.1A21.5,21.5,0,0,0,9.93,26.7a23.569,23.569,0,0,0,2.486,7.543,31.041,31.041,0,0,0,4.971,6.979,26.952,26.952,0,0,0,6.705,5.231,18.28,18.28,0,0,0,7.688,2.3c.314.017.632.026.945.026,5.284,0,10.333-2.474,14.219-6.965a24.561,24.561,0,0,0,4.236-7.027,22.362,22.362,0,0,0,1.576-7.9,16.57,16.57,0,0,0-7.1-14.175c-3.79-2.776-9.163-4.733-15.537-5.659a42.709,42.709,0,0,0-5.1-.353Z" transform="translate(0 3.863)" fill="#89c5cc"/>
        <path id="Fill_294" data-name="Fill 294" d="M36.431.784A71.7,71.7,0,0,0,22.644,14.6c-3.826,4.938-6.355,11.1-10.95,15.41-2.321-2.528-5.04-9.355-9.669-6.646-3.842,2.247-1.368,6.113.5,8.65,4.832,6.553,10.2,9.191,16.394,2.716C24.547,28.85,27.743,21.006,33,14.788c2.308-2.728,5.874-5.437,7.712-8.449,1.666-2.731-.394-8.414-4.287-5.554" transform="translate(12.593)" fill="#89c5cc"/>
      </g>
      <g id="Whiteboard_Stuff" data-name="Whiteboard Stuff" transform="translate(542.475 148.293)" opacity="0.5">
        <path id="Wireframy_Stuff-2" data-name="Wireframy Stuff" d="M3.064,56.379C.484,55.212.545,53.916,1.6,52.912c-.638-1.4-.533-3.7-.671-4.8A113.723,113.723,0,0,1,0,34.264C-.014,25.136,0,15.653,2.529,6.817A2.243,2.243,0,0,1,.911,4.781C.921.157,14.954.271,22.156.386c1.5.024,2.709.049,3.427.03C30.693.282,35.8.264,40.915.292,42.031.3,43.279.221,44.57.146a28.561,28.561,0,0,1,7.652.216c6.549,1.521,6.134,12.746,6.268,18.174a284.923,284.923,0,0,1-.69,29.686c-.273,3.353-2.713,7.6-5.5,2.982-1.552-2.578-.861-8.6-.863-11.448-.007-10.125,1.58-20.557.061-30.63-.5-3.3-.387-3.525-3.747-3.456-2.664.056-5.33.145-7.994.2-5.427.114-10.856.189-16.281.387-2.06.076-9.463,1.37-15.237,1.364,0,.046.008.093.009.139.079,3.9-1.835,8.642-2.1,12.749-.627,9.878.12,19.987-.8,29.815-.028.3-.043.616-.061.936.174-.026.343-.045.506-.056,4.3-.273,8.663-.16,12.975-.261,2.749-.063,5.532-.061,8.328-.058a157.361,157.361,0,0,0,18.456-.7c1.783-.231,2.408,2.058,1.607,3.244-.9,1.332-3.772,1.264-5.1,1.46a115.08,115.08,0,0,1-11.775.953c-4.129.183-8.261.32-12.392.435-2.4.066-6.754.76-10.364.76a11.53,11.53,0,0,1-4.469-.658Z" transform="translate(46.09)" fill="#89c5cc"/>
        <path id="Wireframy_Stuff-3" data-name="Wireframy Stuff" d="M3.547,54.188A1.73,1.73,0,0,1,3.92,53.1a7.3,7.3,0,0,1-1.663-2.946C.863,45.651.731,40.787.628,36.115.408,26.126.517,16.121.457,6.129-.449,4.913.089,3.521,1.22,2.55,4.274-.072,13.074.594,16.951.388,22.531.094,28.114.025,33.7,0c5.916-.03,11.84.076,17.752.259C53.646.33,68.9.714,62.081,4.412a7.12,7.12,0,0,1-1.31.536A21.6,21.6,0,0,1,61.044,9.2c-.289,5.317-.414,10.645-.65,15.964-.264,5.939-.514,11.876-.719,17.817-.109,3.14.967,10.443-1.52,12.71-1.675,1.528-2.819,1.222-3.59.184-4.272,1.24-12.555,1.016-17.81.791-2.063-.088-3.659-.176-4.363-.175-2.358,0-10.214.8-17.133.8C9.034,57.289,3.566,56.642,3.547,54.188Zm3.76-34.057c-.012,10.11.361,20.164.587,30.22q.011.494-.022.919c4.831-1.031,12.636-.838,17.692-.645,2.046.078,3.643.156,4.41.154,4.958-.019,9.919.05,14.873.248.561.022,1.419,0,2.426-.028a45.82,45.82,0,0,1,5.879.123c-.027-.27-.045-.517-.056-.73-.27-5.348.024-10.752.2-16.1.173-5.39.439-10.776.646-16.165.107-2.772-.593-8.558.166-12.547-3.6-.068-7.379-.5-9.809-.5-5.7,0-11.4-.065-17.1.047A165.6,165.6,0,0,0,8.7,6.134c-.335.045-.738.131-1.184.235.926,3.892-.205,10.155-.209,13.762Z" transform="translate(125.191 1.013)" fill="#89c5cc"/>
        <path id="Fill_135" data-name="Fill 135" d="M2.1.567C-1.562,2.709.415,11.278,1.685,14.242c2.088,4.873,6.326,8.686,10.9,11.215,9.242,5.112,22.563,3.754,29.552,12.618.072.092,2.488,2.483,3.038-.614.452-2.542-4.059-6.424-5.806-7.7-4.97-3.623-11.344-4.791-17.093-6.6-6.131-1.93-12.858-5.489-15.429-11.809C5.936,9.114,7.671-2.7,2.1.567" transform="translate(69.749 55.502)" fill="#c1dee2"/>
        <path id="Fill_137" data-name="Fill 137" d="M40.626.118c-3.36.926-1.138,5.55-1.143,7.865a13.712,13.712,0,0,1-2.71,8.216c-4.514,5.845-13.353,6.721-19.98,8.4C11.981,25.814.469,28.425.018,34.932c-.5,7.267,9.661-1.577,10.519-1.939,9.5-3.485,21.79-4.158,29.122-11.828a18.851,18.851,0,0,0,5.1-11.754c.16-2.456.187-10.474-4.133-9.294" transform="translate(115.053 60.071)" fill="#c1dee2"/>
        <path id="Fill_139" data-name="Fill 139" d="M27.676,48.528h0a30.676,30.676,0,0,1-9.7-1.653,31.617,31.617,0,0,1-8.9-4.68A24.251,24.251,0,0,1,2.564,34.9,19.23,19.23,0,0,1,0,25.419a19.572,19.572,0,0,1,2.147-9.092A24.18,24.18,0,0,1,7.821,9.2,41.514,41.514,0,0,1,24.426.78,23.327,23.327,0,0,1,30.363,0,22.357,22.357,0,0,1,45.53,5.969a24.2,24.2,0,0,1,7.558,15.023,24.048,24.048,0,0,1-5.5,18.6,24.8,24.8,0,0,1-8.179,6.285A26.945,26.945,0,0,1,28.829,48.5C28.449,48.52,28.061,48.528,27.676,48.528ZM8.491,16.941C5.642,21.86,5.485,26.8,8.037,31.227a20.21,20.21,0,0,0,8.661,7.7,27.415,27.415,0,0,0,12.016,2.882,19.685,19.685,0,0,0,8.294-1.69,16.4,16.4,0,0,0,8.327-8.656,19.43,19.43,0,0,0,1.058-11.58,16.472,16.472,0,0,0-4.929-8.848,15.1,15.1,0,0,0-10.222-3.79,3.483,3.483,0,0,1,.792,2.429,1.707,1.707,0,0,1-.877,1.134,2.014,2.014,0,0,1-1.01.318c-.837,0-1.39-.774-1.924-1.524a3.46,3.46,0,0,0-1.589-1.494,2.291,2.291,0,0,0-.62-.08c-1.591,0-3.721,1.323-5.228,2.432a20.827,20.827,0,0,0-2.35,2.4c-2.171,2.418-5.144,5.729-7.53,5.729a2.79,2.79,0,0,1-2.415-1.648Z" transform="translate(86.246 99.229)" fill="#89c5cc"/>
        <path id="Fill_141" data-name="Fill 141" d="M0,2.338c0,3.086,4.874,3.086,4.874,0C4.874-.713,0-.844,0,2.338" transform="translate(104.687 117.81)" fill="#89c5cc"/>
        <path id="Fill_143" data-name="Fill 143" d="M0,2.863c0,3.78,5.973,3.78,5.973,0,0-3.738-5.973-3.9-5.973,0" transform="translate(113.262 116.705)" fill="#89c5cc"/>
        <path id="Fill_145" data-name="Fill 145" d="M1.035.275C-3.85,3.149,10.119,8.857,10.67,3.024,10.908.507,8.47,1.186,6.846,1,5.291.823,2.509-.583,1.035.275" transform="translate(106.092 128.102)" fill="#89c5cc"/>
        <path id="Fill_147" data-name="Fill 147" d="M0,2.46C.214,9.8.112,17.132,1.5,24.368c.265,1.374.448,6.359,1.535,7.38,2.672,2.512,2.716-2.3,2.82-4.147.371-6.607-.323-13.42-.476-20.041-.033-1.425.345-4.377-.328-5.756C3.987-.386-.1-1.036,0,2.46" transform="translate(105.005 146.301)" fill="#c1dee2"/>
        <path id="Fill_149" data-name="Fill 149" d="M71.423.814C60.714,12.832,45.969,11.947,31.113,13c-7.849.556-15.785,1.7-22.1,6.775A26.827,26.827,0,0,0,1.84,28.466c-.744,1.474-4.273,9.978,1.027,7.96,1.88-.715,3.73-6.339,4.945-8a23.619,23.619,0,0,1,8.832-7.484c6.856-3.28,15.041-3.224,22.474-3.64,7.77-.435,16.11-.841,23.253-4.22a35.21,35.21,0,0,0,9.216-6.127c.966-.913,3.038-2.464,3.192-3.861.177-1.6-1.357-4.518-3.357-2.279" transform="translate(28.361 141.997)" fill="#c1dee2"/>
        <path id="Fill_151" data-name="Fill 151" d="M37.6.74c-10.059.336-20.1.743-30.149,1.379C5.4,2.249-1.466,1.834.282,6.051c1.4,3.381,9.771,1.145,12.539.981C23.289,6.411,33.8,6.2,44.243,5.253,46.59,5.042,57.2,5.126,52.816.968,50.732-1.011,40.483.642,37.6.74" transform="translate(8.121 178.96)" fill="#89c5cc"/>
        <path id="Fill_153" data-name="Fill 153" d="M2.016.959C-1.155,5.123.3,15.244.542,20.25c.232,4.85-.71,13.721,5.622,14.473-2.011-.264,1.526.122,2.1.153,1.286.069,2.577.091,3.865.1,2.974.033,5.95-.007,8.923-.067,6.736-.135,13.489-.331,20.217-.7,2.828-.157,18.169-.026,18.776-2.964.776-3.754-13.933-1.63-16.566-1.51-6.413.294-12.835.356-19.253.44-3.181.042-6.365.073-9.546.011-1.313-.026-6.515.514-7.314-.363-.681-.746-.149-7.6-.164-8.654-.047-3.42-.043-6.848.079-10.267.082-2.3,1.326-6.681.312-8.843A3.5,3.5,0,0,0,2.016.959" transform="translate(0 183.592)" fill="#89c5cc"/>
        <path id="Fill_155" data-name="Fill 155" d="M0,3.976c.184,7.618.241,15.39,2.04,22.84.6,2.48,1.438,7.592,3.929,8.876,2.614,1.348,4.872-.576,5.042-3.166.215-3.257-1.529-7.532-1.886-10.873-.418-3.9-.661-7.8-.8-11.719C8.214,6.987,9.11,2.57,6.3.67,3.778-1.037-.081.682,0,3.976" transform="translate(53.809 180.77)" fill="#89c5cc"/>
        <path id="Fill_157" data-name="Fill 157" d="M1.989,1.229C-1.139,4.345.259,14.211.65,18.215c.286,2.933,3.5,17.359,8.306,9.836,2.127-3.328-.575-12.127-.556-16.007.012-2.471.887-5.6.465-7.971C8.307.936,4.827-1.605,1.989,1.229" transform="translate(71.838 181.657)" fill="#89c5cc"/>
        <path id="Wireframy_Stuff-4" data-name="Wireframy Stuff" d="M4.439,37.139c-2.4-.1-4.956-.883-4.349-3.981.538-2.748,3.3-2.77,5.558-3a193.885,193.885,0,0,1,20.413-.912c14.34.05,28.669-.025,43.009-.1a3.106,3.106,0,0,1,1.6.616c-.748-.91-.388-2.257-.528-3.573-.377-3.548-.62-7.035-1.293-10.582-.538-2.837-.943-7.657-3.572-9.442-2.238-1.518-6.6-1.461-10.041-1.4-.973.016-1.872.032-2.626.013a238.658,238.658,0,0,0-27.662,1.25c-4.184.381-8.42.67-12.557,1.421-2.3.419-9.062,3.8-10.9,1.72C-2.941,4.155,16.528,2.1,19.171,1.825c9.4-.969,18.8-1.7,28.252-1.786,6.38-.05,17.3-.594,21.991,4.641C72.231,7.823,73.22,13,74.32,16.923c.844,3.013,3.134,8.445,1.507,11.556-.737,1.409-1.922,2.608-3.721,2.11a3.382,3.382,0,0,1-1.007-.441A2.611,2.611,0,0,1,71.645,33c-1.075,2.5-5.033,1.957-7.183,2.137-7.174.6-14.381,1-21.581,1.06-3.426.03-6.851,0-10.278-.026-3.531-.03-7.061-.058-10.591-.023-5.269.052-10.736,1.027-16,1.027Q5.222,37.17,4.439,37.139Z" transform="translate(76.318 178.488)" fill="#89c5cc"/>
        <path id="Line" d="M70.171,37.024h0c-1.735,0-3.521-2.951-4.7-4.9a17.171,17.171,0,0,0-1-1.55,16.322,16.322,0,0,0-8.025-5.925c-6.109-2.083-12.853-2.87-19.374-3.632-2.221-.259-4.517-.527-6.717-.841-1.135-.162-2.292-.308-3.518-.463-5.9-.746-12.58-1.591-17.618-4.443C7.006,14.018.036,7.632,0,3.37A3.088,3.088,0,0,1,1.667.548,3.49,3.49,0,0,1,3.4,0C5.086,0,6.023,1.834,6.85,3.453c.264.517.514,1.005.774,1.41a13.768,13.768,0,0,0,8.448,6.107,127.114,127.114,0,0,0,16.35,3.214c1.409.213,2.864.434,4.289.662,1.166.187,2.377.37,3.549.546,6.459.974,13.137,1.981,18.974,4.559,1.213.536,4.347,2.991,7.293,6.024,2.019,2.078,5.428,5.967,5.577,8.666A2.182,2.182,0,0,1,70.976,36.8a1.588,1.588,0,0,1-.805.224Z" transform="translate(130.202 137.316)" fill="#c1dee2"/>
        <path id="Wireframy_Stuff-5" data-name="Wireframy Stuff" d="M7.773,38.256c-2.452-.238-5.087-1.1-4.479-4.195C1.587,30.789.8,24.5.65,23.263A114.65,114.65,0,0,1,.035,7.247,3.508,3.508,0,0,1,5.661,4.541C8.591,3.314,13.55,3.129,16.214,2.86c4.378-.442,8.794-.607,13.186-.869C39.652,1.378,49.892.273,60.164.045c3.073-.064,7.189-.342,9.648,1.927,2.8,2.583,3.356,8.991,4.194,12.444a84.226,84.226,0,0,1,2.38,11.411,21.722,21.722,0,0,1,.221,3.841,2.4,2.4,0,0,1,1.914,2.77c-.24,2.516-3.724,2.859-5.764,3.256-6.78,1.324-14.027,1.022-20.9,1.217-11.146.314-22.89,1.78-34.28,1.78C14.272,38.691,10.995,38.567,7.773,38.256ZM9.2,31.1h.923q10.85-.19,21.688-.624c7.372-.283,14.742-.6,22.119-.683,2.569-.03,5.173.051,7.784.132,3.347.1,6.706.206,10.023.079-1.27-3.323-1.077-8.556-1.755-12-.672-3.418-.928-7.47-2.3-10.68-1.547-3.611-2.891-2.775-6.919-2.5C56.622,5.1,52.486,5.5,48.349,5.84c-9.094.748-18.2,1.222-27.3,1.855-4.72.329-9.236,1.676-13.853,2.2-.07,1.648-.3,3.31-.276,4.513.078,3.547.427,7.068.735,10.6.125,1.436.718,3.915.807,6.089H9.2Z" transform="translate(159.193 176.269)" fill="#89c5cc"/>
      </g>
    </g>
    <g id="Image" transform="translate(2174.139 2016.323)">
      <g id="Image-2" data-name="Image" transform="translate(5.786 170.313) rotate(-14)">
        <path id="Fill_35-2" data-name="Fill 35" d="M.008,0,0,.02S.008-.007.008,0" transform="translate(54.924 58.793)" fill="#c5cfd6"/>
        <path id="Fill_37-2" data-name="Fill 37" d="M0,.007A.047.047,0,0,0,0,.013C0,.007.01-.009,0,.007" transform="translate(54.926 58.797)" fill="#c5cfd6"/>
        <path id="Fill_39" data-name="Fill 39" d="M.073,0C.066.022.056.043.047.064L.06.034C-.053.318.019.133.073,0" transform="translate(54.891 58.711)" fill="#c5cfd6"/>
        <path id="Fill_41-2" data-name="Fill 41" d="M.024,0,.011.031C-.02.092.024,0,.024,0" transform="translate(54.916 58.777)" fill="#c5cfd6"/>
        <path id="Fill_43-2" data-name="Fill 43" d="M0,0Z" transform="translate(54.928 58.803)" fill="#c5cfd6"/>
        <path id="Fill_45-2" data-name="Fill 45" d="M0,0H0" transform="translate(54.927 58.802)" fill="#c5cfd6"/>
        <path id="Fill_47-2" data-name="Fill 47" d="M0,.02c-.007.013.031-.05,0,0" transform="translate(54.921 58.792)" fill="#c5cfd6"/>
        <path id="Fill_49" data-name="Fill 49" d="M0,0H0" transform="translate(54.927 58.802)" fill="#c5cfd6"/>
        <rect id="Photo_Background" data-name="Photo Background" width="109" height="72" rx="4" fill="#2b44ff"/>
        <g id="icons8-night_landscape" transform="translate(9.788 21.068)">
          <path id="Mountains" d="M31.525,0,0,51.375H63.05Z" fill="rgba(0,0,0,0.2)"/>
          <path id="Mountains-2" data-name="Mountains" d="M27.87,0,0,37.614H55.74Z" transform="translate(36.159 13.761)" fill="rgba(0,0,0,0.2)"/>
        </g>
        <circle id="Sun" cx="10.384" cy="10.384" r="10.384" transform="translate(75.36 14.564)" fill="#fff"/>
      </g>
    </g>
    <g id="Humaaan" transform="translate(1869 2071.803)">
      <g id="Head" transform="translate(112 -0.48)">
        <g id="Head-2" data-name="Head" transform="translate(75.294 43.591)">
          <path id="Head-3" data-name="Head" d="M0,101,11.213,47.719C4.96,40.236.727,31.064,1.434,20.788,3.473-8.82,43.9-2.307,51.766,12.637s6.93,52.851-3.233,55.522c-4.054,1.065-12.689-1.544-21.477-6.944L32.572,101Z" transform="translate(-0.294 0.409)" fill="#b28b67"/>
        </g>
        <path id="hair" d="M60.424,33.724a43.345,43.345,0,0,0-13.9-1.536,23.9,23.9,0,0,0,1.692-12.082c-.5-3.981-2.275-7.371-3.92-10.923a14.944,14.944,0,0,0-2.9-4.518,9.9,9.9,0,0,0-4.69-2.52,12.551,12.551,0,0,0-5.4,0c-.786.165-1.491.524-2.261.724-.789.2-1.172-.289-1.744-.786a9.879,9.879,0,0,0-5.149-2,13.279,13.279,0,0,0-5.86.7,11.47,11.47,0,0,0-4.88,3.128A8.184,8.184,0,0,0,9.949,6.153c-.142.34-.165.542-.5.667-.314.115-.682.119-1.006.229a12.656,12.656,0,0,0-7.276,6.6C.311,15.458-.093,18.654.018,22.235S3.362,35.16,6.386,38.568a20.317,20.317,0,0,0,10.5,5.929A30.031,30.031,0,0,0,11.4,54.725,50.055,50.055,0,0,0,8.888,67.15,40.553,40.553,0,0,0,9.511,79.4a13.275,13.275,0,0,0,5.936,8.643,28.35,28.35,0,0,0,4.569,2.146A30.076,30.076,0,0,0,24.723,91.7c3.059.632,6.584.524,8.94-1.911a16.785,16.785,0,0,0,2.4-3.053c.223-.386.357-.638.086-1.015a7.259,7.259,0,0,0-1.265-1.151,11.925,11.925,0,0,1-4.216-7.9c-.376-3.241.5-7.425,3.646-8.84,3.89-1.746,8.174.258,11.632,2.127,1.469-5.186,4.487-9.856,9.217-12.235,5.233-2.632,11.239-2.94,16.617-5.2a9.913,9.913,0,0,0,3.861-2.455,4.992,4.992,0,0,0,1.109-1.814,2.937,2.937,0,0,0-.769-2.279C73.684,42.377,64.963,35.107,60.424,33.724Z" transform="translate(53.967 5.535)" fill="#191847"/>
      </g>
      <g id="Bottom" transform="translate(0 253.52)">
        <path id="Leg" d="M0,0,50.69,174.675,74.533,305.823h23.93L74.575,0Z" transform="translate(177.128)" fill="#997659"/>
        <path id="Leg-2" data-name="Leg" d="M34.559,0C38.1,90.743,36.7,140.236,35.91,148.481S30.624,211.94,0,308.591H24.89c40.556-92.72,54.71-147.935,59.366-160.11S102.646,86.812,122.7,0Z" transform="translate(119.788)" fill="#b28b67"/>
        <path id="Pant" d="M0,0Q19.778,90.159,68.415,287.834h35C106,152.571,95,63.546,75.959,0Z" transform="translate(176.04)" fill="#69a1ac"/>
        <path id="Pant-2" data-name="Pant" d="M33.321,0C36.786,90.743,27.808,180.141,0,289.247H37.344C77.975,197.91,107.1,108.953,127,0Z" transform="translate(120.849)" fill="#89c5cc"/>
        <g id="Left_Shoe" data-name="Left Shoe" transform="translate(116 275)">
          <path id="Shoe" d="M0,24.909,1.3,3.952A1.384,1.384,0,0,1,2.555,2.659L31.587,0l49.79,18.484a2.768,2.768,0,0,1,1.7,3.35L81.026,29.06H2.747Z" transform="translate(0 26.293)" fill="#191847"/>
        </g>
        <g id="Right_Shoe" data-name="Right Shoe" transform="translate(246 275)">
          <path id="Shoe-2" data-name="Shoe" d="M0,24.909,1.3,3.952A1.384,1.384,0,0,1,2.555,2.659L31.587,0l49.79,18.484a2.768,2.768,0,0,1,1.7,3.35L81.026,29.06H2.747Z" transform="translate(0 26.293)" fill="#191847"/>
        </g>
      </g>
      <g id="Body" transform="translate(134.363 113.448)">
        <path id="Skin" d="M75.227,71.2l21.1-11.591s4.44-16.9,10.616-17c1.593-.742.985,2.5.757,5.748-.225,3.2-.082,6.392,2.893,5.78,6-1.234,20.629-12.118,23.151-9.909,3.73,3.271.4,13.309-3.515,18.3-7.326,9.333-13.39,12.525-28.38,16.7-11.756,3.277-25.42,13.139-25.42,13.139ZM0,49,48.031,22.7Q60.014,8.469,71.641.6c2.369-.991,6.511-1.59,2.638,5.286s-7.639,14.283-5.667,16.4c.867.93,2.3.881,3.841.831,1.962-.062,4.089-.126,5.409,1.848q2.356,3.52-25.224,11.12L17.738,68.04Z" transform="translate(112.663 10.086)" fill="#997659"/>
        <path id="Sleeve" d="M7.618,8.807A118.02,118.02,0,0,0,73,0l6,22.177c-18.872,13.6-43.91,23.268-63.871,19.529C-.6,38.76-5.648,18.368,7.618,8.807Z" transform="translate(80.369 45.722) rotate(-9)" fill="#2026a2"/>
        <path id="Clothes" d="M46.249,197.166c-16.9-2.2-32.619-4.391-41.753-2.593C-11.165,143.711,19.116,123.041,19.141,90.5,19.167,54.857,47.784,0,51.995,0H90.4c2.117,27.2,12.771,57.186,21.519,86.806,27.9,6.335,89.867-15.714,89.867-15.714s15.642,32.36,14.462,46.142c-36.068,18.84-66.976,27.24-92.444,27.793.809,15.11-1.03,29.49-7.208,42.628-4.623,9.83-17.411,12.769-33.02,12.768C71.954,200.421,58.776,198.794,46.249,197.166Z" fill="#3848ed"/>
      </g>
    </g>
    <g id="Figure" transform="translate(2679.653 2015.563)">
      <g id="Head_Front" data-name="Head/Front" transform="matrix(-0.966, -0.259, 0.259, -0.966, 250.387, 132.951)">
        <g id="Head-4" data-name="Head" transform="translate(0.177 0)">
          <path id="Head-5" data-name="Head" d="M0,0,13.152,61.2C5.818,69.8.852,80.331,1.682,92.134c2.391,34.015,49.811,26.532,59.034,9.367s8.129-60.708-3.792-63.777C52.169,36.5,42.042,39.5,31.733,45.7L38.2,0Z" transform="translate(0)" fill="#b28b67"/>
        </g>
        <path id="Hair-2" data-name="Hair" d="M32.164,11.362C29.6,19.1,28.62,41.379,28.383,47.962a9.665,9.665,0,0,1-1.146.068,9.533,9.533,0,0,1-6.673-16.358c-2.211-3.114-4.686-6.368-7.524-9.725C2.377,28.334-5.534,47.03,4.89,64.99c2.881,8.8,9.4,13.5,17.107,15.68a27.752,27.752,0,0,0,18.185,1.338c10.719-.918,20.29-4.182,23-6.12,0-10.131-1.967-13.138-18.762-12.873-4.127-2.176-7.3-5.923-10.6-10.835.024-.328,2.244-30.508,11.606-30.508,9.411,0,17.4,5.966,21.527,5.966,3.01,0,2.338-3.762.342-6.55-1.646-2.3-9.663-4.518-9.663-8.086,0-2.014,2.02-2.011,3.778-2.007,1.355,0,2.556,0,2.556-.917C63.966,6.578,65.081,0,59,0,52.84,0,35.188,2.24,32.164,11.362Z" transform="translate(0 36.202)" fill="#191847"/>
      </g>
      <g id="Bottom_Skinny_Jeans_1" data-name="Bottom/Skinny Jeans 1" transform="translate(21.158 260.276)">
        <path id="Leg-3" data-name="Leg" d="M151.221,0,73.092,197.431l-52.4,166.912H0L80.109,0Z" transform="translate(60.191)" fill="#997659"/>
        <path id="Leg-4" data-name="Leg" d="M77.813,0c.832,69.379,12.965,162.786,14.9,167.111S226.553,277.1,226.553,277.1L212.3,292.33S56.674,201.73,49.472,189.65,18.824,66.373,0,0Z" transform="translate(149.331)" fill="#b28b67"/>
        <g id="Left_Shoe-2" data-name="Left Shoe" transform="translate(393.644 281.723) rotate(130)">
          <path id="shoe-3" data-name="shoe" d="M6.575,23.465A2.939,2.939,0,0,1,2.8,21.483L0,11.6A94.413,94.413,0,0,1,1.325,0H84.218s3.231,10.682-3.73,11.534-11.567,1.54-11.567,1.54L30.393,30.246a1.47,1.47,0,0,1-1.957-.782L25.96,23.457S19.515,20.45,15.486,20.45Z" transform="translate(0 0)" fill="#7ba389"/>
        </g>
        <g id="Right_Shoe-2" data-name="Right Shoe" transform="translate(0 346.991)">
          <path id="shoe-4" data-name="shoe" d="M84.905,7.8a3.185,3.185,0,0,1,4.083,2.146l3.038,10.687a101.942,101.942,0,0,1-1.435,12.546H.811s-3.5-11.551,4.04-12.472,12.527-1.663,12.527-1.663L59.107.47a1.593,1.593,0,0,1,2.12.846l2.682,6.5s6.98,3.252,11.344,3.252Z" transform="translate(0 -0.332)" fill="#7ba389"/>
        </g>
        <path id="Pant-3" data-name="Pant" d="M98.381,347.151,0,336.491,72.912,0h88.116Z" transform="translate(60.501)" fill="#69a1ac"/>
        <path id="Pant-4" data-name="Pant" d="M213.842,252.537,149.31,328.8S47.355,217.624,30.43,183.715,0,0,0,0H99.2s7.377,131.792,9.945,137.925S213.842,252.537,213.842,252.537Z" transform="translate(141.692)" fill="#89c5cc"/>
      </g>
      <g id="Body_Long_Sleeve_1" data-name="Body/Long Sleeve 1" transform="matrix(-0.985, -0.174, 0.174, -0.985, 331.604, 406.721)">
        <path id="Skin-2" data-name="Skin" d="M1.953,3.437c-1.776,1.093-3.722,5.212.978,8.43,11.713,8.017,28.591,22.05,30.872,26.67,4.665,9.449,20.55,101.538,20.55,101.538l33.264-.132S56.808,40.643,54.353,34.569C50.67,25.455,58.465,11.575,61.8,4.115c-5.253-2.347-7.695.649-10.366,3.646-2.848,3.194-5.961,6.388-13.027,3.1C29.362,6.666,21.886,0,12.975,0A20.7,20.7,0,0,0,1.953,3.437Zm286.411,89.4-50.281,20.822,11.223,27.7,50.777-37.226Q320.74,98.567,334.6,90.284c2.183-1.985,4.821-6.006-4.231-5.312s-18.6,1.02-19.853-2.063,4.229-6.768,1.7-10.928a1.2,1.2,0,0,0-1.1-.593q-4.461,0-22.752,21.451Z" transform="translate(0 0)" fill="#b28b67"/>
        <path id="Coat_Back" data-name="Coat Back" d="M0,177.441l13.507,3.548c54.715-39.429,82.987-121.9,149.255-161.1L149.377,0C40.021,3.909,4.211,104.389,0,177.441Z" transform="matrix(0.996, -0.087, 0.087, 0.996, 133.42, 102.669)" fill="#e87613"/>
        <path id="Shirt" d="M0,0H121.792c5.565,0,4.517,8.023,3.712,12.072-9.285,46.725-45.53,97.093-45.53,163.606l-35.13,5.5C15.787,134.519,5.738,77.073,0,0Z" transform="translate(88.882 106.731)" fill="#dde3e9"/>
        <path id="Coat_Front" data-name="Coat Front" d="M.162,0c-2.81,90.711,31.591,160.523,60.38,202.611-6.393.456-12.162,3.126-15.81,9.7-12.839,23.132-8.2,35.868,5.52,40.054s25.959-4.438,47.822-4.438a17.066,17.066,0,0,0,2.607-.186l11.658-.664s47.33-160.152,26.107-213.7H42.18A304.772,304.772,0,0,0,26.28,0Z" transform="translate(33.007 39.981)" fill="#ff9b21"/>
        <path id="Shade" d="M35.979,0H0C6.6,15.823,13.878,35.363,21.634,58.082c3.23-28,8.056-47.538,14.344-58.08Z" transform="translate(75.188 73.356)" fill="rgba(0,0,0,0.1)"/>
      </g>
    </g>
  </g>
</svg>
