<svg xmlns="http://www.w3.org/2000/svg" width="97.163" height="97.162" viewBox="0 0 97.163 97.162">
  <g id="ad" transform="translate(-75.008 -17.5)">
    <path id="パス_486" data-name="パス 486" d="M178.185,30.455h-3.239V23.977a6.477,6.477,0,0,0-6.477-6.477H103.694a6.477,6.477,0,0,0-6.477,6.477v6.477H93.977A6.477,6.477,0,0,0,87.5,36.932V91.991a6.477,6.477,0,0,0,6.477,6.477h31.83l-3.886,12.955h-3.653v3.239h35.626v-3.239h-3.653l-3.886-12.955h31.83a6.477,6.477,0,0,0,6.477-6.477V36.932a6.477,6.477,0,0,0-6.477-6.477ZM90.739,36.932a3.238,3.238,0,0,1,3.239-3.239h3.239V82.275h3.239v-58.3a3.238,3.238,0,0,1,3.239-3.239h64.775a3.238,3.238,0,0,1,3.239,3.239v58.3h3.239V33.694h3.239a3.238,3.238,0,0,1,3.239,3.239V85.514H90.739Zm56.121,74.491H125.3l3.887-12.955h13.784Zm34.564-19.432a3.238,3.238,0,0,1-3.239,3.239H93.977a3.238,3.238,0,0,1-3.239-3.239V88.752h90.685Z" transform="translate(-12.492)"/>
    <path id="パス_487" data-name="パス 487" d="M175,52.5h3.239v3.239H175Z" transform="translate(-83.798 -28.523)"/>
    <path id="パス_488" data-name="パス 488" d="M210,52.5h3.239v3.239H210Z" transform="translate(-112.321 -28.523)"/>
    <path id="パス_489" data-name="パス 489" d="M245,52.5h3.239v3.239H245Z" transform="translate(-140.843 -28.523)"/>
    <path id="パス_490" data-name="パス 490" d="M463.78,161.248l8.373-1.87.706,3.161-8.373,1.87Z" transform="translate(-319.134 -115.62)"/>
    <path id="パス_491" data-name="パス 491" d="M440.06,68.667l4.859-4.859,2.29,2.29-4.859,4.859Z" transform="translate(-299.803 -37.738)"/>
    <path id="パス_492" data-name="パス 492" d="M477.34,248.825l1.449-2.9,6.477,3.239-1.449,2.9Z" transform="translate(-330.184 -186.153)"/>
    <path id="パス_493" data-name="パス 493" d="M220.981,56.2a5.051,5.051,0,1,0-9.859,2.2l.5,2.235L191.25,73.49l-8.1,1.807h0a10.187,10.187,0,0,0,1.066,20.08l2.762,12.375h0a1.62,1.62,0,0,0,1.93,1.224l6.7-1.5a1.62,1.62,0,0,0,1.229-1.933L194.2,93.726l1.5-.333,23.9,2.965.486,2.165a5.05,5.05,0,0,0,9.857-2.2Zm-42.4,30.563a6.964,6.964,0,0,1,5.275-8.309l6.792-1.516,1.517,6.792,1.516,6.792-1.767.4-5.02,1.122h0a6.963,6.963,0,0,1-8.307-5.276Zm14.736,17.9-3.538.79L187.5,95.222l.086-.02,3.444-.769Zm3.623-14.384L193.7,75.769,212.367,64l6.477,29Zm28.5,8.9a1.813,1.813,0,0,1-2.2-1.366L214.284,57.7a1.812,1.812,0,0,1,3.537-.787l8.95,40.116a1.822,1.822,0,0,1-1.329,2.155Z" transform="translate(-83.911 -28.321)"/>
  </g>
</svg>
