<svg xmlns="http://www.w3.org/2000/svg" width="103.8" height="103.8" viewBox="0 0 103.8 103.8">
  <g id="booking" transform="translate(-103.1 -33.1)">
    <path id="パス_379" data-name="パス 379" d="M175,91.071a3.572,3.572,0,0,1,3.571-3.571h7.143a3.571,3.571,0,1,1,0,7.143h-7.143A3.572,3.572,0,0,1,175,91.071Z" transform="translate(-55.714 -41.786)" stroke="#eff2f1" stroke-width="3"/>
    <path id="パス_380" data-name="パス 380" d="M423.571,87.5a3.571,3.571,0,1,0,0,7.143h7.143a3.571,3.571,0,0,0,0-7.143Z" transform="translate(-250.714 -41.786)" stroke="#eff2f1" stroke-width="3"/>
    <path id="パス_381" data-name="パス 381" d="M105,110V45.714A10.714,10.714,0,0,1,115.714,35h71.429a10.714,10.714,0,0,1,10.714,10.714V93.053a24.908,24.908,0,0,0-7.143-3.446V63.573H112.143V110a3.572,3.572,0,0,0,3.571,3.571h42.857a25,25,0,0,0,1.036,7.143H115.715A10.714,10.714,0,0,1,105,110Zm85.714-53.571V45.714a3.572,3.572,0,0,0-3.571-3.571H115.714a3.572,3.572,0,0,0-3.571,3.571V56.429Z" transform="translate(0)" stroke="#eff2f1" stroke-width="3.8" fill-rule="evenodd"/>
    <path id="パス_382" data-name="パス 382" d="M476.071,269.643a3.571,3.571,0,1,0-3.571-3.571A3.572,3.572,0,0,0,476.071,269.643Z" transform="translate(-292.5 -181.071)" stroke="#eff2f1" stroke-width="3"/>
    <path id="パス_383" data-name="パス 383" d="M157.5,213.571a3.571,3.571,0,1,1,3.571,3.571A3.572,3.572,0,0,1,157.5,213.571Z" transform="translate(-41.786 -139.286)" stroke="#eff2f1" stroke-width="3"/>
    <path id="パス_384" data-name="パス 384" d="M157.5,266.071a3.571,3.571,0,1,1,3.571,3.571A3.572,3.572,0,0,1,157.5,266.071Z" transform="translate(-41.786 -181.071)" stroke="#eff2f1" stroke-width="3"/>
    <path id="パス_385" data-name="パス 385" d="M157.5,318.571a3.571,3.571,0,1,1,3.571,3.571A3.572,3.572,0,0,1,157.5,318.571Z" transform="translate(-41.786 -222.857)" stroke="#eff2f1" stroke-width="3"/>
    <path id="パス_386" data-name="パス 386" d="M157.5,371.071a3.571,3.571,0,1,1,3.571,3.571A3.572,3.572,0,0,1,157.5,371.071Z" transform="translate(-41.786 -264.643)" stroke="#eff2f1" stroke-width="3"/>
    <path id="パス_387" data-name="パス 387" d="M210,213.571a3.571,3.571,0,1,1,3.571,3.571A3.572,3.572,0,0,1,210,213.571Z" transform="translate(-83.571 -139.286)" stroke="#eff2f1" stroke-width="3"/>
    <path id="パス_388" data-name="パス 388" d="M210,266.071a3.571,3.571,0,1,1,3.571,3.571A3.572,3.572,0,0,1,210,266.071Z" transform="translate(-83.571 -181.071)" stroke="#eff2f1" stroke-width="3"/>
    <path id="パス_389" data-name="パス 389" d="M210,318.571a3.571,3.571,0,1,1,3.571,3.571A3.572,3.572,0,0,1,210,318.571Z" transform="translate(-83.571 -222.857)" stroke="#eff2f1" stroke-width="3"/>
    <path id="パス_390" data-name="パス 390" d="M210,371.071a3.571,3.571,0,1,1,3.571,3.571A3.572,3.572,0,0,1,210,371.071Z" transform="translate(-83.571 -264.643)" stroke="#eff2f1" stroke-width="3"/>
    <path id="パス_391" data-name="パス 391" d="M262.5,213.571a3.571,3.571,0,1,1,3.571,3.571A3.572,3.572,0,0,1,262.5,213.571Z" transform="translate(-125.357 -139.286)" stroke="#eff2f1" stroke-width="3"/>
    <path id="パス_392" data-name="パス 392" d="M262.5,266.071a3.571,3.571,0,1,1,3.571,3.571A3.572,3.572,0,0,1,262.5,266.071Z" transform="translate(-125.357 -181.071)" stroke="#eff2f1" stroke-width="3"/>
    <path id="パス_393" data-name="パス 393" d="M262.5,318.571a3.571,3.571,0,1,1,3.571,3.571A3.572,3.572,0,0,1,262.5,318.571Z" transform="translate(-125.357 -222.857)" stroke="#eff2f1" stroke-width="3"/>
    <path id="パス_394" data-name="パス 394" d="M262.5,371.071a3.571,3.571,0,1,1,3.571,3.571A3.572,3.572,0,0,1,262.5,371.071Z" transform="translate(-125.357 -264.643)" stroke="#eff2f1" stroke-width="3"/>
    <path id="パス_395" data-name="パス 395" d="M315,213.571a3.571,3.571,0,1,1,3.571,3.571A3.572,3.572,0,0,1,315,213.571Z" transform="translate(-167.143 -139.286)" stroke="#eff2f1" stroke-width="3"/>
    <path id="パス_396" data-name="パス 396" d="M315,266.071a3.571,3.571,0,1,1,3.571,3.571A3.572,3.572,0,0,1,315,266.071Z" transform="translate(-167.143 -181.071)" stroke="#eff2f1" stroke-width="3"/>
    <path id="パス_397" data-name="パス 397" d="M315,318.571a3.571,3.571,0,1,1,3.571,3.571A3.572,3.572,0,0,1,315,318.571Z" transform="translate(-167.143 -222.857)" stroke="#eff2f1" stroke-width="3"/>
    <path id="パス_398" data-name="パス 398" d="M367.5,213.571a3.571,3.571,0,1,1,3.571,3.571A3.572,3.572,0,0,1,367.5,213.571Z" transform="translate(-208.928 -139.286)" stroke="#eff2f1" stroke-width="3"/>
    <path id="パス_399" data-name="パス 399" d="M367.5,266.071a3.571,3.571,0,1,1,3.571,3.571A3.572,3.572,0,0,1,367.5,266.071Z" transform="translate(-208.928 -181.071)" stroke="#eff2f1" stroke-width="3"/>
    <path id="パス_400" data-name="パス 400" d="M423.571,210a3.571,3.571,0,1,0,3.571,3.571A3.572,3.572,0,0,0,423.571,210Z" transform="translate(-250.714 -139.286)" stroke="#eff2f1" stroke-width="3"/>
    <path id="パス_401" data-name="パス 401" d="M423.571,262.5a3.571,3.571,0,1,0,3.571,3.571A3.572,3.572,0,0,0,423.571,262.5Z" transform="translate(-250.714 -181.071)" stroke="#eff2f1" stroke-width="3"/>
    <path id="パス_402" data-name="パス 402" d="M476.071,210a3.571,3.571,0,1,0,3.571,3.571A3.572,3.572,0,0,0,476.071,210Z" transform="translate(-292.5 -139.286)" stroke="#eff2f1" stroke-width="3"/>
    <path id="パス_403" data-name="パス 403" d="M483.061,369.311a3.572,3.572,0,0,0-3.418-5.984v-1.006a3.571,3.571,0,1,0-7.143,0v8.929a3.572,3.572,0,0,0,6.1,2.525Z" transform="translate(-292.5 -257.679)" stroke="#eff2f1" stroke-width="3.8"/>
    <path id="パス_404" data-name="パス 404" d="M406.428,315a21.429,21.429,0,1,0,21.429,21.429A21.429,21.429,0,0,0,406.428,315Zm-14.286,21.429a14.286,14.286,0,1,1,14.286,14.286A14.286,14.286,0,0,1,392.143,336.428Z" transform="translate(-222.857 -222.857)" stroke="#eff2f1" stroke-width="3.8" fill-rule="evenodd"/>
  </g>
</svg>
