<svg xmlns="http://www.w3.org/2000/svg" width="24.823" height="27.528" viewBox="0 0 24.823 27.528">
  <path id="calendar" d="M7.278,30.57a2.471,2.471,0,0,1-1.809-.761A2.471,2.471,0,0,1,4.708,28V7.878a2.47,2.47,0,0,1,.761-1.809,2.47,2.47,0,0,1,1.809-.761H9.1V3.042h2.536V5.307H22.6V3.042h2.536V5.307h1.826a2.6,2.6,0,0,1,2.57,2.57V28a2.6,2.6,0,0,1-2.57,2.57Zm0-2.57H26.961V13.864H7.278Zm0-16.368H26.961V7.878H7.278Zm0,0v0Zm9.841,7.948a1.387,1.387,0,1,1,1.015-.406A1.377,1.377,0,0,1,17.12,19.579Zm-5.411,0a1.387,1.387,0,1,1,1.015-.406A1.377,1.377,0,0,1,11.708,19.579Zm10.822,0a1.391,1.391,0,0,1-1-.406,1.429,1.429,0,0,1,0-2.029,1.391,1.391,0,0,1,1-.406,1.421,1.421,0,1,1,0,2.841ZM17.12,24.99a1.348,1.348,0,0,1-1.015-.423,1.391,1.391,0,0,1-.406-1,1.421,1.421,0,1,1,2.841,0,1.391,1.391,0,0,1-.406,1A1.348,1.348,0,0,1,17.12,24.99Zm-5.411,0a1.348,1.348,0,0,1-1.015-.423,1.391,1.391,0,0,1-.406-1,1.421,1.421,0,1,1,2.841,0,1.391,1.391,0,0,1-.406,1A1.348,1.348,0,0,1,11.708,24.99Zm10.822,0a1.444,1.444,0,0,1-1.42-1.42,1.348,1.348,0,0,1,.423-1.015,1.391,1.391,0,0,1,1-.406,1.387,1.387,0,0,1,1.42,1.42,1.391,1.391,0,0,1-.406,1A1.348,1.348,0,0,1,22.531,24.99Z" transform="translate(-4.708 -3.042)"/>
</svg>
