<svg xmlns="http://www.w3.org/2000/svg" width="280" height="37.365" viewBox="0 0 280 37.365">
  <g id="グループ_101" data-name="グループ 101" transform="translate(-428.618 -469.383)">
    <g id="グループ_1" data-name="グループ 1" transform="translate(428.618 469.383)">
      <path id="パス_3" data-name="パス 3" d="M460.153,499.06h-2.118V476.541h6.621v.262h.8v-7.42H428.618v37.365h36.833V499.06h-5.3Zm-10.337-7.948h-6.889v7.948H436.3V476.541h6.624v8.214h6.889Z" transform="translate(-428.618 -469.383)" fill="#27AAE0"/>
      <rect id="長方形_1" data-name="長方形 1" width="7.683" height="22.258" transform="translate(36.834 7.42)" fill="#27AAE0"/>
    </g>
    <g id="グループ_5" data-name="グループ 5" transform="translate(485.11 477.677)">
      <path id="パス_4" data-name="パス 4" d="M481.3,487.692c-1.107,6.232-4.994,7.82-8.652,7.82-5.9,0-9.735-4.159-9.735-10.491,0-6.31,3.78-10.495,9.758-10.495a8.089,8.089,0,0,1,6.837,3.126,8.719,8.719,0,0,1,1.665,4.264H476.69a3.8,3.8,0,0,0-4.086-3.783c-5.022,0-5.022,5.776-5.022,6.888,0,1.084,0,6.886,5.071,6.886,3.3,0,3.885-2.5,4.086-4.215Z" transform="translate(-462.918 -474.35)" fill="#27AAE0"/>
      <path id="パス_5" data-name="パス 5" d="M475.751,494.74V474.862h4.541V491.03h10.192v3.709Z" transform="translate(-454.615 -474.132)" fill="#27AAE0"/>
      <path id="パス_6" data-name="パス 6" d="M502.629,491.182v3.557H486.335V474.862H502.3v3.557H490.877v4.465h10.088v3.4H490.877v4.893Z" transform="translate(-447.767 -474.132)" fill="#27AAE0"/>
      <path id="パス_7" data-name="パス 7" d="M503.073,491.083l-1.187,3.656h-4.692l7.191-19.878h5.069l7.191,19.878h-4.692l-1.186-3.656Zm6.656-3.154-2.82-8.777-2.828,8.777Z" transform="translate(-440.742 -474.132)" fill="#27AAE0"/>
      <path id="パス_8" data-name="パス 8" d="M527.936,491.739c0,2.171.4,2.395.786,2.6v.4h-4.793a6.13,6.13,0,0,1-.506-2.548v-2.044c0-2.976-2.549-2.976-3.255-2.976h-5.247v7.568h-4.541V474.862H521.1c5.065,0,7.038,2.6,7.038,5.4a5.51,5.51,0,0,1-1.291,3.506,5.746,5.746,0,0,1-2.724,1.614,3.852,3.852,0,0,1,3.809,4.187Zm-13.015-7.947h5.672a2.819,2.819,0,0,0,3.027-2.724,2.664,2.664,0,0,0-2.9-2.648h-5.8Z" transform="translate(-432.21 -474.132)" fill="#27AAE0"/>
      <path id="パス_9" data-name="パス 9" d="M538.55,474.862h4.061V494.74h-3.66l-.076-2.019a4.944,4.944,0,0,1-4.7,2.574c-5.042,0-6.786-4.01-6.786-7.82,0-4.361,2.149-7.769,6.512-7.769,3.2,0,4.188,1.565,4.643,2.3Zm-6.791,12.591c0,2.192.759,4.462,3.357,4.462,2.625,0,3.381-2.27,3.381-4.462,0-2.248-.781-4.444-3.381-4.444S531.759,485.258,531.759,487.453Z" transform="translate(-421.202 -474.132)" fill="#27AAE0"/>
      <path id="パス_10" data-name="パス 10" d="M542,486.453c.1,2.428,1.337,3.91,3.81,3.91,2.447,0,3.078-1.285,3.355-1.863H553.3a5.517,5.517,0,0,1-1.337,2.446,8.111,8.111,0,0,1-6.155,2.446c-4.594,0-7.922-2.749-7.922-7.794,0-5.552,3.961-7.8,7.719-7.8a7.584,7.584,0,0,1,6.31,2.978,10.04,10.04,0,0,1,1.688,5.672Zm7.469-2.571c-.96-3.047-3.256-3.047-3.788-3.047a3.666,3.666,0,0,0-3.627,3.047Z" transform="translate(-414.414 -472.229)" fill="#27AAE0"/>
      <path id="パス_11" data-name="パス 11" d="M558.377,488.88c.224,2.27,1.991,2.749,4.113,2.749.679,0,3.376,0,3.376-2.016,0-1.085-.881-1.542-4.157-2.652-4.567-1.561-7.441-2.521-7.441-6.407,0-1.565.7-6.028,7.866-6.028,6.939,0,7.7,4.537,7.971,6.23h-4.664a2.861,2.861,0,0,0-.654-1.514c-.28-.354-.763-.959-2.779-.959-2.268,0-3.049.856-3.049,1.764,0,1.413,1.132,1.815,3.905,2.75,5.725,1.971,7.672,3.256,7.672,6.308,0,2.042-1.39,6.405-8.1,6.405-3.179,0-8.35-1.183-8.727-6.632Z" transform="translate(-404.177 -474.35)" fill="#27AAE0"/>
      <path id="パス_12" data-name="パス 12" d="M570.734,494.74h-4.7V474.862h4.7Z" transform="translate(-396.2 -474.132)" fill="#27AAE0"/>
      <path id="パス_13" data-name="パス 13" d="M601.646,494.74,591.6,481.218l.155,13.522h-4.467V474.862H591.6l10.042,13.522-.153-13.522h4.465V494.74Z" transform="translate(-382.449 -474.132)" fill="#27AAE0"/>
      <g id="グループ_4" data-name="グループ 4" transform="translate(177.579)">
        <g id="グループ_3" data-name="グループ 3">
          <path id="パス_14" data-name="パス 14" d="M580.721,484.687l-2.181-2.3L584.228,477l6.007,5.313-2.1,2.373-3.831-3.389Z" transform="translate(-565.69 -472.752)" fill="#27AAE0"/>
          <g id="グループ_2" data-name="グループ 2">
            <path id="パス_15" data-name="パス 15" d="M587.228,483.01a6.187,6.187,0,0,1,.308,1.93,6.275,6.275,0,1,1-6.277-6.277,6.208,6.208,0,0,1,2.049.351l3.52-2.986a10.542,10.542,0,1,0,3.783,4.113Z" transform="translate(-570.738 -474.419)" fill="#27AAE0"/>
          </g>
        </g>
      </g>
    </g>
  </g>
</svg>
