<svg xmlns="http://www.w3.org/2000/svg" width="18" height="21.176" viewBox="0 0 18 21.176">
  <path id="contact" d="M16.456,25.176l-.265-2.912H15.132a8.8,8.8,0,0,1-6.459-2.674A8.8,8.8,0,0,1,6,13.132,8.778,8.778,0,0,1,8.687,6.674,8.875,8.875,0,0,1,15.185,4a8.871,8.871,0,0,1,3.481.675,8.461,8.461,0,0,1,2.793,1.893A8.827,8.827,0,0,1,23.325,9.44,9.475,9.475,0,0,1,24,13.053a12.278,12.278,0,0,1-.516,3.494,13.759,13.759,0,0,1-1.5,3.335,14.994,14.994,0,0,1-2.382,2.938A16.12,16.12,0,0,1,16.456,25.176Zm1.324-2.859a13.339,13.339,0,0,0,3.4-4.3,11.056,11.056,0,0,0,1.231-4.963A7.35,7.35,0,0,0,20.36,7.679a6.946,6.946,0,0,0-5.175-2.091A7.33,7.33,0,0,0,9.8,7.8a7.268,7.268,0,0,0-2.21,5.334A7.268,7.268,0,0,0,9.8,18.466a7.268,7.268,0,0,0,5.334,2.21h2.647Zm-2.594-3.044a.994.994,0,1,0-.715-.291A.972.972,0,0,0,15.185,19.274Zm-.715-3.6h1.324a2.386,2.386,0,0,1,.225-1.1,5.281,5.281,0,0,1,.94-1.151,5.154,5.154,0,0,0,1.006-1.31,2.884,2.884,0,0,0,.291-1.284,2.585,2.585,0,0,0-.807-1.959A3,3,0,0,0,15.291,8.1a3.481,3.481,0,0,0-3.282,2.171l1.218.5a2.166,2.166,0,0,1,.807-1.019,2.135,2.135,0,0,1,1.178-.331,1.857,1.857,0,0,1,1.244.384,1.273,1.273,0,0,1,.45,1.019,2.063,2.063,0,0,1-.291,1.019,6.9,6.9,0,0,1-1.032,1.284,4.717,4.717,0,0,0-.913,1.191,3.506,3.506,0,0,0-.2,1.35ZM15,13.953Z" transform="translate(-6 -4)" fill="#fff"/>
</svg>
