<svg xmlns="http://www.w3.org/2000/svg" width="30.268" height="26.818" viewBox="0 0 30.268 26.818">
  <path id="counseling" d="M29.072,28.633V6.786H3.911V17.845H1.375V6.786a2.441,2.441,0,0,1,.744-1.792A2.441,2.441,0,0,1,3.911,4.25H29.072a2.5,2.5,0,0,1,1.809.744,2.414,2.414,0,0,1,.761,1.792V26.029A2.461,2.461,0,0,1,30.9,27.8,2.708,2.708,0,0,1,29.072,28.633ZM12.4,19.739a5.26,5.26,0,0,1-5.41-5.41A5.262,5.262,0,0,1,12.4,8.917a5.262,5.262,0,0,1,5.411,5.411,5.26,5.26,0,0,1-5.411,5.41Zm0-2.536a2.725,2.725,0,0,0,2.029-.828,2.81,2.81,0,0,0,.812-2.046A2.774,2.774,0,0,0,12.4,11.487a2.774,2.774,0,0,0-2.841,2.841,2.81,2.81,0,0,0,.812,2.046A2.725,2.725,0,0,0,12.4,17.2ZM1.375,31.068V27.449a4.035,4.035,0,0,1,2.368-3.787,23.473,23.473,0,0,1,4.363-1.573,17.908,17.908,0,0,1,4.294-.524,17.31,17.31,0,0,1,4.312.541,26.3,26.3,0,0,1,4.346,1.556A4.218,4.218,0,0,1,22.8,25.15a3.966,3.966,0,0,1,.659,2.266v3.652ZM3.911,28.5H20.889V27.483a1.717,1.717,0,0,0-.271-.913,1.62,1.62,0,0,0-.71-.643,17.326,17.326,0,0,0-3.787-1.386,16.8,16.8,0,0,0-3.721-.406,17.1,17.1,0,0,0-3.72.406,17.147,17.147,0,0,0-3.821,1.386,1.678,1.678,0,0,0-.677.643,1.721,1.721,0,0,0-.27.913ZM12.4,14.328ZM12.4,28.5Z" transform="translate(-1.375 -4.25)"/>
</svg>
