<svg xmlns="http://www.w3.org/2000/svg" width="103" height="103.711" viewBox="0 0 103 103.711">
  <g id="credit" transform="translate(-4955.313 1219.5)">
    <g id="paypay-seeklogo.com" transform="translate(4970.013 -1134.849)">
      <g id="paypay-furima-seeklogo.com-2.svg" transform="translate(0)">
        <path id="パス_415" data-name="パス 415" d="M16.238.124a2.826,2.826,0,0,1,2.819,2.818v13.42a2.826,2.826,0,0,1-2.819,2.818H2.819A2.826,2.826,0,0,1,0,16.362V6.087l.007-3.3A2.826,2.826,0,0,1,2.819.124Z" transform="translate(0 -0.124)" fill="#fff"/>
        <path id="パス_416" data-name="パス 416" d="M1074.817,161.736h-3.377a.557.557,0,0,0-.558.558V172.93h2.378v-3.8h1.557c2.3,0,4.386-1.436,4.386-3.868S1077.118,161.736,1074.817,161.736Zm-1.557,6.246v-5.1s.733,0,1.557,0a2.419,2.419,0,0,1,2.452,2.4,2.7,2.7,0,0,1-2.452,2.7Zm9.993-3.434a6.866,6.866,0,0,0-2.724.441l.219.666a5.2,5.2,0,0,1,2-.313c1.477,0,1.776.716,1.776,1.7l-.02.437a7.429,7.429,0,0,0-1.813-.215,2.866,2.866,0,0,0-2.983,2.96,2.692,2.692,0,0,0,2.8,2.859,3.531,3.531,0,0,0,2.015-.589v.444h2.375v-5.9C1086.909,165.174,1085.056,164.548,1083.253,164.548Zm.1,7.477a1.751,1.751,0,0,1-1.772-1.887,1.839,1.839,0,0,1,1.894-1.786,1.869,1.869,0,0,1,1.056.269V171.5A1.686,1.686,0,0,1,1083.354,172.025Zm9.108,1.92a2.892,2.892,0,0,1-2.442,1.867,8.439,8.439,0,0,1-1.157.037v-1.3c1.06,0,1.635.084,2.26-1.157l.424-1.076-3.9-7.766h2.492l2.559,5.163,2.264-5.163h1.621S1093.185,172.351,1092.461,173.945Zm-44.837-12.209h-3.377a.557.557,0,0,0-.558.558V172.93h2.378v-3.8h1.557c2.3,0,4.386-1.436,4.386-3.868S1049.928,161.736,1047.624,161.736Zm-1.554,6.246v-5.1s.733,0,1.557,0a2.419,2.419,0,0,1,2.452,2.4,2.7,2.7,0,0,1-2.452,2.7Zm9.993-3.434a6.864,6.864,0,0,0-2.724.441l.219.666a5.183,5.183,0,0,1,2-.313c1.476,0,1.776.716,1.776,1.7l-.02.437a7.433,7.433,0,0,0-1.813-.215,2.868,2.868,0,0,0-2.983,2.96,2.692,2.692,0,0,0,2.8,2.859,3.539,3.539,0,0,0,2.015-.589v.444h2.375v-5.9C1059.716,165.174,1057.863,164.548,1056.063,164.548Zm.1,7.477a1.75,1.75,0,0,1-1.772-1.887,1.839,1.839,0,0,1,1.894-1.786,1.868,1.868,0,0,1,1.056.269V171.5A1.7,1.7,0,0,1,1056.164,172.025Zm9.1,1.92a2.893,2.893,0,0,1-2.442,1.867,8.441,8.441,0,0,1-1.157.037v-1.3c1.059,0,1.635.084,2.26-1.157l.424-1.076-3.905-7.766h2.492l2.559,5.163,2.264-5.163h1.621S1065.992,172.351,1065.269,173.945Z" transform="translate(-1020.687 -158.175)" fill="#3f3a39"/>
        <path id="パス_417" data-name="パス 417" d="M3.71,19.18H2.819A2.826,2.826,0,0,1,0,16.362V6.087a35.779,35.779,0,0,1,6.955-.05ZM15.172,10.3c.447-1.82-2.489-3.5-7.187-4.14l-1.705,7.1C10.218,13.443,14.691,12.255,15.172,10.3ZM16.238.124H2.819A2.826,2.826,0,0,0,.007,2.791c11.237-.316,16.7,3.592,15.845,7.49-.774,3.508-4.339,4.853-10.13,5.3l-.868,3.606H16.238a2.826,2.826,0,0,0,2.819-2.818V2.942A2.826,2.826,0,0,0,16.238.124Z" transform="translate(0 -0.124)" fill="#f03"/>
      </g>
    </g>
    <g id="noun-card-4191783" transform="translate(4956.813 -1218)">
      <path id="パス_418" data-name="パス 418" d="M496.87,333.59a3.125,3.125,0,0,1,3.125,3.125v12.5a3.125,3.125,0,0,1-3.125,3.125h-12.5a3.125,3.125,0,0,1-3.125-3.125v-12.5a3.125,3.125,0,0,1,3.125-3.125Zm-3.125,12.5v-6.25h-6.25v6.25Z" transform="translate(-412.496 -292.965)" stroke="#eff2f1" stroke-width="3" fill-rule="evenodd"/>
      <path id="パス_419" data-name="パス 419" d="M100,58.59a9.375,9.375,0,0,0-9.375-9.375H9.375A9.375,9.375,0,0,0,0,58.59v50a9.375,9.375,0,0,0,9.375,9.375h81.25A9.375,9.375,0,0,0,100,108.59Zm-93.75,50v-25h87.5v25a3.125,3.125,0,0,1-3.125,3.125H9.375A3.125,3.125,0,0,1,6.25,108.59Zm87.5-37.5v6.25H6.25V71.09ZM6.25,64.84h87.5V58.59a3.125,3.125,0,0,0-3.125-3.125H9.375A3.125,3.125,0,0,0,6.25,58.59Z" transform="translate(0 -49.215)" stroke="#eff2f1" stroke-width="3" fill-rule="evenodd"/>
    </g>
    <rect id="長方形_25" data-name="長方形 25" width="55.488" height="12.915" transform="translate(4967.382 -1158.685)" fill="#eff2f1"/>
    <g id="Stripe_Logo__revised_2016" data-name="Stripe_Logo,_revised_2016" transform="translate(4970.013 -1158.081)">
      <path id="パス_409" data-name="パス 409" d="M349.918,73.9c0-3.521-1.705-6.3-4.965-6.3s-5.253,2.778-5.253,6.271c0,4.139,2.338,6.23,5.693,6.23a7.668,7.668,0,0,0,3.809-.894v-2.75a7.3,7.3,0,0,1-3.369.756c-1.334,0-2.517-.468-2.668-2.09h6.725C349.891,74.944,349.918,74.229,349.918,73.9Zm-6.794-1.306c0-1.554.949-2.2,1.815-2.2.839,0,1.733.646,1.733,2.2Z" transform="translate(-300.409 -63.254)" fill="#635bff" fill-rule="evenodd"/>
      <path id="パス_410" data-name="パス 410" d="M264.1,67.6a3.885,3.885,0,0,0-2.7,1.073l-.179-.853H258.2V83.855l3.438-.729.014-3.892a3.873,3.873,0,0,0,2.434.866c2.462,0,4.7-1.98,4.7-6.34C268.776,69.773,266.506,67.6,264.1,67.6Zm-.825,9.475a2.056,2.056,0,0,1-1.623-.646l-.014-5.1a2.047,2.047,0,0,1,1.637-.674c1.251,0,2.118,1.4,2.118,3.2C265.393,75.7,264.54,77.075,263.275,77.075Z" transform="translate(-230.118 -63.254)" fill="#635bff" fill-rule="evenodd"/>
      <path id="パス_411" data-name="パス 411" d="M223.8,39.534l3.452-.743V36l-3.452.729Z" transform="translate(-200.448 -36)" fill="#635bff" fill-rule="evenodd"/>
      <rect id="長方形_24" data-name="長方形 24" width="3.452" height="12.033" transform="translate(23.352 4.58)" fill="#635bff"/>
      <path id="パス_412" data-name="パス 412" d="M176.891,69.426l-.22-1.018H173.7V80.442h3.438V72.287a2.425,2.425,0,0,1,2.613-.715V68.409A2.334,2.334,0,0,0,176.891,69.426Z" transform="translate(-157.238 -63.829)" fill="#635bff" fill-rule="evenodd"/>
      <path id="パス_413" data-name="パス 413" d="M125.769,47.6l-3.356.715L122.4,59.331a3.456,3.456,0,0,0,3.562,3.534,5.312,5.312,0,0,0,2.407-.454V59.62c-.44.179-2.613.811-2.613-1.224V53.514h2.613V50.584h-2.613Z" transform="translate(-112.993 -46.005)" fill="#635bff" fill-rule="evenodd"/>
      <path id="パス_414" data-name="パス 414" d="M57.479,71.327c0-.536.44-.743,1.169-.743a7.671,7.671,0,0,1,3.411.88V68.233a9.069,9.069,0,0,0-3.411-.633C55.857,67.6,54,69.058,54,71.492c0,3.8,5.226,3.191,5.226,4.827,0,.633-.55.839-1.32.839a8.56,8.56,0,0,1-3.754-1.1v3.273a9.533,9.533,0,0,0,3.754.784c2.86,0,4.827-1.416,4.827-3.878C62.719,72.138,57.479,72.867,57.479,71.327Z" transform="translate(-54 -63.254)" fill="#635bff" fill-rule="evenodd"/>
    </g>
  </g>
</svg>
