<svg xmlns="http://www.w3.org/2000/svg" width="100.7" height="94.088" viewBox="0 0 100.7 94.088">
  <g id="gmap" transform="translate(-69.658 -18.158)">
    <path id="パス_433" data-name="パス 433" d="M165.143,28.708H103a12.471,12.471,0,0,0-24.525,0h-3.6a4.865,4.865,0,0,0-4.863,4.863v73.461a4.865,4.865,0,0,0,4.863,4.863h90.274a4.865,4.865,0,0,0,4.863-4.863V33.569a4.865,4.865,0,0,0-4.863-4.863Zm1.737,57.621h-2.769c.042-.211.063-.421.095-.631.021-.158.052-.316.074-.474a13.171,13.171,0,0,0,.084-1.442,11.892,11.892,0,0,0-.084-1.379c-.021-.147-.042-.3-.063-.442-.042-.306-.095-.6-.158-.895-.042-.168-.084-.337-.126-.495-.074-.263-.147-.527-.232-.79-.052-.168-.116-.337-.179-.495-.095-.253-.2-.495-.316-.737-.074-.158-.147-.316-.221-.463q-.189-.363-.411-.726c-.084-.137-.158-.273-.253-.411-.168-.263-.358-.515-.548-.769-.074-.095-.137-.19-.211-.284a12.378,12.378,0,0,0-.874-.958,1.364,1.364,0,0,1-.179-.168q-.379-.363-.79-.695c-.031-.021-.052-.052-.084-.074h7.242Zm-9.842,11.115c.253.063.505.126.737.19.19.052.389.105.568.168.232.074.442.147.642.232.158.063.326.116.463.179.2.084.368.168.548.263.126.063.263.126.379.19.158.095.306.179.442.273.095.063.2.126.284.19a3.107,3.107,0,0,1,.326.284c.063.063.137.116.19.179a2.4,2.4,0,0,1,.221.3,1.074,1.074,0,0,1,.095.137.83.83,0,0,1,.105.389c0,1.41-4.053,3.548-10.147,3.548s-10.158-2.137-10.158-3.548a.935.935,0,0,1,.105-.389,1.076,1.076,0,0,1,.095-.137,1.806,1.806,0,0,1,.221-.3c.052-.052.126-.116.19-.179.105-.095.2-.19.326-.284.084-.063.19-.126.284-.19.137-.095.273-.179.432-.273.116-.063.253-.126.379-.19.168-.084.347-.168.537-.253.147-.063.316-.126.474-.19.2-.074.411-.158.631-.232.179-.063.379-.116.568-.168.232-.063.484-.126.737-.19.211-.052.442-.095.663-.137.137-.031.3-.052.432-.074l2.905,3.105a1.559,1.559,0,0,0,1.147.495,1.579,1.579,0,0,0,1.147-.495l2.905-3.105c.147.021.3.052.432.074.262.042.483.084.693.137Zm-.137-5.757a1.782,1.782,0,0,0-.306.253l-2.368,2.537-.042.042L151.89,96.97l-2.337-2.506-.537-.589h-.01L147.2,91.938l-.306-.253a10.82,10.82,0,0,1-.968-.705,9.365,9.365,0,0,1-2.7-3.695,2.385,2.385,0,0,1-.084-.253c-.095-.253-.179-.505-.253-.769-.031-.105-.052-.221-.084-.337-.063-.253-.105-.505-.147-.758-.01-.105-.031-.211-.042-.306a9.357,9.357,0,1,1,18.651-1.084c0,.358-.031.726-.063,1.074-.01.105-.031.211-.042.326-.042.253-.084.495-.137.737-.031.116-.052.232-.084.358-.074.253-.147.495-.242.747-.031.095-.063.179-.095.273a9.518,9.518,0,0,1-3.694,4.392Zm-2.368-20.8V55.529H166.88V70.887ZM166.88,33.571V36.96H116.091V31.834h49.053a1.732,1.732,0,0,1,1.737,1.737ZM90.733,21.634A9.359,9.359,0,0,1,95.743,38.9a1.783,1.783,0,0,0-.306.253l-2.411,2.579L90.8,44.118l-.052.063L88.427,41.7l-.537-.621h-.031l-1.705-1.832-.105-.116-.306-.253a9.346,9.346,0,0,1,4.99-17.242Zm-1.4,29.484c-5.316-.3-8.758-2.2-8.758-3.505a.935.935,0,0,1,.105-.389c.021-.042.074-.095.095-.147a2.4,2.4,0,0,1,.221-.3,1.668,1.668,0,0,1,.2-.179c.105-.095.2-.19.326-.284.084-.063.19-.126.284-.19.137-.095.273-.179.432-.273.116-.063.253-.126.379-.19.168-.084.347-.168.537-.253.147-.063.316-.126.474-.19.211-.074.421-.158.642-.232.179-.063.368-.116.568-.168.242-.063.484-.137.747-.19.211-.052.432-.095.663-.137.137-.031.3-.052.442-.074L89.6,47.539a1.566,1.566,0,0,0,2.284,0l2.905-3.105.158.031c.116.021.242.042.358.063.2.042.4.084.579.126s.358.095.537.137a2.278,2.278,0,0,1,.263.074c.179.052.347.095.515.147a5.165,5.165,0,0,1,.495.179c.063.021.116.042.179.063.147.052.306.116.442.168.158.074.306.137.453.211.031.021.074.031.105.052.116.063.253.116.358.179.147.084.263.158.389.242a.231.231,0,0,1,.063.042c.095.063.19.126.273.179.116.095.211.179.306.263.01.01.021.01.021.021.063.052.137.116.19.168a1.682,1.682,0,0,1,.211.284l.01.01a1.075,1.075,0,0,1,.095.137.83.83,0,0,1,.105.389c0,1.41-4.053,3.548-10.147,3.548-.486.011-.949-.01-1.413-.031ZM74.87,31.823h3.41c.01.126.031.253.052.379.021.232.052.453.084.674.042.273.095.548.158.811.052.221.095.432.158.653q.111.394.253.79c.074.211.147.411.232.621q.158.379.347.758c.095.19.19.389.3.579.137.242.3.484.453.716.116.179.221.358.347.527.179.242.368.463.558.695.126.147.242.306.379.453.221.242.474.463.716.695.126.116.242.232.368.347a11.385,11.385,0,0,0,1.21.905l.316.337-.116.031a2.686,2.686,0,0,0-.284.084c-.19.052-.379.116-.568.179a2.448,2.448,0,0,0-.3.105c-.179.063-.347.126-.515.19-.095.031-.179.074-.273.105-.19.074-.368.158-.548.242-.063.031-.126.052-.179.084-.232.116-.453.221-.663.347l-.158.095c-.158.095-.306.179-.453.273a1.447,1.447,0,0,0-.22.124c-.126.084-.242.168-.358.263l-.19.158-.316.284c-.052.052-.105.095-.158.147-.116.116-.232.242-.337.368-.021.031-.052.052-.074.084a3.471,3.471,0,0,0-.337.463c-.031.042-.052.095-.084.137a2.846,2.846,0,0,0-.19.347c-.031.063-.052.116-.084.179a2.1,2.1,0,0,0-.126.326c-.021.063-.042.126-.063.19a3.583,3.583,0,0,0-.084.358c-.01.052-.021.116-.031.168a4.641,4.641,0,0,0-.042.537c0,3.242,4.158,5.79,10.063,6.484V70.886H73.133V33.57a1.748,1.748,0,0,1,1.737-1.747Zm-1.737,75.21V89.454h39.935v19.327h-38.2a1.748,1.748,0,0,1-1.737-1.747Zm43.062,1.747V87.9a1.554,1.554,0,0,0-1.558-1.558h-41.5V74.013H89.09a1.554,1.554,0,0,0,1.558-1.558V54.286h.084c7.568,0,13.273-2.863,13.273-6.663a3.1,3.1,0,0,0-.042-.537c-.01-.052-.021-.116-.031-.168-.021-.116-.052-.242-.084-.358-.021-.063-.042-.126-.063-.19-.042-.116-.084-.221-.126-.326a1.3,1.3,0,0,0-.084-.179c-.063-.116-.126-.232-.2-.347-.031-.042-.052-.095-.084-.137a4.86,4.86,0,0,0-.347-.463c-.021-.021-.042-.052-.063-.074a3.816,3.816,0,0,0-.347-.368c-.052-.052-.105-.095-.158-.147-.105-.095-.211-.19-.326-.284a2.324,2.324,0,0,0-.19-.147,4.333,4.333,0,0,0-.358-.263c-.063-.042-.137-.095-.2-.137-.147-.095-.306-.19-.463-.284-.052-.031-.095-.063-.147-.095q-.316-.174-.663-.347c-.063-.031-.126-.052-.179-.084-.179-.084-.358-.158-.548-.242-.095-.042-.179-.074-.273-.105-.168-.063-.337-.126-.515-.19-.105-.031-.2-.074-.306-.105-.179-.063-.368-.116-.558-.168-.095-.031-.19-.052-.3-.084-.042-.01-.074-.021-.105-.031l.316-.337a10.659,10.659,0,0,0,1.094-.821c.042-.031.074-.063.116-.095.095-.074.179-.168.263-.242.211-.19.421-.379.61-.579.063-.074.137-.137.2-.211s.147-.168.221-.263c.158-.179.316-.358.463-.548.084-.116.179-.221.263-.337l.158-.221c.126-.179.242-.368.358-.548.095-.147.179-.3.263-.442.031-.063.074-.116.105-.168,0-.01.01-.01.01-.021.105-.2.19-.4.284-.6.063-.137.137-.263.19-.4a2.829,2.829,0,0,0,.105-.263c.052-.137.095-.273.147-.411.063-.168.126-.337.179-.505a.148.148,0,0,0,.021-.063c.031-.116.063-.242.095-.358.042-.158.55-2.337.581-2.495.031-.126,9.6.126,9.63,0V38.55a1.554,1.554,0,0,0,1.558,1.558h52.346V52.424h-13.85a1.554,1.554,0,0,0-1.558,1.558V71.328c-.137.01-.273.031-.411.031-.2.01-.4.031-.589.052-.211.021-.432.063-.642.095-.19.031-.389.063-.579.105-.211.042-.411.105-.621.158-.19.052-.368.105-.558.158a5.681,5.681,0,0,0-.589.221c-.179.074-.358.137-.537.211s-.379.179-.558.273-.337.168-.505.263-.358.211-.527.326-.326.2-.474.306c-.168.116-.337.242-.495.368s-.306.232-.442.347c-.158.137-.306.273-.463.421-.137.126-.273.253-.411.389s-.284.306-.421.463c-.126.137-.253.273-.368.411-.137.168-.253.337-.379.505-.105.147-.221.3-.326.442-.116.179-.221.368-.337.548-.095.158-.19.306-.273.474-.105.19-.19.389-.284.589-.074.158-.158.326-.232.484-.084.211-.158.432-.232.642-.063.168-.126.326-.179.495-.074.232-.126.474-.179.716-.042.158-.084.316-.116.474-.052.263-.084.548-.126.821q-.031.205-.063.411a12.451,12.451,0,0,0-.063,1.263,13,13,0,0,0,.084,1.442.515.515,0,0,0,.01.126c.01.116.042.221.063.337.031.211.052.432.095.642h-9.6A1.554,1.554,0,0,0,128.53,87.9v20.885Zm48.948,0h-33.5V89.454h9.148a12.464,12.464,0,0,0,4.253,4.758l.316.337c-.042.01-.074.021-.105.031-.105.031-.2.052-.3.084-.19.052-.368.116-.548.168-.105.031-.211.074-.306.105l-.505.19c-.095.031-.19.074-.273.105-.179.074-.358.158-.537.232-.063.031-.126.052-.19.084-.232.116-.453.221-.663.347l-.158.095c-.158.095-.306.179-.453.273-.074.042-.137.095-.2.137-.126.084-.242.168-.358.263l-.19.158q-.174.142-.316.284c-.052.052-.105.095-.158.147a3.693,3.693,0,0,0-.337.368l-.074.074a4.858,4.858,0,0,0-.347.463c-.031.042-.052.095-.084.137a2.845,2.845,0,0,0-.19.347c-.031.063-.052.116-.084.179a2.1,2.1,0,0,0-.126.326c-.021.063-.042.126-.063.19a3.581,3.581,0,0,0-.084.358c-.01.052-.021.116-.031.168a4.643,4.643,0,0,0-.042.537c0,3.8,5.705,6.673,13.273,6.673s13.273-2.863,13.273-6.673a3.1,3.1,0,0,0-.042-.537c-.01-.052-.021-.116-.031-.168-.021-.116-.052-.242-.084-.358-.021-.063-.042-.126-.063-.19-.042-.105-.084-.221-.126-.326-.031-.063-.052-.116-.084-.179-.052-.116-.126-.232-.19-.347-.031-.042-.052-.095-.084-.137-.105-.158-.221-.316-.337-.463-.021-.031-.052-.052-.074-.084-.105-.126-.221-.242-.337-.368-.052-.052-.105-.095-.158-.147l-.316-.284-.19-.158c-.116-.084-.232-.179-.358-.263-.063-.042-.137-.095-.2-.137-.147-.095-.305-.19-.453-.284l-.158-.095q-.316-.174-.663-.347c-.063-.031-.126-.052-.179-.084-.179-.084-.358-.158-.548-.242-.084-.031-.179-.074-.273-.105-.168-.063-.337-.126-.515-.19-.095-.031-.2-.074-.306-.105-.179-.063-.368-.116-.558-.168-.095-.031-.19-.052-.3-.084l-.116-.031.316-.337a12.383,12.383,0,0,0,4.253-4.758h3.873V107a1.765,1.765,0,0,1-1.744,1.779ZM139.091,72.443V53.96a1.554,1.554,0,0,0-1.558-1.558h-33a1.554,1.554,0,0,0-1.558,1.558V72.443A1.554,1.554,0,0,0,104.534,74h32.989a1.556,1.556,0,0,0,1.568-1.558Zm-3.126-1.558H106.092V55.528h29.873ZM90.733,36.865a5.879,5.879,0,1,0-5.884-5.884A5.894,5.894,0,0,0,90.733,36.865Zm0-8.642a2.758,2.758,0,1,1-2.758,2.758A2.761,2.761,0,0,1,90.733,28.223Zm61.156,49.683a5.879,5.879,0,1,0,5.884,5.884A5.894,5.894,0,0,0,151.889,77.906Zm0,8.631a2.758,2.758,0,1,1,2.758-2.758A2.761,2.761,0,0,1,151.889,86.537Z" stroke="#000" stroke-width="0.7"/>
  </g>
</svg>
