<svg xmlns="http://www.w3.org/2000/svg" width="98.135" height="69.091" viewBox="0 0 98.135 69.091">
  <g id="googlepartner" transform="translate(-27.113 -37.573)">
    <path id="パス_496" data-name="パス 496" d="M97.009,59.66a25.5,25.5,0,0,0-.49-4.418H76.395v8.344H87.684a9.681,9.681,0,0,1-4.066,6.529v5.437H90.6c4.067-3.76,6.406-9.319,6.406-15.892Z" fill="#4284f4"/>
    <path id="パス_497" data-name="パス 497" d="M76.333,80.765A20.572,20.572,0,0,0,90.6,75.552l-6.985-5.437a12.977,12.977,0,0,1-19.341-6.84H57.094v5.591a21.519,21.519,0,0,0,19.239,11.9Z" fill="#34a853"/>
    <path id="パス_498" data-name="パス 498" d="M64.277,63.275a12.938,12.938,0,0,1,0-8.213v-5.59H57.094a21.634,21.634,0,0,0,0,19.394l7.183-5.591Z" fill="#fbbc04"/>
    <path id="パス_499" data-name="パス 499" d="M76.333,46.162a11.644,11.644,0,0,1,8.235,3.229L90.74,43.2a20.643,20.643,0,0,0-14.407-5.629,21.519,21.519,0,0,0-19.239,11.9l7.183,5.59a12.845,12.845,0,0,1,12.056-8.9Z" fill="#ea4335"/>
    <g id="Layer_3" data-name="Layer 3">
      <g id="グループ_115" data-name="グループ 115">
        <path id="パス_500" data-name="パス 500" d="M29.884,102.75a5.2,5.2,0,0,1-1.931-1.931,5.518,5.518,0,0,1,0-5.433,5.251,5.251,0,0,1,4.59-2.631,5.632,5.632,0,0,1,2.124.4A4.284,4.284,0,0,1,36.3,94.284l-.872.873a3.17,3.17,0,0,0-1.245-.923,4.149,4.149,0,0,0-1.629-.321,4.089,4.089,0,0,0-2.024.522,3.97,3.97,0,0,0-1.5,1.472,4.548,4.548,0,0,0,0,4.391,3.951,3.951,0,0,0,1.509,1.473,4.423,4.423,0,0,0,3.739.2,3.873,3.873,0,0,0,1.194-.851,3.149,3.149,0,0,0,.6-.966,4.23,4.23,0,0,0,.286-1.251H32.572v-1.13h4.919a4.226,4.226,0,0,1,.071.745,5.729,5.729,0,0,1-.3,1.836,4.065,4.065,0,0,1-.958,1.567,4.883,4.883,0,0,1-3.761,1.529A5.229,5.229,0,0,1,29.884,102.75Z" fill="#5f6368" stroke="#5f6368" stroke-miterlimit="10" stroke-width="0.25"/>
        <path id="パス_501" data-name="パス 501" d="M40.572,102.936a3.591,3.591,0,0,1-1.337-1.4,4.245,4.245,0,0,1,0-3.918,3.6,3.6,0,0,1,1.337-1.4,3.876,3.876,0,0,1,3.861,0,3.609,3.609,0,0,1,1.337,1.4,4.245,4.245,0,0,1,0,3.918,3.6,3.6,0,0,1-1.337,1.4,3.882,3.882,0,0,1-3.861,0Zm3.181-.922a2.487,2.487,0,0,0,.93-.966,3.272,3.272,0,0,0,0-2.945,2.477,2.477,0,0,0-.93-.965A2.438,2.438,0,0,0,42.5,96.8a2.482,2.482,0,0,0-2.194,1.3,3.264,3.264,0,0,0,0,2.945,2.466,2.466,0,0,0,.936.966,2.5,2.5,0,0,0,1.258.336A2.457,2.457,0,0,0,43.753,102.014Z" fill="#5f6368" stroke="#5f6368" stroke-miterlimit="10" stroke-width="0.25"/>
        <path id="パス_502" data-name="パス 502" d="M49.08,102.936a3.591,3.591,0,0,1-1.337-1.4,4.245,4.245,0,0,1,0-3.918,3.6,3.6,0,0,1,1.337-1.4,3.876,3.876,0,0,1,3.861,0,3.609,3.609,0,0,1,1.337,1.4,4.245,4.245,0,0,1,0,3.918,3.6,3.6,0,0,1-1.337,1.4,3.882,3.882,0,0,1-3.861,0Zm3.182-.922a2.484,2.484,0,0,0,.929-.966,3.264,3.264,0,0,0,0-2.945,2.475,2.475,0,0,0-.929-.965,2.443,2.443,0,0,0-1.251-.336,2.482,2.482,0,0,0-2.195,1.3,3.264,3.264,0,0,0,0,2.945,2.466,2.466,0,0,0,.936.966,2.5,2.5,0,0,0,1.259.336A2.463,2.463,0,0,0,52.262,102.014Z" fill="#5f6368" stroke="#5f6368" stroke-miterlimit="10" stroke-width="0.25"/>
        <path id="パス_503" data-name="パス 503" d="M57.238,105.938a2.931,2.931,0,0,1-1.123-1.444l1.1-.472a2.184,2.184,0,0,0,.808,1.023,2.285,2.285,0,0,0,1.337.393,2.353,2.353,0,0,0,1.752-.63,2.461,2.461,0,0,0,.622-1.8v-.815h-.057a2.689,2.689,0,0,1-1.009.909,3.075,3.075,0,0,1-1.48.349,3.168,3.168,0,0,1-1.722-.491,3.478,3.478,0,0,1-1.238-1.374,4.631,4.631,0,0,1,0-4.012,3.472,3.472,0,0,1,1.238-1.381,3.161,3.161,0,0,1,1.722-.492,3.065,3.065,0,0,1,1.48.351,2.623,2.623,0,0,1,1.009.922h.057V95.929h1.158v7.007a3.523,3.523,0,0,1-.972,2.681,4.03,4.03,0,0,1-4.683.321Zm3.317-3.922a2.375,2.375,0,0,0,.858-.959,3.2,3.2,0,0,0,.322-1.482,3.238,3.238,0,0,0-.322-1.5,2.326,2.326,0,0,0-.858-.951,2.338,2.338,0,0,0-2.4.008,2.359,2.359,0,0,0-.865.958,3.2,3.2,0,0,0-.322,1.481,3.249,3.249,0,0,0,.322,1.489,2.256,2.256,0,0,0,2.066,1.286A2.216,2.216,0,0,0,60.555,102.016Z" fill="#5f6368" stroke="#5f6368" stroke-miterlimit="10" stroke-width="0.25"/>
        <path id="パス_504" data-name="パス 504" d="M64.681,92.983H65.9v10.239H64.681Z" fill="#5f6368" stroke="#5f6368" stroke-miterlimit="10" stroke-width="0.25"/>
        <path id="パス_505" data-name="パス 505" d="M69.07,102.95a3.484,3.484,0,0,1-1.294-1.38,4.171,4.171,0,0,1-.464-1.98,4.344,4.344,0,0,1,.436-1.945,3.534,3.534,0,0,1,1.237-1.416,3.3,3.3,0,0,1,1.859-.529,3.5,3.5,0,0,1,1.859.48A3.179,3.179,0,0,1,73.911,97.5a4.262,4.262,0,0,1,.422,1.931,1.449,1.449,0,0,1-.043.371H68.527a2.889,2.889,0,0,0,.4,1.4,2.328,2.328,0,0,0,.908.858,2.464,2.464,0,0,0,1.152.287,2.373,2.373,0,0,0,2.159-1.316l1.029.5a3.664,3.664,0,0,1-1.279,1.4,3.862,3.862,0,0,1-3.826.014ZM73.046,98.8a2.393,2.393,0,0,0-.258-.915,1.946,1.946,0,0,0-.722-.772,2.256,2.256,0,0,0-1.237-.314,2.053,2.053,0,0,0-1.451.55A2.637,2.637,0,0,0,68.6,98.8Z" fill="#5f6368" stroke="#5f6368" stroke-miterlimit="10" stroke-width="0.25"/>
        <path id="パス_506" data-name="パス 506" d="M78.735,92.983h3.447a3.35,3.35,0,0,1,1.588.386,3.033,3.033,0,0,1,1.165,1.08,3.03,3.03,0,0,1,0,3.132A3.039,3.039,0,0,1,83.77,98.66a3.338,3.338,0,0,1-1.588.386H79.937v4.176h-1.2Zm3.476,4.9a1.86,1.86,0,0,0,1.008-.272,1.941,1.941,0,0,0,.678-.7,1.786,1.786,0,0,0,0-1.8,1.96,1.96,0,0,0-.678-.7,1.868,1.868,0,0,0-1.008-.271H79.937v3.746Z" fill="#5f6368" stroke="#5f6368" stroke-miterlimit="10" stroke-width="0.25"/>
        <path id="パス_507" data-name="パス 507" d="M87.816,103.136a2.348,2.348,0,0,1-.972-.865,2.316,2.316,0,0,1-.343-1.251,2.13,2.13,0,0,1,.872-1.809,3.578,3.578,0,0,1,2.2-.65A4.992,4.992,0,0,1,90.8,98.7a3.184,3.184,0,0,1,.865.329v-.443a1.644,1.644,0,0,0-.572-1.309,2.131,2.131,0,0,0-1.445-.493,2.424,2.424,0,0,0-1.129.265,2.064,2.064,0,0,0-.815.736l-.915-.686a2.919,2.919,0,0,1,1.18-1.03,3.7,3.7,0,0,1,1.666-.372,3.335,3.335,0,0,1,2.338.779,2.743,2.743,0,0,1,.85,2.124v4.619H91.663v-1.044h-.058a2.61,2.61,0,0,1-.943.9,2.738,2.738,0,0,1-1.416.371A3.149,3.149,0,0,1,87.816,103.136Zm2.689-1.073a2.392,2.392,0,0,0,.844-.843,2.232,2.232,0,0,0,.314-1.158,3.008,3.008,0,0,0-.844-.373,3.884,3.884,0,0,0-1.058-.142,2.338,2.338,0,0,0-1.508.415,1.319,1.319,0,0,0-.508,1.072,1.19,1.19,0,0,0,.457.972,1.78,1.78,0,0,0,1.158.372A2.2,2.2,0,0,0,90.5,102.063Z" fill="#5f6368" stroke="#5f6368" stroke-miterlimit="10" stroke-width="0.25"/>
        <path id="パス_508" data-name="パス 508" d="M94.308,96.043h1.159V97.2h.056a1.977,1.977,0,0,1,.873-1,2.631,2.631,0,0,1,1.344-.358,2.726,2.726,0,0,1,.529.043V97.13a3.01,3.01,0,0,0-.658-.057,1.974,1.974,0,0,0-1.508.615,2.242,2.242,0,0,0-.58,1.6v4.047H94.308Zm7.4,7.262a1.877,1.877,0,0,1-.637-.393,1.793,1.793,0,0,1-.428-.641,2.423,2.423,0,0,1-.143-.888V97.03H99.228v-1.1H100.5V93.87h1.215v2.059h1.773v1.1h-1.773v4.063a1.46,1.46,0,0,0,.229.906.969.969,0,0,0,.786.322,1.484,1.484,0,0,0,.8-.243v1.187a1.867,1.867,0,0,1-.436.142,2.943,2.943,0,0,1-.565.043A2.3,2.3,0,0,1,101.708,103.305Z" fill="#5f6368" stroke="#5f6368" stroke-miterlimit="10" stroke-width="0.25"/>
        <path id="パス_509" data-name="パス 509" d="M104.875,95.929h1.159V97h.057a2.453,2.453,0,0,1,.958-.923,2.766,2.766,0,0,1,1.4-.379,2.573,2.573,0,0,1,2.009.765,2.982,2.982,0,0,1,.694,2.081v4.676h-1.216V98.731a1.943,1.943,0,0,0-.486-1.472,1.862,1.862,0,0,0-1.33-.457,1.776,1.776,0,0,0-1.051.328,2.218,2.218,0,0,0-.721.865,2.561,2.561,0,0,0-.258,1.123v4.1h-1.216Z" fill="#5f6368" stroke="#5f6368" stroke-miterlimit="10" stroke-width="0.25"/>
        <path id="パス_510" data-name="パス 510" d="M114.27,102.95a3.471,3.471,0,0,1-1.294-1.38,4.171,4.171,0,0,1-.465-1.98,4.344,4.344,0,0,1,.436-1.945,3.519,3.519,0,0,1,1.237-1.416,3.3,3.3,0,0,1,1.859-.529,3.494,3.494,0,0,1,1.858.48A3.168,3.168,0,0,1,119.11,97.5a4.262,4.262,0,0,1,.422,1.931,1.406,1.406,0,0,1-.043.371h-5.762a2.878,2.878,0,0,0,.4,1.4,2.322,2.322,0,0,0,.908.858,2.457,2.457,0,0,0,1.151.287,2.373,2.373,0,0,0,2.159-1.316l1.03.5a3.674,3.674,0,0,1-1.28,1.4,3.86,3.86,0,0,1-3.825.014Zm3.975-4.147a2.358,2.358,0,0,0-.258-.915,1.943,1.943,0,0,0-.721-.772,2.26,2.26,0,0,0-1.238-.314,2.055,2.055,0,0,0-1.451.55A2.65,2.65,0,0,0,113.8,98.8Z" fill="#5f6368" stroke="#5f6368" stroke-miterlimit="10" stroke-width="0.25"/>
        <path id="パス_511" data-name="パス 511" d="M120.933,95.929h1.159V97.1h.056a1.989,1.989,0,0,1,.83-1,2.322,2.322,0,0,1,1.287-.4,2.134,2.134,0,0,1,.858.157v1.3a2.28,2.28,0,0,0-1.03-.229,1.7,1.7,0,0,0-.972.3,2.166,2.166,0,0,0-.708.811,2.332,2.332,0,0,0-.265,1.1v4.085h-1.215Z" fill="#5f6368" stroke="#5f6368" stroke-miterlimit="10" stroke-width="0.25"/>
      </g>
    </g>
  </g>
</svg>
