<svg xmlns="http://www.w3.org/2000/svg" width="90" height="87.35" viewBox="0 0 90 87.35">
  <g id="グループ_129" data-name="グループ 129" transform="translate(-6508 1684)">
    <rect id="長方形_89" data-name="長方形 89" width="90" height="87.35" transform="translate(6508 -1684)" fill="none"/>
    <path id="icon-dummy" d="M39.056,31.545h7.511V20.278H57.833V12.767H46.567V1.5H39.056V12.767H27.789v7.511H39.056Zm-15.022,33.8a7.511,7.511,0,1,0,7.511,7.511A7.5,7.5,0,0,0,24.033,65.345Zm37.556,0A7.511,7.511,0,1,0,69.1,72.856,7.5,7.5,0,0,0,61.589,65.345ZM24.672,53.139l.113-.451,3.38-6.122H56.143A7.476,7.476,0,0,0,62.716,42.7l14.5-26.326-6.535-3.605H70.64l-4.131,7.511L56.143,39.056H29.779l-.488-1.014L20.879,20.278l-3.568-7.511-3.53-7.511H1.5v7.511H9.011l13.52,28.5-5.07,9.2a7.261,7.261,0,0,0-.939,3.605,7.533,7.533,0,0,0,7.511,7.511H69.1V54.078H25.611A.954.954,0,0,1,24.672,53.139Z" transform="translate(6514 -1681)" stroke="#fff" stroke-linecap="round" stroke-linejoin="round" stroke-width="2.5"/>
  </g>
</svg>
