<svg xmlns="http://www.w3.org/2000/svg" xmlns:xlink="http://www.w3.org/1999/xlink" width="920.955" height="738" viewBox="0 0 920.955 738">
  <defs>
    <filter id="base" x="0" y="76.244" width="378.656" height="629.965" filterUnits="userSpaceOnUse">
      <feOffset dx="-10" dy="22" input="SourceAlpha"/>
      <feGaussianBlur stdDeviation="17" result="blur"/>
      <feFlood flood-opacity="0.102"/>
      <feComposite operator="in" in2="blur"/>
      <feComposite in="SourceGraphic"/>
    </filter>
    <clipPath id="clip-path">
      <rect id="Mask" width="319" height="504" fill="none"/>
    </clipPath>
  </defs>
  <g id="intro" transform="translate(-179.832 -1117.325)">
    <g id="shape" transform="translate(239 1117.325)">
      <g id="Background" transform="translate(45)" opacity="0.2">
        <circle id="Oval" cx="230" cy="230" r="230" transform="translate(0 63)" fill="#ff9b21"/>
        <path id="Polygon" d="M49,0,98,49,49,98,0,49Z" transform="translate(143)" fill="#2b44ff"/>
        <path id="Polygon-2" data-name="Polygon" d="M24,0,48,24,24,48,0,24Z" transform="translate(32 690)" fill="#ff9b21"/>
      </g>
      <g id="Figure" transform="translate(0 107)">
        <g id="Group" transform="matrix(0.999, -0.035, 0.035, 0.999, 0, 11.796)">
          <g id="Group-2" data-name="Group" transform="translate(-56.82 -120.85) rotate(0.974)">
            <g transform="matrix(1, 0.02, -0.02, 1, 1.83, -0.02)" filter="url(#base)">
              <rect id="base-2" data-name="base" width="251" height="516" rx="36" transform="translate(61 117.88) rotate(-2.89)" fill="#f2f2f2"/>
            </g>
          </g>
          <path id="Screen" d="M203.974,493.319H24.3A24.28,24.28,0,0,1,0,469.019V24.3A24.28,24.28,0,0,1,24.3,0H53V4.051a13.68,13.68,0,0,0,4.033,9.737,13.68,13.68,0,0,0,9.737,4.033h95.423a13.68,13.68,0,0,0,9.737-4.033,13.68,13.68,0,0,0,4.033-9.737V0h28.011a24.279,24.279,0,0,1,24.3,24.3V469.019a24.28,24.28,0,0,1-24.3,24.3Z" transform="translate(11 11)" fill="#49938b"/>
          <g id="Illustration" transform="translate(11.393 -0.266)">
            <rect id="Mask-2" data-name="Mask" width="319" height="504" fill="none"/>
            <g id="Illustration-2" data-name="Illustration" clip-path="url(#clip-path)">
              <g id="Group_2" data-name="Group 2" transform="translate(-80.811 -134.489) rotate(14)">
                <g id="Head_Front" data-name="Head/Front" transform="matrix(0.848, 0.53, -0.53, 0.848, 325.785, 0.288)">
                  <g id="Head" transform="translate(92.367 52.955)">
                    <path id="Head-2" data-name="Head" d="M0,124.7,14.132,58.915C6.251,49.676.916,38.353,1.807,25.666,4.377-10.89,55.332-2.848,65.243,15.6s8.735,65.251-4.075,68.549c-5.109,1.315-15.992-1.906-27.069-8.574l6.953,49.12Z" fill="#deb793"/>
                  </g>
                  <path id="hair" d="M89.57,92.243c-6.3,0-12.136-4.019-16.441-11.316-4.08-6.916-6.42-16.284-6.42-25.7,0-.657.013-1.333.04-2.008-4.521,3.1-8.8,7.243-12.931,11.251-4.427,4.291-9,8.729-13.992,12.023-5.6,3.7-11.1,5.5-16.8,5.5-6.363,0-12.283-3.27-16.67-9.208A33.516,33.516,0,0,1,0,53.256a26.776,26.776,0,0,1,1.3-8.45,20.333,20.333,0,0,1,4.087-7.189,19.226,19.226,0,0,1,7.149-5,27.631,27.631,0,0,1,10.486-1.873c24.178,0,36,3.488,46.311,8.725A33.218,33.218,0,0,1,78.21,25.654a13.76,13.76,0,0,1,4.08-2.892A19.137,19.137,0,0,1,85.7,21.3c6.391-2.344,15.548-3.88,25.124-4.214,1.345-.047,2.69-.07,4-.07.5,0,1,0,1.49.01a17.1,17.1,0,1,1,18.031,17.111,86.138,86.138,0,0,1-19.134,3.248,35.727,35.727,0,0,1,1.1,9.164,51.645,51.645,0,0,1-.954,9.529,7.971,7.971,0,0,0-5.889-3.127,10.107,10.107,0,0,0-7.4,3.146,10.419,10.419,0,0,0-2.862,7.1,13.166,13.166,0,0,0,2.643,8.333,9.42,9.42,0,0,0,6.883,3.6,45.856,45.856,0,0,1-8.854,12.213C96.4,90.6,92.932,92.243,89.57,92.243Z" transform="translate(11.973 34.164)" fill="#191847"/>
                </g>
                <g id="Bottom_Skinny_Jeans_1" data-name="Bottom/Skinny Jeans 1" transform="translate(0.546 333.278)">
                  <path id="Skirt_Shadow" data-name="Skirt Shadow" d="M0,26.979S61.533,44.2,106.177,44.2s82.936-26.524,82.936-26.524S128.9,0,89.933,0,0,26.979,0,26.979Z" transform="translate(166.567 140.879)" fill="#2c463c"/>
                  <path id="Leg" d="M103.056,201.632a9.683,9.683,0,0,1-1-1.944C96.578,185.177,8.75,28.622,0,0H98.883c6.653,21.762,36.6,158.329,40.81,185.576,13.3,42.979,40.671,182.174,44.165,191.817,3.676,10.144-17.009,20.712-22.521,8.241-8.771-19.844-29.669-74.75-38.974-108.276C113.639,245.927,106.536,217.65,103.056,201.632Z" transform="translate(205.2)" fill="#deb793"/>
                  <path id="Leg-2" data-name="Leg" d="M210.041,220.746c-40.154,10.156-187.028,28.517-197.107,31.4-10.368,2.96-19.459-18.428-6.644-23.061,20.392-7.372,76.581-24.4,110.649-31.355,27.4-5.591,52.407-10.153,69.194-12.824C184.712,137.714,178.21,24.461,182.472,0h87.493c-4.086,23.456-38.629,194.6-45.049,211.736-2.037,6.116-8.117,8.819-14.875,9.01Z" transform="translate(17.316)" fill="#deb793"/>
                  <g id="Left_Shoe" data-name="Left Shoe" transform="translate(66.519 211.329) rotate(79)">
                    <path id="shoe" d="M4.474,5.033A2,2,0,0,0,1.908,6.381L0,13.106A64.24,64.24,0,0,0,.9,21H57.3s2.2-7.268-2.538-7.848-7.87-1.047-7.87-1.047L20.68.419a1,1,0,0,0-1.332.532L17.663,5.039s-4.385,2.046-7.127,2.046Z" transform="translate(1 19)" fill="#e4e4e4"/>
                  </g>
                  <g id="Right_Shoe" data-name="Right Shoe" transform="translate(355.68 340.548)">
                    <path id="shoe-2" data-name="shoe" d="M7.65,8.377a3.42,3.42,0,0,0-4.386,2.308L0,22.192C0,26.821,1.541,35.7,1.541,35.7H97.988s3.759-12.438-4.34-13.43S80.19,20.48,80.19,20.48L35.363.481a1.71,1.71,0,0,0-2.277.911l-2.881,7s-7.5,3.5-12.186,3.5Z" transform="translate(1.71 32.751)" fill="#e4e4e4"/>
                  </g>
                  <path id="Skirt" d="M39.945,7.9s57.833-16.559,109.44,0c11.97,54.654,41.055,76.347,46.17,160.141-58.14,28.91-129.96-20.618-189.81,7.575C-11.355,136.178,12.585,41.207,39.945,7.9Z" transform="translate(160.125 -7.897)" fill="#3b5d50"/>
                </g>
                <g id="Body_Long_Sleeve_1" data-name="Body/Long Sleeve 1" transform="matrix(0.934, 0.358, -0.358, 0.934, 139.534, 108.688)">
                  <path id="Skin" d="M2.1,153.519c-1.909-1.176-4-5.6,1.051-9.061,12.586-8.619,30.723-23.7,33.173-28.667C41.336,105.636,58.4,6.657,58.4,6.657L94.149,6.8S61.044,113.528,58.4,120.057c-3.958,9.8,4.418,24.715,8,32.732-5.645,2.523-8.268-.7-11.139-3.919-3.06-3.433-6.406-6.866-14-3.338-9.716,4.515-17.75,11.681-27.325,11.68A22.239,22.239,0,0,1,2.1,153.519ZM307.77,57.476,257.383,27.81,273.476,0l48.456,47.207q21.147,9.007,34.654,19.894c2.026,2.44,4.23,7.113-5.3,5.023s-19.645-3.863-21.435-.77,3.485,7.836.175,11.887a1.253,1.253,0,0,1-1.015.484q-4.557,0-21.242-26.249Z" transform="translate(58.435 152.239)" fill="#b28b67"/>
                  <path id="Coat_Back" data-name="Coat Back" d="M0,3.811,14.513,0Q60.871,91.6,162.476,160.885l-42.7,62.133C50.133,154.9,4.526,82.332,0,3.811Z" transform="translate(218.754 5.311) rotate(4.992)" fill="#d8a523"/>
                  <path id="Shirt" d="M0,194.734H131.708S85.937,83.6,85.937,5.912L46.208,0C14.984,50.15,6.166,111.895,0,194.734Z" transform="translate(153.944)" fill="#dde3e9"/>
                  <path id="Coat_Front" data-name="Coat Front" d="M0,251.1C14.4,88.819,105.2,0,105.2,0l.031.027L105.249,0h2.594c4.655.16,14.18.577,14.18.577l9.6,27.4c1.524,50.106,17.791,201.958,17.791,201.958H63.2q.22,10.443.993,21.171Z" transform="translate(94.077)" fill="#f9bf29"/>
                  <path id="Shade" d="M24.124,84.553H.106A435.852,435.852,0,0,1,6.6,0a458.752,458.752,0,0,0,5.8,47.292c3.129,16.926,7.073,29.461,11.723,37.258Z" transform="translate(157.188 146.054)" fill="rgba(0,0,0,0.1)"/>
                  <path id="Light" d="M0,19.765,42.573,0V19.765Z" transform="translate(176.37 157.887)" fill="rgba(255,255,255,0.2)"/>
                </g>
              </g>
            </g>
          </g>
        </g>
      </g>
    </g>
    <g id="noun-cube-39539" transform="translate(736.998 1369.03)">
      <path id="パス_309" data-name="パス 309" d="M207.972,108.484a14.69,14.69,0,0,0,13.3,0l66.843-38.79c3.659-2.122,3.654-5.589-.008-7.706L221.283,23.4a14.775,14.775,0,0,0-13.317,0L141.123,62c-3.664,2.114-3.665,5.58-.007,7.7Z" transform="translate(-131.389 -21.815)" fill="#9cc1bd"/>
      <path id="パス_310" data-name="パス 310" d="M199.34,217.082a14.814,14.814,0,0,0-6.652-11.548l-67.049-38.9c-3.659-2.122-6.652-.4-6.652,3.83V248.1a14.769,14.769,0,0,0,6.658,11.534l67.034,38.7c3.664,2.114,6.658.386,6.658-3.845V217.077Z" transform="translate(-118.988 -113.874)" fill="#49938b"/>
      <path id="パス_311" data-name="パス 311" d="M364.648,205.511A14.814,14.814,0,0,0,358,217.059v77.408c0,4.231,3,5.959,6.66,3.845l67.031-38.7a14.77,14.77,0,0,0,6.66-11.534v-77.65c0-4.228-2.994-5.952-6.652-3.83Z" transform="translate(-271.88 -113.851)" fill="#9cc1bd"/>
    </g>
    <g id="noun-cube-39539-2" data-name="noun-cube-39539" transform="translate(965.242 1352.917)">
      <path id="パス_309-2" data-name="パス 309" d="M185.752,80.814a10,10,0,0,0,9.055,0l45.5-26.406c2.491-1.445,2.487-3.8-.006-5.246L194.814,22.894a10.058,10.058,0,0,0-9.066,0l-45.5,26.274c-2.494,1.439-2.495,3.8,0,5.244Z" transform="translate(-133.619 -21.815)" fill="#d3d9ff"/>
      <path id="パス_310-2" data-name="パス 310" d="M173.687,200.686a10.084,10.084,0,0,0-4.528-7.861l-45.643-26.48c-2.491-1.445-4.528-.272-4.528,2.607V221.8a10.054,10.054,0,0,0,4.533,7.852L169.154,256c2.494,1.439,4.533.263,4.533-2.618v-52.7Z" transform="translate(-118.988 -130.428)" fill="#b9bedd"/>
      <path id="パス_311-2" data-name="パス 311" d="M362.524,192.8A10.084,10.084,0,0,0,358,200.659v52.695c0,2.88,2.041,4.057,4.534,2.618l45.631-26.345a10.054,10.054,0,0,0,4.534-7.852v-52.86c0-2.878-2.038-4.052-4.528-2.607Z" transform="translate(-299.373 -130.401)" fill="#d3d9ff"/>
    </g>
    <g id="noun-cube-39539-3" data-name="noun-cube-39539" transform="translate(648 1515.674)">
      <path id="パス_309-3" data-name="パス 309" d="M207.972,108.484a14.69,14.69,0,0,0,13.3,0l66.843-38.79c3.659-2.122,3.654-5.589-.008-7.706L221.283,23.4a14.775,14.775,0,0,0-13.317,0L141.123,62c-3.664,2.114-3.665,5.58-.007,7.7Z" transform="translate(-131.389 -21.815)" fill="#ffd567"/>
      <path id="パス_310-3" data-name="パス 310" d="M199.34,217.082a14.814,14.814,0,0,0-6.652-11.548l-67.049-38.9c-3.659-2.122-6.652-.4-6.652,3.83V248.1a14.769,14.769,0,0,0,6.658,11.534l67.034,38.7c3.664,2.114,6.658.386,6.658-3.845V217.077Z" transform="translate(-118.988 -113.874)" fill="#f9bf29"/>
      <path id="パス_311-3" data-name="パス 311" d="M364.648,205.511A14.814,14.814,0,0,0,358,217.059v77.408c0,4.231,3,5.959,6.66,3.845l67.031-38.7a14.77,14.77,0,0,0,6.66-11.534v-77.65c0-4.228-2.994-5.952-6.652-3.83Z" transform="translate(-271.88 -113.851)" fill="#ffd567"/>
    </g>
    <g id="noun-cube-39539-4" data-name="noun-cube-39539" transform="translate(820.232 1519.998)">
      <path id="パス_309-4" data-name="パス 309" d="M207.972,108.484a14.69,14.69,0,0,0,13.3,0l66.843-38.79c3.659-2.122,3.654-5.589-.008-7.706L221.283,23.4a14.775,14.775,0,0,0-13.317,0L141.123,62c-3.664,2.114-3.665,5.58-.007,7.7Z" transform="translate(-131.389 -21.815)" fill="#cacecc"/>
      <path id="パス_310-4" data-name="パス 310" d="M199.34,217.082a14.814,14.814,0,0,0-6.652-11.548l-67.049-38.9c-3.659-2.122-6.652-.4-6.652,3.83V248.1a14.769,14.769,0,0,0,6.658,11.534l67.034,38.7c3.664,2.114,6.658.386,6.658-3.845V217.077Z" transform="translate(-118.988 -113.874)" fill="#b4b7b7"/>
      <path id="パス_311-4" data-name="パス 311" d="M364.648,205.511A14.814,14.814,0,0,0,358,217.059v77.408c0,4.231,3,5.959,6.66,3.845l67.031-38.7a14.77,14.77,0,0,0,6.66-11.534v-77.65c0-4.228-2.994-5.952-6.652-3.83Z" transform="translate(-271.88 -113.851)" fill="#cacecc"/>
    </g>
    <g id="noun-cube-39539-5" data-name="noun-cube-39539" transform="translate(608 1753.419)">
      <path id="パス_309-5" data-name="パス 309" d="M171.821,63.466a7.06,7.06,0,0,0,6.392,0l32.123-18.642c1.759-1.02,1.756-2.686,0-3.7L178.218,22.577a7.1,7.1,0,0,0-6.4,0L139.7,41.125c-1.761,1.016-1.761,2.682,0,3.7Z" transform="translate(-135.017 -21.815)" fill="#ffead1"/>
      <path id="パス_310-5" data-name="パス 310" d="M157.6,190.406a7.119,7.119,0,0,0-3.2-5.55l-32.222-18.694c-1.759-1.02-3.2-.192-3.2,1.84V205.31a7.1,7.1,0,0,0,3.2,5.543l32.215,18.6c1.761,1.016,3.2.185,3.2-1.848V190.4Z" transform="translate(-118.988 -140.807)" fill="#f2d3ae"/>
      <path id="パス_311-5" data-name="パス 311" d="M361.192,184.827a7.119,7.119,0,0,0-3.2,5.55v37.2c0,2.033,1.441,2.864,3.2,1.848l32.213-18.6a7.1,7.1,0,0,0,3.2-5.543V167.967c0-2.032-1.439-2.86-3.2-1.84Z" transform="translate(-316.61 -140.777)" fill="#ffead1"/>
    </g>
    <g id="noun-cube-39539-6" data-name="noun-cube-39539" transform="translate(608 1410.71)">
      <path id="パス_309-6" data-name="パス 309" d="M164.053,53.792a5.42,5.42,0,0,0,4.908,0L193.624,39.48c1.35-.783,1.348-2.062,0-2.843L168.964,22.4a5.451,5.451,0,0,0-4.914,0L139.388,36.64c-1.352.78-1.352,2.059,0,2.842Z" transform="translate(-135.797 -21.815)" fill="#f8f8f8"/>
      <path id="パス_310-6" data-name="パス 310" d="M148.635,184.674a5.466,5.466,0,0,0-2.454-4.261l-24.738-14.352c-1.35-.783-2.454-.147-2.454,1.413v28.643a5.449,5.449,0,0,0,2.457,4.256l24.733,14.279c1.352.78,2.457.142,2.457-1.419v-28.56Z" transform="translate(-118.988 -146.595)" fill="#e6e6e6"/>
      <path id="パス_311-6" data-name="パス 311" d="M360.45,180.382a5.466,5.466,0,0,0-2.45,4.261V213.2c0,1.561,1.106,2.2,2.457,1.419l24.732-14.279a5.449,5.449,0,0,0,2.457-4.256V167.438c0-1.56-1.1-2.2-2.454-1.413Z" transform="translate(-326.222 -146.563)" fill="#f8f8f8"/>
    </g>
    <g id="noun-cube-39539-7" data-name="noun-cube-39539" transform="translate(744 1306.87)">
      <path id="パス_309-7" data-name="パス 309" d="M149.049,35.108a2.253,2.253,0,0,0,2.04,0l10.253-5.95a.625.625,0,0,0,0-1.182l-10.25-5.918a2.266,2.266,0,0,0-2.043,0L138.8,27.978a.625.625,0,0,0,0,1.181Z" transform="translate(-137.302 -21.815)" fill="#cacecc"/>
      <path id="パス_310-7" data-name="パス 310" d="M131.313,173.6a2.272,2.272,0,0,0-1.02-1.771l-10.284-5.966c-.561-.326-1.02-.061-1.02.587v11.91a2.265,2.265,0,0,0,1.021,1.769l10.282,5.936c.562.324,1.021.059,1.021-.59Z" transform="translate(-118.988 -157.773)" fill="#b4b7b7"/>
      <path id="パス_311-7" data-name="パス 311" d="M359.016,171.8a2.272,2.272,0,0,0-1.02,1.771v11.873c0,.649.46.914,1.021.59L369.3,180.1a2.265,2.265,0,0,0,1.022-1.769v-11.91c0-.648-.459-.913-1.02-.587Z" transform="translate(-344.787 -157.739)" fill="#cacecc"/>
    </g>
    <g id="グループ_82" data-name="グループ 82" transform="translate(46.12)">
      <g id="noun-cube-39539-8" data-name="noun-cube-39539" transform="translate(709.829 1190.848)">
        <path id="パス_309-8" data-name="パス 309" d="M155.688,43.376a3.655,3.655,0,0,0,3.309,0l16.629-9.65a1.014,1.014,0,0,0,0-1.917L159,22.209a3.676,3.676,0,0,0-3.313,0l-16.629,9.6a1.014,1.014,0,0,0,0,1.916Z" transform="translate(-136.636 -21.815)" fill="#9cc1bd"/>
        <path id="パス_310-8" data-name="パス 310" d="M138.978,178.5a3.685,3.685,0,0,0-1.655-2.873l-16.68-9.677c-.91-.528-1.655-.1-1.655.953v19.313a3.674,3.674,0,0,0,1.656,2.869l16.677,9.628c.911.526,1.656.1,1.656-.957V178.5Z" transform="translate(-118.988 -152.826)" fill="#49938b"/>
        <path id="パス_311-8" data-name="パス 311" d="M359.65,175.6a3.685,3.685,0,0,0-1.65,2.869v19.257c0,1.052.746,1.482,1.657.957l16.676-9.628a3.675,3.675,0,0,0,1.657-2.869V166.868c0-1.052-.745-1.481-1.655-.953Z" transform="translate(-336.571 -152.793)" fill="#9cc1bd"/>
      </g>
      <g id="noun-cube-39539-9" data-name="noun-cube-39539" transform="translate(883.766 1190.848)">
        <path id="パス_309-9" data-name="パス 309" d="M155.688,43.376a3.655,3.655,0,0,0,3.309,0l16.629-9.65a1.014,1.014,0,0,0,0-1.917L159,22.209a3.676,3.676,0,0,0-3.313,0l-16.629,9.6a1.014,1.014,0,0,0,0,1.916Z" transform="translate(-136.636 -21.815)" fill="#d3d9ff"/>
        <path id="パス_310-9" data-name="パス 310" d="M138.978,178.5a3.685,3.685,0,0,0-1.655-2.873l-16.68-9.677c-.91-.528-1.655-.1-1.655.953v19.313a3.674,3.674,0,0,0,1.656,2.869l16.677,9.628c.911.526,1.656.1,1.656-.957V178.5Z" transform="translate(-118.988 -152.826)" fill="#b9bedd"/>
        <path id="パス_311-9" data-name="パス 311" d="M359.65,175.6a3.685,3.685,0,0,0-1.65,2.869v19.257c0,1.053.746,1.482,1.657.957l16.676-9.628a3.674,3.674,0,0,0,1.657-2.869V166.868c0-1.052-.745-1.481-1.655-.953Z" transform="translate(-336.571 -152.793)" fill="#d3d9ff"/>
      </g>
      <g id="noun-cube-39539-10" data-name="noun-cube-39539" transform="translate(622.86 1190.848)">
        <path id="パス_309-10" data-name="パス 309" d="M155.71,43.086a3.708,3.708,0,0,0,3.313,0l16.65-9.521a1,1,0,0,0,0-1.891L159.025,22.2a3.729,3.729,0,0,0-3.317,0l-16.65,9.473a1,1,0,0,0,0,1.891Z" transform="translate(-136.659 -21.815)" fill="#ffd567"/>
        <path id="パス_310-10" data-name="パス 310" d="M138.709,178.331a3.636,3.636,0,0,0-1.633-2.834L120.62,165.95c-.9-.521-1.633-.1-1.633.94v19.053a3.625,3.625,0,0,0,1.634,2.831l16.453,9.5c.9.519,1.634.1,1.634-.944v-19Z" transform="translate(-118.988 -152.38)" fill="#f9bf29"/>
        <path id="パス_311-10" data-name="パス 311" d="M359.628,175.463A3.636,3.636,0,0,0,358,178.3v19c0,1.038.736,1.463,1.635.944l16.452-9.5a3.625,3.625,0,0,0,1.635-2.831v-19.06c0-1.038-.735-1.461-1.633-.94Z" transform="translate(-336.303 -152.347)" fill="#ffd567"/>
      </g>
      <g id="noun-cube-39539-11" data-name="noun-cube-39539" transform="translate(796.798 1190.848)">
        <path id="パス_309-11" data-name="パス 309" d="M155.688,43.376a3.655,3.655,0,0,0,3.309,0l16.629-9.65a1.014,1.014,0,0,0,0-1.917L159,22.209a3.676,3.676,0,0,0-3.313,0l-16.629,9.6a1.014,1.014,0,0,0,0,1.916Z" transform="translate(-136.636 -21.815)" fill="#cacecc"/>
        <path id="パス_310-11" data-name="パス 310" d="M138.978,178.5a3.685,3.685,0,0,0-1.655-2.873l-16.68-9.677c-.91-.528-1.655-.1-1.655.953v19.313a3.674,3.674,0,0,0,1.656,2.869l16.677,9.628c.911.526,1.656.1,1.656-.957V178.5Z" transform="translate(-118.988 -152.826)" fill="#b4b7b7"/>
        <path id="パス_311-11" data-name="パス 311" d="M359.65,175.6a3.685,3.685,0,0,0-1.65,2.869v19.257c0,1.052.746,1.482,1.657.957l16.676-9.628a3.675,3.675,0,0,0,1.657-2.869V166.868c0-1.052-.745-1.481-1.655-.953Z" transform="translate(-336.571 -152.793)" fill="#cacecc"/>
      </g>
      <path id="Title_PLATFORM:MOBILE_TAG:H4_" data-name="Title [PLATFORM:MOBILE][TAG:H4]" d="M-18.07-32.765a16.025,16.025,0,0,1-2.254.1H-31.989a21.286,21.286,0,0,1-3.224-.157v2.91a23.671,23.671,0,0,1,3.172-.131h10.223a28.381,28.381,0,0,1-4.168,2.7c-1.547-.97-2.123-1.337-3.853-2.281l-1.914,1.782a53.418,53.418,0,0,1,5.767,3.722h-8.1a26.362,26.362,0,0,1-3.434-.157v2.962a27.439,27.439,0,0,1,3.3-.157h6.946v8.31c0,.577-.183.708-1.049.708a25.378,25.378,0,0,1-3.827-.262,10.813,10.813,0,0,1,.76,2.91c.813.052,2.123.079,2.988.079,3.224,0,4.089-.577,4.089-2.726V-21.47h6.081a16.791,16.791,0,0,1-3.8,3.565,8.463,8.463,0,0,1,2.307,1.966,24.464,24.464,0,0,0,4.168-4.325c1.1-1.468,1.678-2.2,1.7-2.228L-15.5-24.246a21.736,21.736,0,0,1-2.91.131H-23.1l.786-.786c-.629-.419-.655-.446-1.232-.813,1.363-.839,2.464-1.573,4.063-2.648a29.455,29.455,0,0,0,3.041-2.49Zm6.684,12.871a15.618,15.618,0,0,1,1.7-.157c.524-.052,1.337-.1,2.464-.183v8.021a19.276,19.276,0,0,1-.157,2.8H-4.5a19.276,19.276,0,0,1-.157-2.8V-20.47c.472-.026,1.075-.1,1.861-.183.1.419.157.629.288,1.232l2.2-.917A39.375,39.375,0,0,0-2.375-25.45l-1.966.786a14.332,14.332,0,0,1,.76,1.782c-1.337.157-1.442.157-2.988.236a68.469,68.469,0,0,0,4.43-5.9,10.863,10.863,0,0,1,.865-1.206L-3.679-31.14A29.9,29.9,0,0,1-6.51-26.553c-.367-.472-.655-.786-1.1-1.311a35.255,35.255,0,0,0,2.438-4.011c.288-.524.393-.708.55-.944l-2.49-1.022a19.176,19.176,0,0,1-2.176,4.247c-.262-.315-.419-.472-.786-.917l-1.494,2.176a24.327,24.327,0,0,1,3.591,3.88c-.524.682-.629.813-1.52,1.914-.6.026-.865.026-1.049.026a6.891,6.891,0,0,1-1.127-.079ZM8.9-27.129a72.647,72.647,0,0,1-.839,12.635c-.315,1.625-.6,1.94-1.782,1.94A20.378,20.378,0,0,1,2.848-12.9a10.722,10.722,0,0,1,.734,2.94c.944.079,1.756.1,2.438.1a5.606,5.606,0,0,0,3.355-.682c.865-.682,1.337-2.123,1.756-5.138.288-2.149.577-6.711.6-9.7a33.407,33.407,0,0,1,.131-4.561,14.365,14.365,0,0,1-2.149.1H4c.315-.813.419-1.127.76-2.2a8.987,8.987,0,0,1,.34-1.065L2.167-33.63a16.884,16.884,0,0,1-.944,3.3A16.969,16.969,0,0,1-1.87-25.111a7.644,7.644,0,0,1,2.1,2.123A18.276,18.276,0,0,0,2.851-27.13ZM-10.573-19A24.622,24.622,0,0,1-11.8-11.952l2.333,1.075a29.136,29.136,0,0,0,1.284-7.759Zm6.92.367a61.473,61.473,0,0,1,1,6.737l2.385-.577a64.762,64.762,0,0,0-1.258-6.684ZM6.571-17.509a30.03,30.03,0,0,0-3.224-6.579L1.066-22.831a28.83,28.83,0,0,1,2.988,6.658Z" transform="translate(656.394 1283.1)" fill="#585858"/>
      <path id="Title_PLATFORM:MOBILE_TAG:H4_2" data-name="Title [PLATFORM:MOBILE][TAG:H4]" d="M-26.19-22.585l2.543-.813v5.557a19.937,19.937,0,0,1-.131,2.7h3.041a19.019,19.019,0,0,1-.157-2.621v-6.527l3.015-.944c-.079,2.543-.183,4.168-.315,5.033-.1.55-.262.655-.917.655a7.246,7.246,0,0,1-1.468-.21,7.822,7.822,0,0,1,.708,2.7c.655.052.891.052,1.232.052,1.914,0,2.621-.446,2.962-1.94A48.4,48.4,0,0,0-15.1-26.15c.052-1.416.079-1.6.131-2.752a16.027,16.027,0,0,1-2.149.786l-3.775,1.18v-3.67a21.58,21.58,0,0,1,.157-2.674h-3.041a18.711,18.711,0,0,1,.131,2.621V-26.1l-2.543.813v-2.857a20.114,20.114,0,0,1,.157-2.674h-3.093a16.714,16.714,0,0,1,.157,2.779v3.591l-.236.079a15.7,15.7,0,0,1-2.543.577l.655,2.857a14.159,14.159,0,0,1,1.6-.6c.1-.026.288-.079.524-.157v9.017c0,2.307,1.153,2.8,6.448,2.8,7.471,0,8.021-.367,8.336-5.61a13.8,13.8,0,0,1-2.857-.865c0,1.782-.157,2.674-.472,3.119-.393.55-1.232.682-4.351.682a20.466,20.466,0,0,1-3.565-.183c-.577-.1-.76-.288-.76-.813Zm-9.41-4.273h-.6a10.265,10.265,0,0,1-2.045-.131v2.8A10.757,10.757,0,0,1-36.2-24.32h.6v8.231a13.663,13.663,0,0,1-3.119.944l.55,3.014c.393-.183.629-.288,1.363-.577a44.121,44.121,0,0,0,6.475-2.91L-30.41-18.4c-1.18.6-1.468.734-2.49,1.206v-7.13h.5a11.933,11.933,0,0,1,1.835.1v-2.752a8.793,8.793,0,0,1-1.756.1H-32.9v-3.355a18.5,18.5,0,0,1,.157-3.041h-3.015a22.379,22.379,0,0,1,.157,3.014Zm29.333,3.513-1.494,2.254A37.768,37.768,0,0,1-2.2-18.706,20.638,20.638,0,0,1-7.63-15.639a10.317,10.317,0,0,1,1.86,2.228A22.864,22.864,0,0,0,.207-17.29a49.059,49.059,0,0,1,5.138,3.539l1.678-2.516c-1.625-1.1-3.355-2.176-4.8-2.988a27.046,27.046,0,0,0,4.43-6.737,13.08,13.08,0,0,1,.734-1.389L4.715-28.614a11.321,11.321,0,0,1-.446,1.337,22.141,22.141,0,0,1-4.456,6.71,45.7,45.7,0,0,0-4.3-2.018l2.254-1.206A19.8,19.8,0,0,0-4.8-28.3l-2.254,1.153a15.675,15.675,0,0,1,2.123,3.7c.236.524.236.524.367.813Zm8.65-1.6A19.113,19.113,0,0,0,.1-29.453L-2.153-28.4a19.081,19.081,0,0,1,2.2,4.64ZM-8.522-9.374v-1.442H8.07v1.442h2.962a26.169,26.169,0,0,1-.157-3.408V-29.427a28.187,28.187,0,0,1,.131-3.146,25.368,25.368,0,0,1-3.067.131H-8.418a25.838,25.838,0,0,1-3.093-.131,27.983,27.983,0,0,1,.157,3.146v16.645a25.893,25.893,0,0,1-.157,3.408Zm0-20.525H8.044v16.54H-8.522Z" transform="translate(918.317 1282.907)" fill="#585858"/>
      <path id="Title_PLATFORM:MOBILE_TAG:H4_3" data-name="Title [PLATFORM:MOBILE][TAG:H4]" d="M-33.126-22.955a20.971,20.971,0,0,1,2.254-.1h8.755a19.913,19.913,0,0,1,2.359.1V-25a27.951,27.951,0,0,0,4.482,2.385,11.673,11.673,0,0,1,1.442-2.936,27.708,27.708,0,0,1-6.737-3.539A15.919,15.919,0,0,1-25-33.44h-3.119a17.261,17.261,0,0,1-4.142,4.4,24.461,24.461,0,0,1-6.58,3.644,12.175,12.175,0,0,1,1.52,2.674,24.664,24.664,0,0,0,4.194-2.254Zm2.281-2.831c-.472,0-.629,0-1.075-.026A22.379,22.379,0,0,0-26.467-30.9a21.353,21.353,0,0,0,5.479,5.085c-.5.026-.734.026-1.153.026Zm.262,7.576a27.142,27.142,0,0,1-2.8,5.243c-1.337.079-2.123.1-2.307.1-.367,0-.813-.026-1.52-.079l.419,3.2a31.171,31.171,0,0,1,3.381-.367c1.049-.079,6.239-.55,8.834-.786.97-.1,2.543-.288,4.718-.577.446.629.708,1,1.573,2.281l2.516-1.651a53.645,53.645,0,0,0-6.055-7l-2.6,1.153c1.468,1.52,1.914,1.992,2.752,2.91-3.67.393-3.67.393-8.31.655a28.5,28.5,0,0,0,2.726-5.085h9.017a24.389,24.389,0,0,1,3.067.157V-21.1a24.681,24.681,0,0,1-3.067.157H-34.567A25.748,25.748,0,0,1-37.66-21.1v3.041a24.557,24.557,0,0,1,3.093-.157Zm25.3,4.325c-1.887,1.075-3.7,1.6-7.445,2.176a8.456,8.456,0,0,1,1.6,2.6,31.131,31.131,0,0,0,4.011-1.049A22.81,22.81,0,0,0-2.351-12.5L-4-13.885H3.13L1.712-12.6a19.721,19.721,0,0,0,8.755,3.513,8.787,8.787,0,0,1,1.625-2.569,20.791,20.791,0,0,1-7.549-2.228h2.1c1.311,0,2.123.026,2.936.1A4.6,4.6,0,0,1,9.5-14.829c0-.1-.026-.682-.026-1.7v-6.632a23.564,23.564,0,0,1,.1-2.8c-.917.079-1.651.1-2.936.1H-7.306c-1.232,0-2.123-.026-2.91-.1a25.939,25.939,0,0,1,.1,2.8v6.632c0,1.311-.052,2.1-.1,2.752.839-.079,1.6-.1,2.91-.1Zm-2.018-9.8H6.64v1.206H-7.306Zm0,3.172H6.64v1.206H-7.306Zm0,3.172H6.64v1.284H-7.306ZM8.5-30.924a15.939,15.939,0,0,1,.1-2.018,22.781,22.781,0,0,1-2.962.131h-11.9a23.225,23.225,0,0,1-2.988-.131,13.053,13.053,0,0,1,.131,2.018v2.018c0,.708-.052,1.311-.1,1.966.786-.052,1.7-.079,2.883-.079H5.749c1.153,0,2.045.026,2.831.079-.052-.6-.079-1.18-.079-1.966Zm-2.91.341v1.442H-6.231v-1.442Z" transform="translate(743.91 1282.962)" fill="#585858"/>
      <path id="Title_PLATFORM:MOBILE_TAG:H4_4" data-name="Title [PLATFORM:MOBILE][TAG:H4]" d="M-17.238-19.775a23.137,23.137,0,0,1,2.91.157v-3.119a15.831,15.831,0,0,1-2.2.157v-5.19a14.011,14.011,0,0,1,.1-2.1,18.122,18.122,0,0,1-2.438.1h-4.011V-31.2a10.322,10.322,0,0,1,.183-2.438h-3.2a12.07,12.07,0,0,1,.183,2.464v1.416H-27.86a27.769,27.769,0,0,1-2.779-.131v2.962a25.925,25.925,0,0,1,2.779-.131h2.176c-.026,1.468-.079,2.988-.21,4.482H-28.83a22.847,22.847,0,0,1-2.91-.157v3.119a22.437,22.437,0,0,1,2.936-.157h2.516c-.865,3.722-3.015,6.055-7.156,7.811a8.831,8.831,0,0,1,1.809,2.648c4.089-2.176,6.344-4.666,7.628-8.388,1.337,3.25,4.3,6.186,8.2,8.2a9.6,9.6,0,0,1,1.547-2.988,13.91,13.91,0,0,1-8.021-7.287Zm-5.872-2.8c.131-1.363.183-2.385.21-4.482h3.617v4.482Zm-14.6-8.781a20.055,20.055,0,0,1,4.587,3.748l1.835-2.359a22.127,22.127,0,0,0-4.587-3.486Zm-.97,6.527a25.555,25.555,0,0,1,4.718,3.591l1.678-2.438A25.786,25.786,0,0,0-37-26.983Zm4.011,5.112c-1.363,3.958-2.412,6.081-3.88,7.864l2.49,2.176c.079-.157.629-1.127.813-1.468a40.179,40.179,0,0,0,2.883-6.92Zm22.255-5.164A19.607,19.607,0,0,1-7.8-21.374l1.494-2.176a6.025,6.025,0,0,1,.813,2.1c.97-.157,1.311-.21,1.914-.341-.052,5.924-.813,7.916-3.88,10.3A6.758,6.758,0,0,1-5.153-9.447a10.09,10.09,0,0,0,3.46-5.059H6.249v1.914a24.06,24.06,0,0,1-.157,3.014H9.107a23.039,23.039,0,0,1-.157-2.988v-9.279c.839.21,1.153.262,2.254.472a6.929,6.929,0,0,1,1.18-2.6,25.609,25.609,0,0,1-7-1.625,13.3,13.3,0,0,0,3.25-3.486h.6a15.849,15.849,0,0,1,2.543.131v-2.7A23.508,23.508,0,0,1,9-31.518H4.074v-.341A12.656,12.656,0,0,1,4.2-33.72H1.138a13.322,13.322,0,0,1,.131,1.887v.315H-2.637a17.744,17.744,0,0,1-2.674-.131v1.337a29.265,29.265,0,0,0-4.273-3.2l-1.809,2.045a20.583,20.583,0,0,1,4.378,3.539l1.7-1.992v.97A13.254,13.254,0,0,1-3-29.08,15.525,15.525,0,0,0,.535-25.568,21.865,21.865,0,0,1-6.385-24a23.218,23.218,0,0,0-4.325-3.067ZM6.249-21.3h-7.1c.026-.6.026-.6.026-1.18a19.077,19.077,0,0,0,3.8-1.573,23.96,23.96,0,0,0,3.277,1.442Zm-.865-7.78a7.883,7.883,0,0,1-2.543,2.254A8.94,8.94,0,0,1,.115-29.08Zm.865,10.17v1.992H-1.169c.1-.786.157-1.153.21-1.992ZM-8.43-19.932a32.4,32.4,0,0,1-2.8,6.737,8.339,8.339,0,0,1-1.049,1.442l2.464,2.176c.524-1,.839-1.625,1-1.887a37.675,37.675,0,0,0,2.7-6.815Z" transform="translate(830.653 1283.059)" fill="#585858"/>
    </g>
    <g id="noun-cube-39539-12" data-name="noun-cube-39539" transform="translate(882.759 1329.859)">
      <path id="パス_309-12" data-name="パス 309" d="M155.71,43.086a3.708,3.708,0,0,0,3.313,0l16.65-9.521a1,1,0,0,0,0-1.891L159.025,22.2a3.729,3.729,0,0,0-3.317,0l-16.65,9.473a1,1,0,0,0,0,1.891Z" transform="translate(-136.659 -21.815)" fill="#ffd567"/>
      <path id="パス_310-12" data-name="パス 310" d="M138.709,178.331a3.636,3.636,0,0,0-1.633-2.834L120.62,165.95c-.9-.521-1.633-.1-1.633.94v19.053a3.625,3.625,0,0,0,1.634,2.831l16.453,9.5c.9.519,1.634.1,1.634-.944v-19Z" transform="translate(-118.988 -152.38)" fill="#f9bf29"/>
      <path id="パス_311-12" data-name="パス 311" d="M359.628,175.463A3.636,3.636,0,0,0,358,178.3v19c0,1.038.736,1.463,1.635.944l16.452-9.5a3.625,3.625,0,0,0,1.635-2.831v-19.06c0-1.038-.735-1.461-1.633-.94Z" transform="translate(-336.303 -152.347)" fill="#ffd567"/>
    </g>
    <rect id="長方形_56" data-name="長方形 56" width="64" height="540" transform="translate(1036.787 1183.325)" fill="none"/>
  </g>
</svg>
