<svg xmlns="http://www.w3.org/2000/svg" width="205.941" height="60" viewBox="0 0 205.941 60">
  <g id="laravel" transform="translate(-141.615 -77.7)">
    <g id="グループ_84" data-name="グループ 84" transform="translate(214.895 91.522)">
      <path id="パス_338" data-name="パス 338" d="M378.392,121.376h-5.211v31.718h15v-4.667h-9.787Z" transform="translate(-373.181 -121.376)" fill="#ef3b2d"/>
      <path id="パス_339" data-name="パス 339" d="M441.22,156.561a6.82,6.82,0,0,0-2.832-2.492,8.269,8.269,0,0,0-3.693-.906,10.729,10.729,0,0,0-4.4.884,10.29,10.29,0,0,0-3.421,2.424,11.223,11.223,0,0,0-2.22,3.557,11.775,11.775,0,0,0,0,8.5,11.27,11.27,0,0,0,2.22,3.535,10.277,10.277,0,0,0,3.421,2.424,10.727,10.727,0,0,0,4.4.884,8.273,8.273,0,0,0,3.693-.906,6.812,6.812,0,0,0,2.832-2.492v2.855h4.939V153.707H441.22Zm-.453,10.286a6.545,6.545,0,0,1-1.269,2.13,6.126,6.126,0,0,1-1.971,1.45,5.939,5.939,0,0,1-2.56.544,5.787,5.787,0,0,1-2.538-.544,6.138,6.138,0,0,1-3.194-3.58,7.965,7.965,0,0,1,0-5.166,6.139,6.139,0,0,1,3.194-3.579,5.787,5.787,0,0,1,2.538-.544,5.939,5.939,0,0,1,2.56.544,6.14,6.14,0,0,1,1.971,1.45,6.55,6.55,0,0,1,1.269,2.129,7.587,7.587,0,0,1,0,5.166Z" transform="translate(-407.826 -143.104)" fill="#ef3b2d"/>
      <path id="パス_340" data-name="パス 340" d="M568.083,156.561a6.821,6.821,0,0,0-2.832-2.492,8.269,8.269,0,0,0-3.693-.906,10.728,10.728,0,0,0-4.4.884,10.289,10.289,0,0,0-3.421,2.424,11.221,11.221,0,0,0-2.22,3.557,11.774,11.774,0,0,0,0,8.5,11.268,11.268,0,0,0,2.22,3.535,10.276,10.276,0,0,0,3.421,2.424,10.727,10.727,0,0,0,4.4.884,8.273,8.273,0,0,0,3.693-.906,6.812,6.812,0,0,0,2.832-2.492v2.855h4.939V153.707h-4.939Zm-.453,10.286a6.544,6.544,0,0,1-1.269,2.13,6.126,6.126,0,0,1-1.971,1.45,5.938,5.938,0,0,1-2.56.544,5.787,5.787,0,0,1-2.538-.544,6.138,6.138,0,0,1-3.194-3.58,7.964,7.964,0,0,1,0-5.166,6.139,6.139,0,0,1,3.194-3.579,5.787,5.787,0,0,1,2.538-.544,5.938,5.938,0,0,1,2.56.544,6.14,6.14,0,0,1,1.971,1.45,6.548,6.548,0,0,1,1.269,2.129,7.586,7.586,0,0,1,0,5.166Z" transform="translate(-494.542 -143.104)" fill="#ef3b2d"/>
      <rect id="長方形_23" data-name="長方形 23" width="4.939" height="31.718" transform="translate(127.722)" fill="#ef3b2d"/>
      <path id="パス_341" data-name="パス 341" d="M506.628,176h4.939V159.742h8.473v-4.859H506.628Z" transform="translate(-464.398 -144.279)" fill="#ef3b2d"/>
      <path id="パス_342" data-name="パス 342" d="M646.126,154.882l-6.208,16.17-6.208-16.17h-5L636.815,176h6.207l8.107-21.115Z" transform="translate(-547.845 -144.279)" fill="#ef3b2d"/>
      <path id="パス_343" data-name="パス 343" d="M710.191,153.166a10.93,10.93,0,0,0-10.835,11.1c0,6.777,4.633,11.1,11.468,11.1,3.825,0,6.268-1.463,9.251-4.648l-3.337-2.582s-2.518,3.307-6.276,3.307a5.932,5.932,0,0,1-6.206-5.343h16.385C721.5,159.126,716.916,153.166,710.191,153.166Zm-5.922,9.266c.038-.406.607-5.343,5.883-5.343s5.917,4.936,5.953,5.343Z" transform="translate(-596.136 -143.106)" fill="#ef3b2d"/>
    </g>
    <path id="パス_344" data-name="パス 344" d="M199.864,91.273c-.008-.028-.023-.052-.033-.079a.934.934,0,0,0-.06-.146.918.918,0,0,0-.064-.084.906.906,0,0,0-.084-.109.916.916,0,0,0-.092-.071.936.936,0,0,0-.1-.08h0l-11.281-6.495a.94.94,0,0,0-.938,0L175.927,90.7h0a.91.91,0,0,0-.1.08.966.966,0,0,0-.092.071.943.943,0,0,0-.084.109.965.965,0,0,0-.064.084.948.948,0,0,0-.06.146c-.01.027-.025.051-.033.079a.945.945,0,0,0-.033.246v12.335l-9.4,5.412V85.134a.95.95,0,0,0-.033-.246c-.008-.028-.023-.052-.033-.079a.936.936,0,0,0-.06-.146.921.921,0,0,0-.064-.084.489.489,0,0,0-.176-.18.936.936,0,0,0-.1-.08h0L154.3,77.825a.94.94,0,0,0-.938,0L142.086,84.32h0a.907.907,0,0,0-.1.08.966.966,0,0,0-.092.071.94.94,0,0,0-.084.109.961.961,0,0,0-.064.084.947.947,0,0,0-.06.146c-.01.027-.025.051-.033.079a.945.945,0,0,0-.033.246v38.636a.941.941,0,0,0,.471.815l22.561,12.989a.94.94,0,0,0,.155.064c.025.009.047.023.073.03a.944.944,0,0,0,.241.032.932.932,0,0,0,.241-.032c.022-.006.042-.019.063-.026a.935.935,0,0,0,.164-.068l22.561-12.989a.94.94,0,0,0,.471-.815V111.435l10.809-6.223a.94.94,0,0,0,.471-.815V91.518A.974.974,0,0,0,199.864,91.273ZM165.113,122.69l-9.382-5.31,9.853-5.673h0l10.811-6.224,9.391,5.406-6.89,3.933Zm21.623-24.133v10.709l-3.948-2.273-5.453-3.139V93.145l3.948,2.273Zm.94-12.448,9.4,5.41-9.4,5.41-9.4-5.41Zm-28.954,27.378-3.948,2.273V92.172l5.453-3.139,3.948-2.273v23.588Zm-4.888-33.763,9.4,5.41-9.4,5.41-9.4-5.41Zm-10.341,7.036,3.948,2.273,5.453,3.139V117.39a.908.908,0,0,0,.014.105.939.939,0,0,0,.019.137v0a.935.935,0,0,0,.044.106.912.912,0,0,0,.049.117v0a.975.975,0,0,0,.07.091.934.934,0,0,0,.077.1l0,0a.958.958,0,0,0,.09.068.936.936,0,0,0,.1.078l0,0,0,0,10.8,6.114v10.815l-20.681-11.907V86.761Zm43.242,36.467-20.681,11.907V124.317l15.316-8.743,5.365-3.062Zm11.28-19.373-9.4,5.412V98.557l5.453-3.139,3.948-2.273Z" fill="#ef3b2d"/>
  </g>
</svg>
