<svg xmlns="http://www.w3.org/2000/svg" width="106" height="137.5" viewBox="0 0 106 137.5">
  <g id="lp" transform="translate(-4795 959.5)">
    <g id="lp-2" data-name="lp" transform="translate(4631.264 -994.451)">
      <path id="パス_434" data-name="パス 434" d="M267.736,67.264a1.966,1.966,0,0,0-.074-.363l.074-29.289a2.155,2.155,0,0,0-2.157-2.159h-95.36a2.157,2.157,0,0,0-2.157,2.15l-.326,129.862a2.155,2.155,0,0,0,2.157,2.159h95.36a2.157,2.157,0,0,0,2.157-2.15l.133-53.029a2.077,2.077,0,0,0,0-1.739l.114-45.068a2.061,2.061,0,0,0,.075-.372ZM245.171,88.827a2.15,2.15,0,0,0-1.557-.765,2.372,2.372,0,0,0-1.62.637l-21.856,22-23.2-18.065a2.152,2.152,0,0,0-2.625-.018L172.2,109.372l.1-39.952h91.048l-.1,40.852Zm13.4,22.59H225.5L243.393,93.4Zm-44.525,0H176.631l18.961-14.365Zm49.373-71.656-.064,25.349H172.309l.064-25.349ZM172.055,165.316l.124-49.589h91.047l-.124,49.589Z" stroke="#eff2f1" stroke-width="1"/>
      <path id="パス_435" data-name="パス 435" d="M329.286,171.26a9.832,9.832,0,1,0,9.834,9.831A9.845,9.845,0,0,0,329.286,171.26Zm0,15.356a5.523,5.523,0,1,1,5.52-5.524A5.527,5.527,0,0,1,329.286,186.616Z" transform="translate(-110.097 -98.554)" stroke="#eff2f1" stroke-width="1"/>
      <path id="パス_436" data-name="パス 436" d="M481.4,186.344l-4.262-5.167a2.155,2.155,0,1,0-3.325,2.742l3.146,3.817-3.168,3.969a2.154,2.154,0,1,0,3.367,2.689l4.262-5.335a2.152,2.152,0,0,0-.02-2.714Z" transform="translate(-221.755 -105.178)" stroke="#eff2f1" stroke-width="1"/>
      <path id="パス_437" data-name="パス 437" d="M204.1,180.895a2.155,2.155,0,0,0-3.036.291l-4.262,5.167a2.154,2.154,0,0,0-.021,2.714l4.262,5.335a2.154,2.154,0,1,0,3.367-2.689l-3.168-3.969,3.146-3.817a2.155,2.155,0,0,0-.288-3.034Z" transform="translate(-20.739 -105.187)" stroke="#eff2f1" stroke-width="1"/>
      <path id="パス_438" data-name="パス 438" d="M199.654,88.325h79.683a2.158,2.158,0,0,0,2.157-2.155V78.249a2.158,2.158,0,0,0-2.157-2.155H199.654A2.158,2.158,0,0,0,197.5,78.25v7.921A2.157,2.157,0,0,0,199.654,88.325Zm2.157-7.921h75.367v3.612H201.811Z" transform="translate(-21.597 -29.494)" stroke="#eff2f1" stroke-width="1"/>
      <path id="パス_439" data-name="パス 439" d="M214.6,366.724a12.2,12.2,0,1,0-12.2-12.2A12.215,12.215,0,0,0,214.6,366.724Zm0-20.091a7.891,7.891,0,1,1-7.887,7.892A7.9,7.9,0,0,1,214.6,346.633Z" transform="translate(-25.157 -222.691)" stroke="#eff2f1" stroke-width="1"/>
      <path id="パス_440" data-name="パス 440" d="M317.134,366.724a12.2,12.2,0,1,0-12.2-12.2A12.215,12.215,0,0,0,317.134,366.724Zm0-20.091a7.891,7.891,0,1,1-7.887,7.892A7.9,7.9,0,0,1,317.134,346.633Z" transform="translate(-99.561 -222.691)" stroke="#eff2f1" stroke-width="1"/>
      <path id="パス_441" data-name="パス 441" d="M419.66,366.724a12.2,12.2,0,1,0-12.206-12.2A12.215,12.215,0,0,0,419.66,366.724Zm0-20.091a7.891,7.891,0,1,1-7.892,7.892A7.9,7.9,0,0,1,419.66,346.633Z" transform="translate(-173.958 -222.691)" stroke="#eff2f1" stroke-width="1"/>
      <path id="パス_442" data-name="パス 442" d="M279.641,445.52H201.764a2.155,2.155,0,1,0,0,4.31h77.877a2.155,2.155,0,1,0,0-4.31Z" transform="translate(-23.128 -297.578)" stroke="#eff2f1" stroke-width="1"/>
      <path id="パス_443" data-name="パス 443" d="M279.641,475.57H201.764a2.155,2.155,0,1,0,0,4.31h77.877a2.155,2.155,0,1,0,0-4.31Z" transform="translate(-23.128 -319.384)" stroke="#eff2f1" stroke-width="1"/>
    </g>
    <rect id="長方形_47" data-name="長方形 47" width="106" height="40" transform="translate(4795 -862)" fill="#eff2f2"/>
  </g>
</svg>
