<svg xmlns="http://www.w3.org/2000/svg" width="24.823" height="24.823" viewBox="0 0 24.823 24.823">
  <path id="map" d="M21.448,29.531l-8.624-3.044-6.053,2.4a1.363,1.363,0,0,1-1.4-.1,1.417,1.417,0,0,1-.66-1.252V8.631a1.413,1.413,0,0,1,.3-.9,1.935,1.935,0,0,1,.778-.593l7.034-2.435,8.624,3.01,6.02-2.368A1.437,1.437,0,0,1,29.531,6.67V25.743a1.172,1.172,0,0,1-.3.812,1.867,1.867,0,0,1-.778.507Zm-1.217-3.145V9.916l-6.222-2.1V24.289Zm2.266,0,4.464-1.454V8.226L22.5,9.916ZM7.278,25.98l4.464-1.691V7.82L7.278,9.274ZM22.5,9.916v0ZM11.743,7.82v0Z" transform="translate(-4.708 -4.708)"/>
</svg>
