<svg xmlns="http://www.w3.org/2000/svg" xmlns:xlink="http://www.w3.org/1999/xlink" width="223.751" height="368" viewBox="0 0 223.751 368">
  <defs>
    <linearGradient id="linear-gradient" x1="0.909" y1="0.171" x2="-0.321" y2="1.227" gradientUnits="objectBoundingBox">
      <stop offset="0" stop-color="#002ea1"/>
      <stop offset="1"/>
    </linearGradient>
    <linearGradient id="linear-gradient-2" x1="0.848" y1="0.2" x2="-0.446" y2="2.314" xlink:href="#linear-gradient"/>
  </defs>
  <g id="mockup_member" transform="translate(-3466.58 -1047.398)">
    <g id="グループ_80" data-name="グループ 80">
      <rect id="Container" width="193" height="368" rx="8" transform="translate(3481.955 1047.398)" fill="#dde3e9"/>
      <g id="Camera" transform="translate(3560.282 1061.967)">
        <circle id="Lens" cx="2.33" cy="2.33" r="2.33" fill="#fff"/>
        <rect id="Sensor" width="25" height="4" rx="2" transform="translate(11.183)" fill="#fff"/>
      </g>
      <g id="Row" transform="translate(3498.955 1076.878)">
        <rect id="Background" width="159" height="50" rx="4" fill="#fff"/>
        <g id="Text" transform="translate(47.056 14.947)">
          <rect id="Name" width="88" height="7" rx="3" fill="#dde3e9"/>
          <rect id="Name-2" data-name="Name" width="59" height="7" rx="3" transform="translate(0 12.786)" fill="#dde3e9"/>
        </g>
        <circle id="Avatar" cx="14.911" cy="14.911" r="14.911" transform="translate(10.251 10.251)" fill="#c5cfd6"/>
      </g>
      <g id="Row-2" data-name="Row" transform="translate(3498.955 1143.878)">
        <rect id="Background-2" data-name="Background" width="159" height="50" rx="4" fill="#fff"/>
        <g id="Text-2" data-name="Text" transform="translate(47.056 14.947)">
          <rect id="Name-3" data-name="Name" width="88" height="7" rx="3" fill="#dde3e9"/>
          <rect id="Name-4" data-name="Name" width="59" height="7" rx="3" transform="translate(0 12.786)" fill="#dde3e9"/>
        </g>
        <circle id="Avatar-2" data-name="Avatar" cx="14.911" cy="14.911" r="14.911" transform="translate(10.251 10.251)" fill="#c5cfd6"/>
      </g>
      <g id="Row-3" data-name="Row" transform="translate(3466.58 1200.697)">
        <rect id="Background-3" data-name="Background" width="223.751" height="70.362" rx="4" fill="#fff"/>
        <g id="Text-3" data-name="Text" transform="translate(66.219 21.034)">
          <rect id="Name-5" data-name="Name" width="123.837" height="9.851" rx="3" fill="#f9bf29"/>
          <rect id="Name-6" data-name="Name" width="83.027" height="9.851" rx="3" transform="translate(0 17.993)" fill="#f9bf29"/>
        </g>
        <circle id="Avatar-3" data-name="Avatar" cx="20.983" cy="20.983" r="20.983" transform="translate(14.426 14.426)" fill="#c5cfd6"/>
      </g>
      <g id="Row-4" data-name="Row" transform="translate(3498.955 1277.878)">
        <rect id="Background-4" data-name="Background" width="159" height="50" rx="4" fill="#fff"/>
        <g id="Text-4" data-name="Text" transform="translate(47.056 14.947)">
          <rect id="Name-7" data-name="Name" width="88" height="7" rx="3" fill="#dde3e9"/>
          <rect id="Name-8" data-name="Name" width="59" height="7" rx="3" transform="translate(0 12.786)" fill="#dde3e9"/>
        </g>
        <circle id="Avatar-4" data-name="Avatar" cx="14.911" cy="14.911" r="14.911" transform="translate(10.251 10.251)" fill="#c5cfd6"/>
      </g>
      <g id="Row-5" data-name="Row" transform="translate(3498.955 1344.878)">
        <rect id="Background-5" data-name="Background" width="159" height="50" rx="4" fill="#fff"/>
        <g id="Text-5" data-name="Text" transform="translate(47.056 14.947)">
          <rect id="Name-9" data-name="Name" width="88" height="7" rx="3" fill="#dde3e9"/>
          <rect id="Name-10" data-name="Name" width="59" height="7" rx="3" transform="translate(0 12.786)" fill="#dde3e9"/>
        </g>
        <circle id="Avatar-5" data-name="Avatar" cx="14.911" cy="14.911" r="14.911" transform="translate(10.251 10.251)" fill="#c5cfd6"/>
      </g>
      <g id="グループ_79" data-name="グループ 79" transform="translate(2122.592 -251.126)">
        <path id="パス_301" data-name="パス 301" d="M1497.822,1606.833c2.952-.468,6.589.581,7.055,2.171.5,1.709-2.989,2.921-2.459,4.777.5,1.754,3.916,1.722,4.169,3.214.322,1.9-4.816,4.183-5.345,3.735-.346-.293,1.492-1.576.962-2.432-.8-1.3-5.937.207-6.841-1.129-.72-1.063,2.043-2.739,1.283-4s-4.076-.4-4.7-1.477C1491.253,1610.515,1494.061,1607.43,1497.822,1606.833Z" transform="translate(-109.807 -114.896)" fill="url(#linear-gradient)"/>
        <circle id="楕円形_8" data-name="楕円形 8" cx="11.421" cy="11.421" r="11.421" transform="translate(1365.052 1479.404) rotate(-13.534)" fill="#ffdbb3"/>
        <path id="パス_302" data-name="パス 302" d="M1401.38,1482.606a9.678,9.678,0,0,1-1.473,1.521,10.237,10.237,0,0,1-4.989,2.186c.971-.891,2-1.9,1.853-2.091-.161-.216-1.64.831-4.324,2.091-4.3,2.02-6.694,2.232-7.6,2.281a14.779,14.779,0,0,1-2.08-.036,12.147,12.147,0,0,1,8.448-10.8,11.32,11.32,0,0,1,11.784,3.326,11.121,11.121,0,0,1,2.385,7.365c-.788-.99-1.595-2.082-2.4-3.281C1402.4,1484.291,1401.863,1483.434,1401.38,1482.606Z" transform="translate(-15.34 -2.801)" fill="url(#linear-gradient-2)"/>
      </g>
    </g>
  </g>
</svg>
