<svg xmlns="http://www.w3.org/2000/svg" width="223.751" height="368" viewBox="0 0 223.751 368">
  <g id="mockup_pay" transform="translate(-4755 -1606.878)">
    <rect id="Container" width="193" height="368" rx="8" transform="translate(4771 1606.878)" fill="#dde3e9"/>
    <g id="Camera" transform="translate(4848.788 1621.447)">
      <circle id="Lens" cx="2.33" cy="2.33" r="2.33" fill="#fff"/>
      <rect id="Sensor" width="25" height="4" rx="2" transform="translate(11.183)" fill="#fff"/>
    </g>
    <rect id="Background" width="159" height="317" rx="4" transform="translate(4787.506 1636.358)" fill="#fff"/>
    <g id="Text" transform="translate(4805.506 1662.431)">
      <rect id="Name" width="123.171" height="7" rx="3" fill="#dde3e9"/>
      <rect id="Name-2" data-name="Name" width="82.58" height="7" rx="3" transform="translate(0 12.786)" fill="#dde3e9"/>
    </g>
    <g id="Text-2" data-name="Text" transform="translate(4805.506 1688.431)">
      <rect id="Name-3" data-name="Name" width="123.171" height="7" rx="3" fill="#dde3e9"/>
      <rect id="Name-4" data-name="Name" width="82.58" height="7" rx="3" transform="translate(0 12.786)" fill="#dde3e9"/>
    </g>
    <path id="パス_494" data-name="パス 494" d="M-42.96-5.67a1.409,1.409,0,0,0,1.47-1.44,1.4,1.4,0,0,0-1.47-1.41h-.03c-.93.03-2.55.03-4.35.03-.15,0-.18-.03-.21-.15a1.658,1.658,0,0,1,.42-1.26l.54-.75c.12-.18.09-.15.33-.18l3.27.03h.03a1.376,1.376,0,0,0,1.44-1.41,1.354,1.354,0,0,0-1.44-1.38h-1.41c-.12,0-.15,0-.15-.03s.03-.06.06-.12c4.35-6.48,4.35-6.51,4.35-7.02A1.894,1.894,0,0,0-42-22.47a1.42,1.42,0,0,0-1.26.78,94.235,94.235,0,0,1-5.07,8.01c-.09.12-.09.09-.24.12h-1.26c-.18-.03-.21,0-.3-.12-2.01-2.97-3.99-5.88-5.19-7.98a1.5,1.5,0,0,0-1.35-.84,1.77,1.77,0,0,0-1.74,1.68,1.633,1.633,0,0,0,.33.99c4.2,6.21,4.2,6.24,4.2,6.24s0,.03-.24.03c-.87,0-1.59-.03-2.07-.03h-.06a1.312,1.312,0,0,0-1.35,1.38,1.363,1.363,0,0,0,1.47,1.41c1.02-.03,2.37-.06,3.87-.06.15,0,.33.06,1.11,1.35a1.339,1.339,0,0,1,.18.84c-.03.15-.03.18-.21.18-2.13,0-4.08,0-5.01-.03h-.06A1.321,1.321,0,0,0-57.6-7.11a1.341,1.341,0,0,0,1.47,1.44c1.26-.06,3.06-.06,5.01-.06.12,0,.15.06.15.18v4.2A1.651,1.651,0,0,0-49.2.3a1.566,1.566,0,0,0,1.71-1.56c0-1.35-.03-2.88-.03-4.29,0-.09.03-.15.15-.15,1.56,0,3.06.03,4.38.03Zm14.82,4.44v-.06c-.06-1.86-.06-3.75-.06-5.61,0-4.29.09-8.31.09-10.71,0-.66,0-1.2-.03-1.59a3.194,3.194,0,0,0-3.48-3.21c-.63,0-.87,0-1.47.03a1.743,1.743,0,0,0-1.56,1.83,1.493,1.493,0,0,0,1.53,1.59h.42c1.02,0,1.17.33,1.17,4.53,0,3.96-.12,10.35-.12,13.14A1.669,1.669,0,0,0-29.88.36,1.615,1.615,0,0,0-28.14-1.23ZM-7.38.18A1.783,1.783,0,0,0-5.49-1.59a1.6,1.6,0,0,0-1.8-1.56c-2.46,0-5.85.24-8.34.27,2.49-2.7,5.43-5.25,7.71-8.13a9.806,9.806,0,0,0,2.49-5.94c0-3.57-3.3-5.73-6.78-5.73-4.71,0-6.99,3.57-6.99,4.62a1.7,1.7,0,0,0,1.77,1.59,1.814,1.814,0,0,0,1.56-.9,4.371,4.371,0,0,1,3.69-2.31,2.993,2.993,0,0,1,3.12,3.06,6.189,6.189,0,0,1-1.68,3.84c-2.64,3.24-6.12,6.81-8.19,9.15a3.057,3.057,0,0,0-.87,2.04A1.646,1.646,0,0,0-18.12.18ZM.54,2.7C1.32,1.8,2.7-.03,3.48-1.17a1.921,1.921,0,0,0,.36-1.05A1.749,1.749,0,0,0,2.1-3.9,1.627,1.627,0,0,0,.69-3C-1.53.69-1.83,1.35-1.83,1.89A1.332,1.332,0,0,0-.48,3.18,1.364,1.364,0,0,0,.54,2.7Zm12.9-16.56a1.567,1.567,0,0,0-1.56,1.56,1.619,1.619,0,0,0,1.59,1.59c.12,0,.27-.03.45-.03h.27c2.13,0,3.96.93,3.96,3.99a4.19,4.19,0,0,1-4.32,4.08A5.014,5.014,0,0,1,9.45-4.74a1.611,1.611,0,0,0-1.17-.57,1.862,1.862,0,0,0-1.77,1.8C6.51-2.1,9.21.54,13.68.54c4.53,0,7.77-3,7.77-7.23a6.3,6.3,0,0,0-3.57-5.79,4.8,4.8,0,0,0,2.43-4.41c0-3.36-2.43-5.79-6.24-5.79-2.61,0-6.06,1.74-6.06,3.42a1.76,1.76,0,0,0,1.68,1.68,1.507,1.507,0,0,0,1.05-.45,4.29,4.29,0,0,1,3.18-1.56,2.862,2.862,0,0,1,3.12,2.7c0,1.77-.87,2.97-2.7,3.03ZM32.28.57c7.26,0,7.53-8.16,7.53-11.55,0-1.29-.09-2.61-.21-3.93-.48-5.01-3.3-7.77-7.32-7.77-4.08,0-6.93,2.88-7.35,8.1-.09,1.23-.15,2.4-.15,3.54,0,1.26.06,2.52.18,3.81C25.44-2.19,28.29.57,32.28.57Zm0-3.15c-1.95,0-3.57-1.77-3.93-4.83a31.077,31.077,0,0,1-.21-3.75c0-1.08.06-2.19.15-3.3.3-3.21,1.89-5.13,3.99-5.13,4.11,0,4.11,5.94,4.11,8.25a32,32,0,0,1-.27,4.23C35.7-4.26,34.14-2.58,32.28-2.58Zm18,3.15c7.26,0,7.53-8.16,7.53-11.55,0-1.29-.09-2.61-.21-3.93-.48-5.01-3.3-7.77-7.32-7.77-4.08,0-6.93,2.88-7.35,8.1-.09,1.23-.15,2.4-.15,3.54,0,1.26.06,2.52.18,3.81C43.44-2.19,46.29.57,50.28.57Zm0-3.15c-1.95,0-3.57-1.77-3.93-4.83a31.077,31.077,0,0,1-.21-3.75c0-1.08.06-2.19.15-3.3.3-3.21,1.89-5.13,3.99-5.13,4.11,0,4.11,5.94,4.11,8.25a32,32,0,0,1-.27,4.23C53.7-4.26,52.14-2.58,50.28-2.58Z" transform="translate(4866.506 1747.324)" fill="#f9bf29"/>
    <g id="長方形_8" data-name="長方形 8" transform="translate(4805.506 1764.324)" fill="#dde3e9" stroke="#dde3e9" stroke-width="1">
      <rect width="123" height="67" rx="5" stroke="none"/>
      <rect x="0.5" y="0.5" width="122" height="66" rx="4.5" fill="none"/>
    </g>
    <rect id="長方形_10" data-name="長方形 10" width="18" height="13" rx="1" transform="translate(4901.506 1791.324)" fill="#fff"/>
    <rect id="Name-5" data-name="Name" width="24.171" height="7" rx="3" transform="translate(4814.506 1814.173)" fill="#eaf0f7"/>
    <rect id="Name-6" data-name="Name" width="24.171" height="7" rx="3" transform="translate(4842.335 1814.173)" fill="#eaf0f7"/>
    <rect id="Name-7" data-name="Name" width="24.171" height="7" rx="3" transform="translate(4870.164 1814.173)" fill="#eaf0f7"/>
    <rect id="Name-8" data-name="Name" width="24.171" height="7" rx="3" transform="translate(4897.993 1814.173)" fill="#eaf0f7"/>
    <circle id="楕円形_9" data-name="楕円形 9" cx="7" cy="7" r="7" transform="translate(4815.506 1774.324)" fill="#fff"/>
    <circle id="楕円形_10" data-name="楕円形 10" cx="7" cy="7" r="7" transform="translate(4826.506 1774.324)" fill="#fff"/>
    <circle id="楕円形_11" data-name="楕円形 11" cx="34" cy="34" r="34" transform="translate(4833.506 1851.324)" fill="#fff" stroke="#f9bf29" stroke-width="8"/>
    <path id="パス_303" data-name="パス 303" d="M3881.923,1329.709l15.128,12.935,17.831-22.22" transform="translate(968.559 553.79)" fill="none" stroke="#71bfa4" stroke-linecap="round" stroke-linejoin="round" stroke-width="7"/>
    <rect id="Background-2" data-name="Background" width="223.751" height="70.362" rx="4" transform="translate(4755 1855.878)" fill="none"/>
  </g>
</svg>
