<svg xmlns="http://www.w3.org/2000/svg" xmlns:xlink="http://www.w3.org/1999/xlink" width="106.667" height="60" viewBox="0 0 106.667 60">
  <defs>
    <clipPath id="clip-path">
      <path id="path3446" d="M14.4-375c0,5.135,17.432,9.3,38.934,9.3h0c21.5,0,38.934-4.163,38.934-9.3h0c0-5.135-17.432-9.3-38.934-9.3h0c-21.5,0-38.934,4.163-38.934,9.3" transform="translate(-14.4 384.299)"/>
    </clipPath>
    <radialGradient id="radial-gradient" cx="0.628" cy="0.8" r="1.248" gradientTransform="translate(-0.009 0.511) scale(0.526 1)" gradientUnits="objectBoundingBox">
      <stop offset="0" stop-color="#aeb2d5"/>
      <stop offset="0.3" stop-color="#aeb2d5"/>
      <stop offset="0.75" stop-color="#484c89"/>
      <stop offset="1" stop-color="#484c89"/>
    </radialGradient>
    <clipPath id="clip-path-2">
      <path id="path3470" d="M0-405H106.667v60H0Z" transform="translate(0 405)"/>
    </clipPath>
  </defs>
  <g id="php" transform="translate(0 405)">
    <g id="g3440" transform="translate(14.4 -384.299)">
      <g id="g3442" clip-path="url(#clip-path)">
        <g id="g3448">
          <g id="g3450">
            <path id="path3462" d="M14.4-375c0,5.135,17.432,9.3,38.934,9.3h0c21.5,0,38.934-4.163,38.934-9.3h0c0-5.135-17.432-9.3-38.934-9.3h0c-21.5,0-38.934,4.163-38.934,9.3" transform="translate(-14.4 384.299)" fill="url(#radial-gradient)"/>
          </g>
        </g>
      </g>
    </g>
    <g id="g3464" transform="translate(0 -405)">
      <g id="g3466" clip-path="url(#clip-path-2)">
        <g id="g3472" transform="translate(4.133 5.066)">
          <path id="path3474" d="M-282.9-286.735c27.172,0,49.2-11.163,49.2-24.934S-255.728-336.6-282.9-336.6s-49.2,11.163-49.2,24.934,22.028,24.934,49.2,24.934" transform="translate(332.1 336.603)" fill="#777bb3"/>
        </g>
      </g>
    </g>
    <g id="g3476" transform="translate(0 -405)">
      <g id="g3478" clip-path="url(#clip-path-2)">
        <g id="g3484" transform="translate(17.717 17.536)">
          <path id="path3486" d="M-70.344-89.444a8.165,8.165,0,0,0,4.958-1.224,6.626,6.626,0,0,0,2.143-4.139c.352-1.816.218-3.084-.4-3.768S-65.637-99.63-67.7-99.63h-3.571l-1.979,10.185ZM-82.022-76.9a.555.555,0,0,1-.429-.2.555.555,0,0,1-.117-.459l5.246-26.991a.556.556,0,0,1,.545-.449H-65.47c3.553,0,6.2.965,7.861,2.868s2.187,4.587,1.534,7.948A12.686,12.686,0,0,1-57.435-90.4a12.655,12.655,0,0,1-2.5,3.135A10.976,10.976,0,0,1-64.055-84.8a18.652,18.652,0,0,1-5.657.728H-74.29L-75.6-77.348a.555.555,0,0,1-.545.45Z" transform="translate(82.578 105)"/>
        </g>
        <g id="g3488" transform="translate(17.162 16.98)">
          <path id="path3490" d="M-70.865-37.269h3.113c2.485,0,3.349.545,3.642.87.487.54.579,1.677.266,3.29a6.108,6.108,0,0,1-1.937,3.8A7.659,7.659,0,0,1-70.4-28.194h-2.229Zm5.339-6.481H-76.832a1.111,1.111,0,0,0-1.091.9L-83.169-15.86a1.111,1.111,0,0,0,.233.919,1.111,1.111,0,0,0,.857.4h5.88a1.111,1.111,0,0,0,1.091-.9l1.22-6.277h4.12a19.2,19.2,0,0,0,5.829-.755,11.531,11.531,0,0,0,4.325-2.59,13.216,13.216,0,0,0,2.607-3.27,13.241,13.241,0,0,0,1.42-3.945c.688-3.538.129-6.371-1.661-8.42-1.773-2.029-4.558-3.058-8.279-3.058m-8.451,16.667H-70.4a8.636,8.636,0,0,0,5.3-1.34,7.115,7.115,0,0,0,2.35-4.474q.584-3.009-.532-4.246t-4.467-1.237h-4.029l-2.2,11.3m8.451-15.556q5.1,0,7.442,2.678t1.407,7.477a12.085,12.085,0,0,1-1.3,3.615,12.054,12.054,0,0,1-2.393,3,10.385,10.385,0,0,1-3.914,2.348,18.024,18.024,0,0,1-5.485.7H-74.8L-76.2-15.648h-5.88l5.246-26.991h11.306" transform="translate(83.189 43.75)" fill="#fff"/>
        </g>
        <g id="g3492" transform="translate(42.747 10.36)">
          <path id="path3494" d="M-85.984-161.586a.555.555,0,0,1-.429-.2.555.555,0,0,1-.117-.459l2.321-11.942c.221-1.136.166-1.951-.153-2.3-.2-.211-.783-.564-2.52-.564h-4.2L-94-162.035a.556.556,0,0,1-.545.45h-5.833a.555.555,0,0,1-.429-.2.555.555,0,0,1-.117-.459l5.246-26.991a.556.556,0,0,1,.545-.449H-89.3a.556.556,0,0,1,.429.2.556.556,0,0,1,.117.459l-1.266,6.514H-85.5c3.445,0,5.782.607,7.142,1.857,1.387,1.275,1.82,3.313,1.286,6.059l-2.441,12.56a.555.555,0,0,1-.545.45Z" transform="translate(100.938 189.688)"/>
        </g>
        <g id="g3496" transform="translate(42.191 9.804)">
          <path id="path3498" d="M-70.1,0h-5.833a1.111,1.111,0,0,0-1.091.9L-82.265,27.89a1.111,1.111,0,0,0,.233.919,1.111,1.111,0,0,0,.857.4h5.833a1.111,1.111,0,0,0,1.091-.9l2.83-14.564h3.746c1.734,0,2.1.37,2.112.386.105.113.244.637.015,1.811L-67.867,27.89a1.111,1.111,0,0,0,.233.919,1.111,1.111,0,0,0,.857.4h5.926a1.111,1.111,0,0,0,1.091-.9l2.441-12.56c.573-2.948.083-5.16-1.456-6.574-1.468-1.348-3.927-2-7.518-2h-3.849L-69,1.323A1.111,1.111,0,0,0-69.238.4,1.111,1.111,0,0,0-70.1,0m0,1.111L-71.49,8.287h5.2q4.9,0,6.766,1.711t1.117,5.544L-60.85,28.1h-5.926l2.321-11.942q.4-2.038-.291-2.779t-2.927-.741h-4.662l-3,15.463h-5.833l5.246-26.991H-70.1" transform="translate(82.285)" fill="#fff"/>
        </g>
        <g id="g3500" transform="translate(63.609 17.536)">
          <path id="path3502" d="M-70.344-89.444a8.165,8.165,0,0,0,4.958-1.224,6.626,6.626,0,0,0,2.143-4.139c.352-1.816.218-3.084-.4-3.768s-2-1.053-4.054-1.053h-3.571l-1.979,10.185ZM-82.022-76.9a.555.555,0,0,1-.429-.2.555.555,0,0,1-.117-.459l5.246-26.991a.556.556,0,0,1,.546-.449H-65.47c3.554,0,6.2.965,7.861,2.868s2.187,4.587,1.534,7.948a12.7,12.7,0,0,1-1.36,3.779,12.655,12.655,0,0,1-2.5,3.135A10.976,10.976,0,0,1-64.055-84.8a18.652,18.652,0,0,1-5.657.728H-74.29L-75.6-77.348a.556.556,0,0,1-.546.45Z" transform="translate(82.578 105)"/>
        </g>
        <g id="g3504" transform="translate(63.053 16.98)">
          <path id="path3506" d="M-70.864-37.269h3.113c2.485,0,3.349.545,3.642.87.487.54.579,1.677.266,3.29a6.109,6.109,0,0,1-1.937,3.8A7.659,7.659,0,0,1-70.4-28.194h-2.228Zm5.339-6.481H-76.831a1.111,1.111,0,0,0-1.091.9L-83.168-15.86a1.111,1.111,0,0,0,.233.919,1.111,1.111,0,0,0,.857.4h5.88a1.111,1.111,0,0,0,1.091-.9l1.22-6.277h4.12a19.2,19.2,0,0,0,5.829-.755,11.531,11.531,0,0,0,4.325-2.59A13.209,13.209,0,0,0-57-28.327a13.241,13.241,0,0,0,1.42-3.945c.688-3.538.129-6.371-1.661-8.42-1.773-2.029-4.558-3.058-8.279-3.058m-8.45,16.667H-70.4a8.636,8.636,0,0,0,5.3-1.34,7.114,7.114,0,0,0,2.35-4.474q.584-3.009-.532-4.246t-4.467-1.237H-71.78l-2.2,11.3m8.45-15.556q5.1,0,7.442,2.678t1.407,7.477a12.085,12.085,0,0,1-1.3,3.615,12.054,12.054,0,0,1-2.393,3,10.385,10.385,0,0,1-3.914,2.348,18.024,18.024,0,0,1-5.485.7H-74.8L-76.2-15.648h-5.88l5.246-26.991h11.306" transform="translate(83.188 43.75)" fill="#fff"/>
        </g>
      </g>
    </g>
  </g>
</svg>
