<svg xmlns="http://www.w3.org/2000/svg" width="20.405" height="20.934" viewBox="0 0 20.405 20.934">
  <path id="pickbox" d="M119.414,23.14a.967.967,0,0,0-.668-.881l-8.8-2.829a2.331,2.331,0,0,0-1.421,0l-8.813,2.843a.966.966,0,0,0-.668.881V33.715a2.609,2.609,0,0,0,1.372,2.317l7.4,3.859a3.112,3.112,0,0,0,2.914,0l7.349-3.859a2.608,2.608,0,0,0,1.372-2.317v-2a.711.711,0,1,0-1.421,0v2a1.2,1.2,0,0,1-.611,1.059l-7.384,3.859h-.085V27.61a3.712,3.712,0,0,0,.761-.22l7.285-2.985V26.26a.711.711,0,0,0,1.421,0ZM101.092,34.774a1.2,1.2,0,0,1-.611-1.059v-9.31l7.285,2.985a3.71,3.71,0,0,0,.761.22V38.669h-.085Zm9.083-8.7a2.452,2.452,0,0,1-1.876,0l-6.936-2.843,7.612-2.445a.831.831,0,0,1,.526,0l7.611,2.445Z" transform="translate(-99.045 -19.319)" fill="#ffbc02"/>
</svg>
