<svg xmlns="http://www.w3.org/2000/svg" width="280" height="55.415" viewBox="0 0 280 55.415">
  <path id="Title_PLATFORM:MOBILE_TAG:H4_" data-name="Title [PLATFORM:MOBILE][TAG:H4]" d="M-257.364-46.705V-98.376h24.446q11.47,0,11.47,11.47v9.757q0,11.45-11.47,11.45h-18.146v18.993Zm6.3-24.715h18.272q5.043,0,5.043-5.1V-87.611q0-5.042-5.043-5.042h-18.272ZM-211.255-92.9v-7.013h6.611V-92.9Zm.31,46.193V-85.636h5.991v38.931Zm17.392-11.246V-74.39q0-11.246,11.246-11.246h14.675l3,2.238v3.013h-17.683q-5.245,0-5.245,5.245V-57.2q0,5.245,5.245,5.245h17.683v3.013l-3,2.238h-14.675Q-193.553-46.705-193.553-57.951Zm38.365,11.246V-102.12h5.991v36.284l18.047-19.8h5.841l.546,1.114L-138.691-69.3l14.977,21.481-.546,1.114h-5.873l-12.523-18.277-6.541,7.054v11.222Zm40.308,0V-98.376h23.7q11.47,0,11.47,11.47v5.134a6.562,6.562,0,0,1-1.5,4.343l-2.621,3.145,3.145,2.621a7.288,7.288,0,0,1,2.471,5.991v7.494q0,11.471-11.47,11.471Zm6.3-5.723h19.021q5.043,0,5.043-5.042V-65.9q0-5.042-5.043-5.042h-19.021Zm0-24.235h17.523q5.043,0,5.043-5.1v-5.853q0-5.042-5.043-5.042h-17.523Zm40.568,18.712V-74.39q0-11.246,11.246-11.246h10.484q11.192,0,11.192,11.246v16.44q0,11.246-11.192,11.246H-56.766Q-68.011-46.705-68.011-57.951Zm5.991.749q0,5.245,5.245,5.245h10.449q5.245,0,5.245-5.245V-75.139q0-5.245-5.245-5.245H-56.775q-5.245,0-5.245,5.245Zm34.568,9.383L-13.666-66.56-26.941-84.522l.546-1.114h5.551l10.617,14.713L.39-85.636H5.941l.546,1.114L-6.733-66.56,7-47.819l-.493,1.114H.9l-11.13-15.472-11.13,15.472h-5.552Zm42.805,1.114v-8.051h7.284v8.051Z" transform="translate(257.364 102.12)" fill="#3b5d50"/>
</svg>
