<svg xmlns="http://www.w3.org/2000/svg" width="100" height="100" viewBox="0 0 100 100">
  <g id="seo" transform="translate(-72.171 -39.546)">
    <path id="パス_473" data-name="パス 473" d="M178.185,52.5H93.977A6.477,6.477,0,0,0,87.5,58.977v55.059a6.477,6.477,0,0,0,6.477,6.477h31.83l-3.886,12.955h-3.653v3.239h35.626v-3.239h-3.653l-1.6-5.324-3.1.933,1.318,4.392H125.3l4.233-14.109a1.619,1.619,0,0,0-1.551-2.084H93.977a3.238,3.238,0,0,1-3.239-3.239V110.8h32.387v-3.239H90.738V58.977a3.238,3.238,0,0,1,3.239-3.239h84.207a3.238,3.238,0,0,1,3.239,3.239v48.581h-8.1V110.8h8.1v3.239a3.238,3.238,0,0,1-1.08,2.415l2.16,2.413h0a6.485,6.485,0,0,0,2.159-4.827V58.977a6.477,6.477,0,0,0-6.477-6.477Z" transform="translate(-14.329)"/>
    <path id="パス_474" data-name="パス 474" d="M560,315h3.239v3.239H560Z" transform="translate(-397.546 -213.919)"/>
    <path id="パス_475" data-name="パス 475" d="M122.5,246.932h27.529a1.619,1.619,0,0,0,1.619-1.619V229.119a1.619,1.619,0,0,0-1.619-1.619h-6.477a1.619,1.619,0,0,0-1.619,1.619v14.574h-3.239V232.358a1.619,1.619,0,0,0-1.619-1.619H130.6a1.619,1.619,0,0,0-1.619,1.619v11.336H122.5Zm22.671-16.194h3.239v12.955h-3.239Zm-12.955,3.239h3.239v9.716h-3.239Z" transform="translate(-41.015 -142.613)"/>
    <path id="パス_476" data-name="パス 476" d="M307.216,181.477v-4.858A1.619,1.619,0,0,0,305.6,175h-6.477a1.619,1.619,0,0,0-1.619,1.619v11.336h3.239v-9.716h3.239v3.239Z" transform="translate(-183.627 -99.829)"/>
    <path id="パス_477" data-name="パス 477" d="M377.216,133.836v-9.716A1.619,1.619,0,0,0,375.6,122.5h-6.477a1.619,1.619,0,0,0-1.619,1.619v11.336h3.239v-9.716h3.239v8.1Z" transform="translate(-240.672 -57.045)"/>
    <path id="パス_478" data-name="パス 478" d="M447.216,165.6v-6.477A1.619,1.619,0,0,0,445.6,157.5h-6.477a1.619,1.619,0,0,0-1.619,1.619v4.858h3.239v-3.239h3.239V165.6Z" transform="translate(-297.717 -85.568)"/>
    <path id="パス_479" data-name="パス 479" d="M515.6,105h-6.477a1.62,1.62,0,0,0-1.619,1.619v19.432h3.239V108.239h3.239v27.529h3.239V106.619A1.619,1.619,0,0,0,515.6,105Z" transform="translate(-354.762 -42.784)"/>
    <path id="パス_480" data-name="パス 480" d="M131.25,87.5h3.239v3.239H131.25Z" transform="translate(-48.145 -28.523)"/>
    <path id="パス_481" data-name="パス 481" d="M166.25,87.5h3.239v3.239H166.25Z" transform="translate(-76.668 -28.523)"/>
    <path id="パス_482" data-name="パス 482" d="M201.25,87.5h3.239v3.239H201.25Z" transform="translate(-105.19 -28.523)"/>
    <path id="パス_483" data-name="パス 483" d="M339.318,234.23a22.747,22.747,0,1,0-6.781,7.515l13.988,13.988a5.055,5.055,0,0,0,7.148-7.148Zm-39.224-11.025a19.452,19.452,0,1,1,5.7,13.735A19.432,19.432,0,0,1,300.094,223.206Zm50,30.768a1.808,1.808,0,0,1-1.284-.531L335.05,239.678a22.947,22.947,0,0,0,2.437-2.7l13.893,13.893a1.816,1.816,0,0,1-1.281,3.1Z" transform="translate(-182.982 -120.506)"/>
    <path id="パス_484" data-name="パス 484" d="M348.694,236.25A16.211,16.211,0,1,0,360.139,241,16.193,16.193,0,0,0,348.694,236.25Zm0,29.149a12.97,12.97,0,1,1,9.156-3.8A12.952,12.952,0,0,1,348.694,265.4Z" transform="translate(-212.15 -149.744)"/>
    <text id="SEO-2" data-name="SEO" transform="translate(136.587 106.636)" font-size="11" font-family="Eurostile-Bla, Eurostile"><tspan x="-10.434" y="0">SEO</tspan></text>
    <rect id="長方形_48" data-name="長方形 48" width="100" height="100" transform="translate(72.171 39.546)" fill="none"/>
  </g>
</svg>
