<svg xmlns="http://www.w3.org/2000/svg" width="24.069" height="20" viewBox="0 0 24.069 20">
  <path id="twitter" d="M17.027,3.485a5.493,5.493,0,0,1,3.665,1.4,9.913,9.913,0,0,0,2.3-1.207A1,1,0,0,1,24.54,4.732a8.737,8.737,0,0,1-2,3.786c.015.162.023.326.023.488a16.188,16.188,0,0,1-1.117,6.074,13.329,13.329,0,0,1-3.034,4.574,13.637,13.637,0,0,1-9.636,3.831,16.055,16.055,0,0,1-7.761-2.066,1,1,0,0,1,.525-1.873c.141.006.284.008.424.008a10.635,10.635,0,0,0,4.473-.981,9.687,9.687,0,0,1-4.286-5.185,11.614,11.614,0,0,1-.24-6.065,13.654,13.654,0,0,1,.439-1.6c.056-.162.112-.315.167-.454.022-.056.04-.1.052-.127a1,1,0,0,1,1.756-.223,9.7,9.7,0,0,0,7.21,4.1,5.495,5.495,0,0,1,5.493-5.534ZM20.419,7.03a1,1,0,0,1-.755-.344,3.494,3.494,0,0,0-6.13,2.34s0,.009,0,.013v1a1,1,0,0,1-.974,1c-.1,0-.2,0-.3,0a11.706,11.706,0,0,1-8.345-3.5,10.948,10.948,0,0,0-.281,2.991c.169,3.218,1.951,5.6,5.3,7.091a1,1,0,0,1,.155,1.741,12.657,12.657,0,0,1-3.615,1.7,13.38,13.38,0,0,0,3.306.422,11.649,11.649,0,0,0,8.235-3.259,12.545,12.545,0,0,0,3.552-9.217,3.516,3.516,0,0,0-.062-.645,1,1,0,0,1,.28-.9,6.752,6.752,0,0,0,.627-.711q-.345.128-.7.234A1,1,0,0,1,20.419,7.03Z" transform="translate(-0.5 -3.484)" fill="#fff"/>
</svg>
