<svg xmlns="http://www.w3.org/2000/svg" width="843.645" height="639.397" viewBox="0 0 843.645 639.397">
  <g id="usecase" transform="translate(-1.354)">
    <g id="Scene" transform="translate(1.349)">
      <path id="Twisted_Leaf" data-name="Twisted Leaf" d="M92.236,1.2A6.69,6.69,0,0,0,90.081.625,34.937,34.937,0,0,0,83.347,0,124.252,124.252,0,0,0,62.526,1.871c-4.334.749-9.573,3.268-13.885,1.9C41.13,1.387,33.539,1.5,26.413,4.907,19.9,8.02,14.952,13.93,12.066,20.317a39.165,39.165,0,0,0-2.7,6.9c-.214.489-.419.982-.6,1.481-.526,1.419-1,2.863-1.435,4.31-.187.617-.658,1.98-.1,2.243a41.018,41.018,0,0,0-2.344,5.1c-1.923,5.1-4.019,10.7-4.693,16.1a25.185,25.185,0,0,0-.027,6.019c.115.991.067,2.984.739,3.738,1.426,1.6,2.158-.639,2-1.706C1.678,56.378,4.049,48.747,6.858,41.1A48.07,48.07,0,0,1,15,27.558a34.2,34.2,0,0,1,9.318-8.118A145.692,145.692,0,0,1,38.51,12.4c3.16-1.433,6.324-2.828,9.573-4.062a9.541,9.541,0,0,1,2.66-.982c1.694-.006,4.094,1.244,5.73,1.709,5.381,1.53,10.831,3.489,16.393,4.27a21.14,21.14,0,0,0,10.246-1.251,9.59,9.59,0,0,0,1.613-.879,23.4,23.4,0,0,0,6.86-3.882A27.36,27.36,0,0,0,94.8,3.864a1.814,1.814,0,0,0,.424-1.141.687.687,0,0,0,.4-.407c.243-1.16-1.97-1.182-3.387-1.113" transform="translate(693.337 152.039)" fill="#89c5cc"/>
      <path id="Fill_16" data-name="Fill 16" d="M10.767,0c-1.752,0-3.5.035-5.249.126C4.183.2,2.144-.08,1.016.747-.157,1.607-.077,3.366.107,4.609c.969,6.57,3.332,12.4,8.278,17.052C16,28.828,24.728,32.47,35.057,34.092c7.256,1.139,13.954-.443,19.3-5.577A79.868,79.868,0,0,1,62.7,51.75a55.4,55.4,0,0,1,.828,11.942c-.083,2.591-.227,5.176-.506,7.754-.121,1.121-.7,2.817-.254,3.875a1.781,1.781,0,0,0,3.045.3c.652-.882.532-2.615.666-3.66.222-1.735.427-3.471.574-5.214.239-2.821.415-5.65.4-8.482a62.956,62.956,0,0,0-3.4-18.789C60.331,27.9,54.279,17.6,44.866,9.519c-5.787-4.968-12.411-6.98-19.926-8.06A100.371,100.371,0,0,0,10.767,0" transform="translate(65.064 271.256) rotate(-39)" fill="#dde3e9"/>
      <path id="Leaf" d="M73.51,163.145c-1.421-11.316-2.925-22.567-5.679-33.664-1.623-6.539-3.7-12.94-5.592-19.4q.254,1.216.449,2.445c-.657-1.928-2.03-3.772-2.82-5.694-.881-2.143-1.589-4.368-2.262-6.581-1.314-4.318-2.553-8.643-4.031-12.912-1.648-4.759-3.545-9.439-5.312-14.15A114.815,114.815,0,0,0,43.4,61.17c-1.064-2.081-2.019-4.316-3.064-6.437-.35-.71-3.351-8.64-3.328-8.64.5,0,2.357,3.525,2.666,4.043.9,1.512,1.667,3.086,2.44,4.663a20.765,20.765,0,0,1,1.7-5.427c.257-.531,2.062-4.45,2.649-4.45.294,0-2.419,7.4-2.762,8.05a13.4,13.4,0,0,0-.982,1.758c-.294.907-.142.68.1,1.5a42.963,42.963,0,0,0,2.045,4.407,31.333,31.333,0,0,0,1.99,4.625c2.1,4.1,3.585,9.092,5.181,13.509a28.922,28.922,0,0,1,1.758-6.305c.195-.485,1.745-4.985,2.192-4.985.5,0-1.422,7.208-1.683,7.83-.486,1.156-1.249,2.276-1.653,3.453-.443,1.292.335,2.455.831,3.776C55.3,87.4,56.9,92.311,58.365,97.287c8.487-3.717,10.174-14.656,10.728-22.724a56.363,56.363,0,0,0-1.912-17.375A116.116,116.116,0,0,0,58.769,35.4a77.953,77.953,0,0,0-15.8-21.816A83.359,83.359,0,0,0,31.778,4.637a23.818,23.818,0,0,0-6.131-3.161,22.206,22.206,0,0,0-3.1-.756c-.8-.14-2.421-.878-3.081-.69C14.079,1.522,10.026,4,6.884,8.615a40.351,40.351,0,0,0-5.847,14.7A46.8,46.8,0,0,0,.6,40.508a106.248,106.248,0,0,0,3.332,12.92c4.6,15.116,12.655,31.321,27.113,39.613a44,44,0,0,0,15.2,5.085,37.553,37.553,0,0,0,3.782.454c.857.049,3.674-.521,4.294-.151.85.507,1.338,3.38,1.709,4.422,2.815,7.919,5.333,15.927,7.617,24.008,2.43,8.6,4.361,17.277,5.969,26.054.684,3.733,1.35,7.46,1.917,11.214.132.873,0,3.62.848,4.391A1.028,1.028,0,0,0,74,168.209c.558-1.038-.351-3.9-.5-5.063" transform="matrix(0.799, -0.602, 0.602, 0.799, 0, 124.996)" fill="#c1dee2"/>
      <path id="Fill_10" data-name="Fill 10" d="M77.578.6A42.464,42.464,0,0,0,67.967.03,59.715,59.715,0,0,0,23.9,20.937c-9.147,10.828-11.662,24.289-13.47,37.9-.179,1.351-.256,2.694-.357,4.048-.022.291-.054.55-.089.794a1.748,1.748,0,0,0-.663,2.19A90.464,90.464,0,0,0,5.3,76.428C1.951,87.093-1.451,97.961.645,109.175A156.687,156.687,0,0,1,3.4,90.623q.106-.522.227-1.039l.024-.109a40.572,40.572,0,0,1,1.692-5.437l.022-.058c.091-.234.188-.466.283-.7.2-.481.4-.961.615-1.439q.109-.244.21-.492c1-2.459,1.427-5.231,2.326-7.776q.323-.868.675-1.729l.042-.1c.637-1.543,1.34-3.067,2.084-4.576a5.634,5.634,0,0,0,.969-1.742,10.894,10.894,0,0,0,.8-1.554q.657-1.271,1.316-2.541l-.04.015q.662-1.218,1.323-2.427l.292-.532.473-.846c1.473-2.635,3.034-5.218,4.656-7.769.579-.91,1.961-2.215,2.227-3.238a1.094,1.094,0,0,0,.018-.11A58.007,58.007,0,0,1,36.061,33.316c-.587.635-1.835,2.789-2.165,3.215-1.01,1.306-2.106,2.521-3.207,3.752a79.866,79.866,0,0,0-5.6,6.883A130.792,130.792,0,0,0,16.71,60.912c-.024.028-.051.054-.074.082-1.282,1.58-2.088,3.967-3.011,5.775,3.651-1.691,7.688-2.793,11.435-4.294a93.958,93.958,0,0,0,10.881-5.121,121.422,121.422,0,0,0,13.91-8.863,55.11,55.11,0,0,0,13.04-11.97c4.432-5.354,8.494-10.754,11.006-17.255a51.814,51.814,0,0,0,2.78-9.9c.025-.147.057-.306.092-.472a32.413,32.413,0,0,0,1.557-3.571c.7-1.931,2.358-4.055-.749-4.733" transform="translate(697.023 194.833)" fill="#69a1ac"/>
      <path id="Leave_the_Leaf_" data-name="Leave the Leaf!" d="M48.431,73.986c.2,0,.418-.153.65-.455.535-.7.106-2.96-.125-4.177-.041-.217-.076-.4-.1-.53a26.163,26.163,0,0,0-.692-3.165A91.294,91.294,0,0,0,44.8,56.367c-.461-1.132-.944-2.3-1.435-3.488-.091-.22-.17-.382-.232-.513-.225-.468-.225-.468.233-.968l.081-.089a6.349,6.349,0,0,1,.835-.721,7.777,7.777,0,0,0,.7-.583,15.728,15.728,0,0,0,3.837-6.358,15.956,15.956,0,0,0,.694-6.954,27.337,27.337,0,0,0-1.784-6.818,54.719,54.719,0,0,0-5.55-10.725A49.456,49.456,0,0,0,34.3,9.89,42.9,42.9,0,0,0,21.221,2.24,27.707,27.707,0,0,0,12.857.282C12.455.254,12.039.24,11.62.24A22.7,22.7,0,0,0,8.842.422c-.261.032-.534.086-.8.137A8.19,8.19,0,0,1,6.916.727l-.179.01C6.612.744,6.514.75,6.429.75c-.346,0-.483-.1-.919-.529A.632.632,0,0,0,5.094,0a.376.376,0,0,0-.338.288,1.032,1.032,0,0,0,.283,1.079A7.718,7.718,0,0,0,1.5,4.492,11.128,11.128,0,0,0,.117,8.942a32.121,32.121,0,0,0,.762,9.552,43.786,43.786,0,0,0,3.093,9.534,50.145,50.145,0,0,0,4.992,8.529,72.1,72.1,0,0,0,14.111,14.3,20.614,20.614,0,0,0,9.479,4.332,11.047,11.047,0,0,0,1.806.15,12.107,12.107,0,0,0,3.79-.636c.095-.031.216-.066.357-.107.577-.167,1.45-.419,1.666-.779.193-.324.014-.6-.212-.958-.067-.1-.136-.212-.2-.33l-.747-1.359c-.656-1.195-1.334-2.43-2.014-3.638-.107-.191-.221-.442-.341-.709a4.632,4.632,0,0,0-1.035-1.681.638.638,0,0,0-.171-.016,1.338,1.338,0,0,1-.542-.089c-.115-.073-.133-.281-.145-.418-.006-.069-.011-.124-.026-.132a5.884,5.884,0,0,0-2.052-.471c-.346-.04-.672-.078-.93-.133-.712-.152-1.551-.343-2.38-.6a26.406,26.406,0,0,1-2.5-.927c-.173-.074-.423-.218-.688-.37a4.731,4.731,0,0,0-1.4-.643,22.873,22.873,0,0,1,5.347.957,20.836,20.836,0,0,1,2.789.97c.11.047.29.147.5.263a4.637,4.637,0,0,0,1.461.635.238.238,0,0,0,.122-.027,54.373,54.373,0,0,0-3.719-5.3c-.693-.876-1.426-1.821-2.088-2.8-.043-.063-.148-.252-.281-.492a7.34,7.34,0,0,0-1.164-1.789c.422,0,1.339.989,1.887,1.579.159.171.3.318.383.4a25.512,25.512,0,0,1,2.013,2.15,48.81,48.81,0,0,1,2.989,4.053c1.324,1.978,2.488,4.042,3.567,5.986.249.448.516.906.775,1.349A26.771,26.771,0,0,1,41.3,53.031a.227.227,0,0,1,.134-.057c.144,0,.213.233.279.458a2.4,2.4,0,0,0,.076.23c.35.84.692,1.662,1.029,2.48.71,1.728,1.278,3.155,1.787,4.491l.027.071c.6,1.566,1.215,3.186,1.713,4.811a27.527,27.527,0,0,1,1.026,4.664c.079.631.134,1.268.164,1.895C47.564,72.584,47.82,73.986,48.431,73.986Zm-2.9-29.461a17.082,17.082,0,0,1-2.707,4.512c.632-.935,1.175-1.793,1.663-2.623.111-.188.322-.58.526-.96.253-.473.493-.919.516-.929ZM33.47,31.376c.287,0,.594,2.569.625,3a12.517,12.517,0,0,1-.494,4.216v0a16.152,16.152,0,0,0-.128-2.024c-.18-2.016-.426-4.777-.088-5.147a.112.112,0,0,1,.085-.044Z" transform="matrix(0.53, -0.848, 0.848, 0.53, 54.151, 221.846)" fill="#89c5cc"/>
      <g id="Background_Shape_2" data-name="Background Shape 2" transform="translate(43.292 320.864)" opacity="0.6">
        <path id="Background_Shape" data-name="Background Shape" d="M755.183,153.59c11.013,68.648-256.069,113.425-485.952,82.176S-66.111,82.488,43.585,17.466,744.171,84.942,755.183,153.59Z" fill="#dde3e9"/>
      </g>
      <g id="Mobile3" transform="translate(165.302 33.538)">
        <rect id="Container" width="143" height="272" rx="8" fill="#f2f2f2"/>
        <circle id="Touch" cx="13.534" cy="13.534" r="13.534" transform="translate(57.746 228.276)" fill="#fff"/>
        <g id="Camera" transform="translate(57.746 14.436)">
          <circle id="Lens" cx="1.805" cy="1.805" r="1.805" fill="#fff"/>
          <rect id="Sensor" width="18" height="3" rx="1" transform="translate(8.12)" fill="#fff"/>
        </g>
        <g id="Rows" transform="translate(12.632 25.264)">
          <g id="Row">
            <rect id="Background" width="118" height="48" rx="4" fill="#fff"/>
            <g id="Text" transform="translate(35.189 14.617)">
              <rect id="Name" width="65" height="7" rx="3" fill="#dde3e9"/>
              <rect id="Name-2" data-name="Name" width="44" height="7" rx="3" transform="translate(0 12.181)" fill="#dde3e9"/>
            </g>
            <circle id="Avatar" cx="10.827" cy="10.827" r="10.827" transform="translate(8.12 13.534)" fill="#c5cfd6"/>
          </g>
          <g id="Row-2" data-name="Row" transform="translate(0 55.941)">
            <rect id="Background-2" data-name="Background" width="118" height="37" rx="4" fill="#fff"/>
            <g id="Text-2" data-name="Text" transform="translate(35.189 11.369)">
              <rect id="Name-3" data-name="Name" width="65" height="5" rx="2" fill="#dde3e9"/>
              <rect id="Name-4" data-name="Name" width="44" height="5" rx="2" transform="translate(0 9.474)" fill="#dde3e9"/>
            </g>
            <circle id="Avatar-2" data-name="Avatar" cx="10.827" cy="10.827" r="10.827" transform="translate(8.12 8.12)" fill="#c5cfd6"/>
          </g>
          <g id="Row-3" data-name="Row" transform="translate(0 101.055)">
            <rect id="Background-3" data-name="Background" width="118" height="37" rx="4" fill="#fff"/>
            <g id="Text-3" data-name="Text" transform="translate(35.189 11.369)">
              <rect id="Name-5" data-name="Name" width="65" height="5" rx="2" fill="#dde3e9"/>
              <rect id="Name-6" data-name="Name" width="44" height="5" rx="2" transform="translate(0 9.474)" fill="#dde3e9"/>
            </g>
            <circle id="Avatar-3" data-name="Avatar" cx="10.827" cy="10.827" r="10.827" transform="translate(8.12 8.12)" fill="#afb9c5"/>
          </g>
          <g id="Row-4" data-name="Row" transform="translate(0 146.169)">
            <rect id="Background-4" data-name="Background" width="118" height="37" rx="4" fill="#fff"/>
            <g id="Text-4" data-name="Text" transform="translate(35.189 11.369)">
              <rect id="Name-7" data-name="Name" width="65" height="5" rx="2" fill="#dde3e9"/>
              <rect id="Name-8" data-name="Name" width="44" height="5" rx="2" transform="translate(0 9.474)" fill="#dde3e9"/>
            </g>
            <circle id="Avatar-4" data-name="Avatar" cx="10.827" cy="10.827" r="10.827" transform="translate(8.12 8.12)" fill="#c5cfd6"/>
          </g>
        </g>
      </g>
      <g id="Mobile3-2" data-name="Mobile3" transform="translate(191.298 63.948)">
        <g id="Group" transform="translate(0 196.696)">
          <path id="Fill_16-2" data-name="Fill 16" d="M7.344,0c-1.2,0-2.387.024-3.581.086-.91.048-2.3-.141-3.071.426-.8.589-.745,1.8-.62,2.647A19.2,19.2,0,0,0,5.719,14.848c5.194,4.913,11.149,7.41,18.195,8.522,4.95.781,9.519-.3,13.162-3.823a54.92,54.92,0,0,1,5.7,15.927,38.16,38.16,0,0,1,.565,8.186c-.057,1.776-.155,3.548-.345,5.315-.083.768-.474,1.931-.173,2.656a1.212,1.212,0,0,0,2.077.208,5.965,5.965,0,0,0,.454-2.509c.151-1.189.292-2.379.392-3.574.163-1.934.283-3.873.275-5.814A43.342,43.342,0,0,0,43.7,27.063,44.214,44.214,0,0,0,30.606,6.525C26.658,3.119,22.139,1.74,17.013,1A68.146,68.146,0,0,0,7.344,0" transform="translate(3.609)" fill="#89c5cc"/>
          <path id="Fill_18" data-name="Fill 18" d="M29.388,0C16.487,0,7.8,10.4,3.689,21.2,2.14,25.278,1.777,29.752,1.181,34.029.989,35.4,1.06,37.493.5,38.716c-.2.443-.666.6-.444,1.207a.98.98,0,0,0,.793.663c.812.149,1.959-.734,2.655-1.083,5.771-2.894,9.563-7.369,12.656-12.845a54.663,54.663,0,0,0,5-10.642A36.785,36.785,0,0,0,22.5,8.981a26.781,26.781,0,0,0,.179-2.817,5.68,5.68,0,0,0-.748-2.227,19.011,19.011,0,0,1,13.525-.385,17.331,17.331,0,0,1,9.259,8.372,15.972,15.972,0,0,1,1.137,3.086,10.622,10.622,0,0,0,.52,2.224c.805,1.522,2.5.5,2.337-.913a18.33,18.33,0,0,0-5.6-10.67A20.165,20.165,0,0,0,29.388,0" transform="translate(0 31.58)" fill="#89c5cc"/>
        </g>
        <rect id="Container-2" data-name="Container" width="143" height="272" rx="8" transform="translate(43.309)" fill="#dde3e9"/>
        <circle id="Touch-2" data-name="Touch" cx="13.534" cy="13.534" r="13.534" transform="translate(101.055 228.276)" fill="#fff"/>
        <g id="Camera-2" data-name="Camera" transform="translate(101.055 14.436)">
          <circle id="Lens-2" data-name="Lens" cx="1.805" cy="1.805" r="1.805" fill="#fff"/>
          <rect id="Sensor-2" data-name="Sensor" width="18" height="3" rx="1" transform="translate(8.12)" fill="#fff"/>
        </g>
        <g id="Rows-2" data-name="Rows" transform="translate(55.941 25.264)">
          <g id="Row-5" data-name="Row">
            <rect id="Container-3" data-name="Container" width="118" height="48" rx="4" fill="#fff"/>
            <g id="Text_Stuff" data-name="Text Stuff" transform="translate(8.12 14.617)">
              <rect id="Label" width="65" height="7" rx="3" fill="#dde3e9"/>
              <rect id="Label-2" data-name="Label" width="44" height="7" rx="3" transform="translate(0 12.181)" fill="#dde3e9"/>
            </g>
            <g id="Check" transform="translate(99.25 18.046)">
              <circle id="Background-5" data-name="Background" cx="6.316" cy="6.316" r="6.316" fill="#dde3e9"/>
              <circle id="Indicator" cx="2.707" cy="2.707" r="2.707" transform="translate(3.609 3.609)" fill="#f2f2f2"/>
            </g>
          </g>
          <g id="Row-6" data-name="Row" transform="translate(0 55.941)">
            <rect id="Background-6" data-name="Background" width="118" height="37" rx="4" fill="#fff"/>
            <g id="Text-5" data-name="Text" transform="translate(35.189 11.369)">
              <rect id="Name-9" data-name="Name" width="65" height="5" rx="2" fill="#dde3e9"/>
              <rect id="Name-10" data-name="Name" width="44" height="5" rx="2" transform="translate(0 9.474)" fill="#dde3e9"/>
            </g>
            <circle id="Avatar-5" data-name="Avatar" cx="10.827" cy="10.827" r="10.827" transform="translate(8.12 8.12)" fill="#c5cfd6"/>
          </g>
          <g id="Row-7" data-name="Row" transform="translate(0 101.055)">
            <rect id="Container-4" data-name="Container" width="118" height="37" rx="4" fill="#fff"/>
            <g id="Text_Stuff-2" data-name="Text Stuff" transform="translate(8.12 11.369)">
              <rect id="Label-3" data-name="Label" width="65" height="5" rx="2" fill="#dde3e9"/>
              <rect id="Label-4" data-name="Label" width="44" height="5" rx="2" transform="translate(0 9.474)" fill="#afb9c5"/>
            </g>
            <g id="Check-2" data-name="Check" transform="translate(99.25 12.632)">
              <circle id="Background-7" data-name="Background" cx="6.316" cy="6.316" r="6.316" fill="#dde3e9"/>
              <circle id="Indicator-2" data-name="Indicator" cx="2.707" cy="2.707" r="2.707" transform="translate(3.609 3.609)" fill="#f2f2f2"/>
            </g>
          </g>
          <g id="Row-8" data-name="Row" transform="translate(0 146.169)">
            <rect id="Background-8" data-name="Background" width="118" height="37" rx="4" fill="#fff"/>
            <g id="Text-6" data-name="Text" transform="translate(35.189 11.369)">
              <rect id="Name-11" data-name="Name" width="65" height="5" rx="2" fill="#dde3e9"/>
              <rect id="Name-12" data-name="Name" width="44" height="5" rx="2" transform="translate(0 9.474)" fill="#dde3e9"/>
            </g>
            <circle id="Avatar-6" data-name="Avatar" cx="10.827" cy="10.827" r="10.827" transform="translate(8.12 8.12)" fill="#c5cfd6"/>
          </g>
        </g>
      </g>
      <g id="Web" transform="translate(360.295 97.661)">
        <rect id="Container-5" data-name="Container" width="302" height="312" rx="8" fill="#f2f2f2"/>
        <rect id="Background-9" data-name="Background" width="63" height="73" rx="8" transform="translate(224.667 38.798)" fill="#fff"/>
        <g id="Profile_Info" data-name="Profile Info" transform="translate(233.69 52.332)">
          <circle id="Avatar-7" data-name="Avatar" cx="14.436" cy="14.436" r="14.436" transform="translate(8.12)" fill="#dde3e9"/>
          <rect id="Name-13" data-name="Name" width="45" height="5" rx="2" transform="translate(0 32.482)" fill="#dde3e9"/>
          <rect id="Name-14" data-name="Name" width="30" height="5" rx="2" transform="translate(7.218 41.505)" fill="#dde3e9"/>
        </g>
        <path id="Header" d="M8,0H294.263a8,8,0,0,1,8,8V24.361H0V8A8,8,0,0,1,8,0Z" fill="#c5cfd6"/>
        <g id="Buttons" transform="translate(8.12 9.023)">
          <circle id="buttons-2" data-name="buttons" cx="3.609" cy="3.609" r="3.609" fill="#f2f2f2"/>
          <circle id="buttons-3" data-name="buttons" cx="3.609" cy="3.609" r="3.609" transform="translate(10.827)" fill="#f2f2f2"/>
          <circle id="buttons-4" data-name="buttons" cx="3.609" cy="3.609" r="3.609" transform="translate(21.655)" fill="#f2f2f2"/>
        </g>
        <g id="Components" transform="translate(224.667 119.101)">
          <rect id="Background-10" data-name="Background" width="63" height="175" rx="8" fill="#fff"/>
          <g id="Rows-3" data-name="Rows" transform="translate(16.241 16.241)">
            <rect id="Data" width="30" height="23" rx="4" fill="#dde3e9"/>
            <rect id="Data-2" data-name="Data" width="30" height="22" rx="4" transform="translate(0 30.677)" fill="#afb9c5"/>
            <rect id="Data-3" data-name="Data" width="30" height="22" rx="4" transform="translate(0 60.453)" fill="#dde3e9"/>
            <rect id="Data-4" data-name="Data" width="30" height="22" rx="4" transform="translate(0 120.003)" fill="#dde3e9"/>
            <rect id="Data-5" data-name="Data" width="30" height="22" rx="4" transform="translate(0 90.228)" fill="#c5cfd6"/>
          </g>
        </g>
        <g id="Rows-4" data-name="Rows" transform="translate(14.436 39.7)">
          <g id="Row-9" data-name="Row">
            <rect id="Container-6" data-name="Container" width="203" height="42" rx="4" fill="#fff"/>
            <g id="Text_Stuff-3" data-name="Text Stuff" transform="translate(8.12 12.722)">
              <rect id="Label-5" data-name="Label" width="150" height="6" rx="3" fill="#dde3e9"/>
              <rect id="Label-6" data-name="Label" width="101" height="6" rx="3" transform="translate(0 10.602)" fill="#dde3e9"/>
            </g>
            <g id="Check-3" data-name="Check" transform="translate(175 14.888)">
              <circle id="Background-11" data-name="Background" cx="6.316" cy="6.316" r="6.316" fill="#dde3e9"/>
              <circle id="Indicator-3" data-name="Indicator" cx="2.707" cy="2.707" r="2.707" transform="translate(3.609 3.609)" fill="#f2f2f2"/>
            </g>
          </g>
          <g id="Row-10" data-name="Row" transform="translate(0 49.625)">
            <rect id="Container-7" data-name="Container" width="203" height="35" rx="4" fill="#fff"/>
            <g id="Text_Stuff-4" data-name="Text Stuff" transform="translate(8.12 10.557)">
              <rect id="Label-7" data-name="Label" width="150" height="5" rx="2" fill="#dde3e9"/>
              <rect id="Label-8" data-name="Label" width="101" height="5" rx="2" transform="translate(0 8.797)" fill="#dde3e9"/>
            </g>
            <g id="Check-4" data-name="Check" transform="translate(175 11.278)">
              <circle id="Background-12" data-name="Background" cx="6.316" cy="6.316" r="6.316" fill="#dde3e9"/>
              <circle id="Indicator-4" data-name="Indicator" cx="2.707" cy="2.707" r="2.707" transform="translate(3.609 3.609)" fill="#f2f2f2"/>
            </g>
          </g>
          <g id="Row-11" data-name="Row" transform="translate(0 92.032)">
            <rect id="Container-8" data-name="Container" width="203" height="35" rx="4" fill="#fff"/>
            <g id="Text_Stuff-5" data-name="Text Stuff" transform="translate(8.12 10.557)">
              <rect id="Label-9" data-name="Label" width="150" height="5" rx="2" fill="#dde3e9"/>
              <rect id="Label-10" data-name="Label" width="101" height="5" rx="2" transform="translate(0 8.797)" fill="#dde3e9"/>
            </g>
            <g id="Check-5" data-name="Check" transform="translate(175 11.278)">
              <circle id="Background-13" data-name="Background" cx="6.316" cy="6.316" r="6.316" fill="#dde3e9"/>
              <circle id="Indicator-5" data-name="Indicator" cx="2.707" cy="2.707" r="2.707" transform="translate(3.609 3.609)" fill="#afb9c5"/>
            </g>
          </g>
          <g id="Row-12" data-name="Row" transform="translate(0 219.253)">
            <rect id="Container-9" data-name="Container" width="203" height="35" rx="4" fill="#fff"/>
            <g id="Text_Stuff-6" data-name="Text Stuff" transform="translate(8.12 10.557)">
              <rect id="Label-11" data-name="Label" width="150" height="5" rx="2" fill="#dde3e9"/>
              <rect id="Label-12" data-name="Label" width="101" height="5" rx="2" transform="translate(0 8.797)" fill="#dde3e9"/>
            </g>
            <g id="Check-6" data-name="Check" transform="translate(175 11.278)">
              <circle id="Background-14" data-name="Background" cx="6.316" cy="6.316" r="6.316" fill="#dde3e9"/>
              <circle id="Indicator-6" data-name="Indicator" cx="2.707" cy="2.707" r="2.707" transform="translate(3.609 3.609)" fill="#f2f2f2"/>
            </g>
          </g>
          <g id="Row-13" data-name="Row" transform="translate(0 176.846)">
            <rect id="Container-10" data-name="Container" width="203" height="35" rx="4" fill="#fff"/>
            <g id="Text_Stuff-7" data-name="Text Stuff" transform="translate(8.12 10.557)">
              <rect id="Label-13" data-name="Label" width="150" height="5" rx="2" fill="#dde3e9"/>
              <rect id="Label-14" data-name="Label" width="101" height="5" rx="2" transform="translate(0 8.797)" fill="#dde3e9"/>
            </g>
            <g id="Check-7" data-name="Check" transform="translate(175 11.278)">
              <circle id="Background-15" data-name="Background" cx="6.316" cy="6.316" r="6.316" fill="#dde3e9"/>
              <circle id="Indicator-7" data-name="Indicator" cx="2.707" cy="2.707" r="2.707" transform="translate(3.609 3.609)" fill="#f2f2f2"/>
            </g>
          </g>
          <g id="Row-14" data-name="Row" transform="translate(0 134.439)">
            <rect id="Container-11" data-name="Container" width="203" height="35" rx="4" fill="#fff"/>
            <g id="Text_Stuff-8" data-name="Text Stuff" transform="translate(8.12 10.557)">
              <rect id="Label-15" data-name="Label" width="150" height="5" rx="2" fill="#dde3e9"/>
              <rect id="Label-16" data-name="Label" width="101" height="5" rx="2" transform="translate(0 8.797)" fill="#dde3e9"/>
            </g>
            <g id="Check-8" data-name="Check" transform="translate(175 11.278)">
              <circle id="Background-16" data-name="Background" cx="6.316" cy="6.316" r="6.316" fill="#dde3e9"/>
              <circle id="Indicator-8" data-name="Indicator" cx="2.707" cy="2.707" r="2.707" transform="translate(3.609 3.609)" fill="#f2f2f2"/>
            </g>
          </g>
        </g>
      </g>
      <path id="Fill_1" data-name="Fill 1" d="M115.478,3.046C111.92.632,107.187,0,102.928,0,86.294,0,70.658,6.172,57.151,15.367A107.075,107.075,0,0,0,37.284,33.5a53.114,53.114,0,0,0-8.512,12.669A43.647,43.647,0,0,0,25.68,55.93a100.3,100.3,0,0,0-1.756,12.46c-.115,1.642-1.069,10.356,1.661,10.5a3.769,3.769,0,0,0,0,.6c-5.928,9.27-9.591,20.133-12.988,30.433A207.28,207.28,0,0,0,5.3,137.2,297.2,297.2,0,0,0,.864,174.184c-.151,2.661-.255,5.324-.344,7.989q-.113,3.409-.227,6.819C.21,191.539-.238,194.471.167,197c.352,2.205,2.261,1.872,2.345-.323.1-2.65.085-5.306.2-7.958q.231-5.28.485-10.558a246.855,246.855,0,0,1,14-71.619A166.99,166.99,0,0,1,29.356,79.711,187.107,187.107,0,0,1,44.287,57.9,138.229,138.229,0,0,1,61.26,39.1a130.539,130.539,0,0,1,16.7-12.278c7.424-4.713,14.833-9.313,22.874-12.931,4.18-1.881,8.439-3.564,12.651-5.369.758-.325,1.571-.64,2.3-1.016,2.432-1.254,1.631-3.143-.307-4.457" transform="translate(666.409 274.504)" fill="#c1dee2"/>
      <path id="Fill_20" data-name="Fill 20" d="M-62.464,0A45.93,45.93,0,0,1-43.5,3.558a84.3,84.3,0,0,1,15,8.712c6.678,4.691,11.938,10.15,15.621,17.383,2.2,4.321,3.813,10.436,2.336,15.149-1.74,5.551-6.518,10.181-12.811,9.2-3.891-.6-7.459-3.18-10.416-5.6a39.393,39.393,0,0,1-8.709-10.261c-3.815-6.318-6.057-13.461-9.3-20.064-1.538-3.134-3.024-6.29-4.866-9.268A14.95,14.95,0,0,0-59.9,4.777c-.74-.586-3.86-1.6-2.667-2.917-17.5.23-32.995,13.666-36.353,30.3-.313,1.55-.557,3.113-.816,4.673-.163.985-.1,4.617-.978,5.246-1.942,1.388-1.126-2.828-1.042-3.435q.323-2.353.686-4.7a39.128,39.128,0,0,1,11.421-22.5C-82.426,4.5-72.675,0-62.464,0" transform="translate(773.078 362.232)" fill="#89c5cc"/>
      <g id="Plant" transform="translate(57.431 346.16)">
        <path id="Fill_19" data-name="Fill 19" d="M8.967,32.244C25.809,60.5,45.425,87.858,57.205,118.751c-.475-3.641-.978-7.279-1.541-10.911-2.989-19.255-6.7-38.37-10.608-57.461-1.988-9.72-4.091-19.406-6.247-29.09-1.16-5.2-2.305-10.406-3.489-15.6C35.033,4.43,34.787,2.231,34.428,0,45.876,37.568,56.916,75.164,64.992,113.635q1.589,7.573,2.7,15.12c.253-1.148.5-2.3.774-3.44a222.324,222.324,0,0,1,14-40.163,121.76,121.76,0,0,1,9.768-17.728c2.353-3.486,7.9-7.629,10.048-11.2C90.548,77.755,86.309,104.693,79.531,128.1c-1.654,5.712-3.319,11.414-4.95,17.127,10.221-20.5,26.08-37.34,48.128-44.638-26.689,17.634-42.7,48.517-53.485,80.1-.036.375-.078.749-.114,1.124,3.174-6.025,7.173-11.474,12.592-15.29,11.6-8.17,24.466-5.79,35.717,1.218-8.83-5.613-24.789-.5-32.219,5.2-5.319,4.084-9.865,9.563-13.812,14.908-.946,1.281-2.236,2.776-3.6,4.371a197.063,197.063,0,0,1-9.436,36.953c.728-3.509.2-9.12.4-11.736.022-.283.04-.566.062-.849q-1.005,4.015-1.941,7.926a108.472,108.472,0,0,0,2.439-15.393q.2-3.378.407-6.755-.066-6.41-.518-12.86c-1.056-4.176-2.237-8.115-3.212-11.391a147.246,147.246,0,0,0-15.016-33.7,133.078,133.078,0,0,0-20.722-26.271c-4.313-4.256-8.827-8.31-13.278-12.42C5.364,104.234,2.488,100.58,0,98.676c18.118,9.989,36.767,20.8,49.984,36.889Q47.66,126.639,44.971,118C35.939,88.833,24.534,58.6,8.967,32.244Z" fill="#dde3e9"/>
        <path id="Base" d="M0,0C0,32.39,2.565,58.648,36.993,58.648S73.987,32.39,73.987,0" transform="translate(27.068 192.185)" fill="#c5cfd6"/>
      </g>
      <g id="Graph" transform="translate(603.601)">
        <rect id="Value" width="5" height="22" rx="2" transform="translate(0 28.873)" fill="#dde3e9"/>
        <rect id="Value-2" data-name="Value" width="5" height="36" rx="2" transform="translate(12.632 14.436)" fill="#dde3e9"/>
        <rect id="Value-3" data-name="Value" width="5" height="44" rx="2" transform="translate(25.264 7.218)" fill="#dde3e9"/>
        <rect id="Value-4" data-name="Value" width="5" height="36" rx="2" transform="translate(37.896 14.436)" fill="#dde3e9"/>
        <rect id="Value-5" data-name="Value" width="5" height="51" rx="2" transform="translate(50.528)" fill="#c5cfd6"/>
      </g>
      <g id="Pie_Chart" data-name="Pie Chart" transform="translate(67.212 339.077) rotate(180)">
        <path id="Value-6" data-name="Value" d="M0,18.277A18.218,18.218,0,0,1,18.046,0V18.277L5.713,31.58A18.111,18.111,0,0,1,0,18.277Z" transform="translate(36.091 36.091) rotate(180)" fill="#f2f2f2"/>
        <path id="Value-7" data-name="Value" d="M12.454,0H30.677a18.058,18.058,0,0,1-4.96,12.332,18.367,18.367,0,0,1-13.264,5.713A18.627,18.627,0,0,1,0,13.134Z" transform="translate(30.977 18.046) rotate(180)" fill="#afb9c5"/>
        <path id="Value-8" data-name="Value" d="M18.045,18.045H36.091a17.816,17.816,0,0,0-1.424-7.006,18.226,18.226,0,0,0-9.615-9.615A17.817,17.817,0,0,0,18.045,0V18.044Zm-1.8-1.8h0L9.023,0A16.56,16.56,0,0,0,0,9.023L16.239,16.24Z" transform="translate(36.091 36.091) rotate(180)" fill="#c5cfd6"/>
      </g>
      <g id="Chart" transform="translate(743.846 296.186)">
        <path id="Value-9" data-name="Value" d="M34.076,33.546A9.485,9.485,0,1,1,27.154,17.6V0a27.069,27.069,0,1,0,0,54.137,26.788,26.788,0,0,0,19.764-8.57Z" fill="#f2f2f2"/>
        <path id="Value-10" data-name="Value" d="M0,0V17.594a9.474,9.474,0,0,1,9.474,9.474H27.068A27.151,27.151,0,0,0,0,0Z" transform="translate(27.068)" fill="#afb9c5"/>
        <path id="Value-11" data-name="Value" d="M3.7,0A9.6,9.6,0,0,1,0,7.57L11.064,21.655A27.441,27.441,0,0,0,21.655,0Z" transform="translate(32.482 27.068)" fill="#c5cfd6"/>
      </g>
      <g id="Chart-2" data-name="Chart" transform="translate(529.891 11.532)">
        <path id="Value-12" data-name="Value" d="M26.212,25.718a7.285,7.285,0,1,1-5.324-12.229V0A20.885,20.885,0,0,0,0,20.756,20.884,20.884,0,0,0,20.888,41.5a20.638,20.638,0,0,0,15.2-6.57Z" fill="#f2f2f2"/>
        <path id="Value-13" data-name="Value" d="M0,0V13.489a7.263,7.263,0,0,1,7.263,7.263H20.752A20.816,20.816,0,0,0,0,0Z" transform="translate(20.752)" fill="#afb9c5"/>
        <path id="Value-14" data-name="Value" d="M2.772,0A7.2,7.2,0,0,1,0,5.678L8.3,16.241A20.58,20.58,0,0,0,16.241,0Z" transform="translate(25.264 20.752)" fill="#c5cfd6"/>
      </g>
      <g id="Image" transform="translate(88.194 5.412)">
        <path id="Fill_35" data-name="Fill 35" d="M1.006.986a.214.214,0,0,0-.013.029C1,1.006,1.006.97,1.006.986" transform="translate(42.31 45.92)" fill="#c5cfd6"/>
        <path id="Fill_37" data-name="Fill 37" d="M1,1a.078.078,0,0,0,0,.009C1,1,1.012.973,1,1" transform="translate(42.31 45.92)" fill="#c5cfd6"/>
        <path id="Fill_39" data-name="Fill 39" d="M1.054.832c-.013.036-.029.07-.043.106.007-.018.014-.032.022-.051-.188.469-.069.164.022-.056" transform="translate(42.316 45.935)" fill="#c5cfd6"/>
        <path id="Fill_41" data-name="Fill 41" d="M1.018.953,1,1c-.052.1.022-.051.022-.051" transform="translate(42.311 45.923)" fill="#c5cfd6"/>
        <path id="Fill_43" data-name="Fill 43" d="M1,1Z" transform="translate(42.309 45.918)" fill="#c5cfd6"/>
        <path id="Fill_45" data-name="Fill 45" d="M1,1H1" transform="translate(42.309 45.919)" fill="#c5cfd6"/>
        <path id="Fill_47" data-name="Fill 47" d="M.989,1.013c-.011.022.051-.083,0,0" transform="translate(42.31 45.92)" fill="#c5cfd6"/>
        <path id="Fill_49" data-name="Fill 49" d="M1,1H1" transform="translate(42.309 45.919)" fill="#c5cfd6"/>
        <rect id="Photo_Background" data-name="Photo Background" width="85" height="56" rx="4" fill="#dde3e9"/>
        <g id="icons8-night_landscape" transform="translate(7.218 16.241)">
          <path id="Mountains" d="M25.264,0,0,40.6H50.528Z" fill="#afb9c5"/>
          <path id="Mountains-2" data-name="Mountains" d="M22.106,0,0,29.775H44.212Z" transform="translate(27.971 10.827)" fill="#c5cfd6"/>
        </g>
        <circle id="Sun" cx="8.12" cy="8.12" r="8.12" transform="translate(58.648 10.827)" fill="#fff"/>
      </g>
      <g id="Image-2" data-name="Image" transform="translate(761.85 522.76) rotate(180)">
        <path id="Fill_35-2" data-name="Fill 35" d="M0,0A.068.068,0,0,0,.013.033C.007.024,0-.012,0,0" transform="translate(64.068 15.355) rotate(180)" fill="#c5cfd6"/>
        <path id="Fill_37-2" data-name="Fill 37" d="M.006.012a.078.078,0,0,1,0,.009c0-.009-.016-.036,0-.009" transform="translate(64.066 15.349) rotate(180)" fill="#c5cfd6"/>
        <path id="Fill_39-2" data-name="Fill 39" d="M0,0C.013.036.029.07.043.106.036.088.029.074.022.056.209.525.09.22,0,0" transform="translate(64.122 15.49) rotate(180)" fill="#c5cfd6"/>
        <path id="Fill_41-2" data-name="Fill 41" d="M0,0,.022.051C.074.152,0,0,0,0" transform="translate(64.082 15.381) rotate(180)" fill="#c5cfd6"/>
        <path id="Fill_43-2" data-name="Fill 43" d="M0,0Z" transform="translate(64.062 15.34) rotate(180)" fill="#c5cfd6"/>
        <path id="Fill_45-2" data-name="Fill 45" d="M0,0H0" transform="translate(64.063 15.341) rotate(180)" fill="#c5cfd6"/>
        <path id="Fill_47-2" data-name="Fill 47" d="M.02.033c.011.022-.051-.083,0,0" transform="translate(64.072 15.356) rotate(180)" fill="#c5cfd6"/>
        <path id="Fill_49-2" data-name="Fill 49" d="M0,0H0" transform="translate(64.063 15.341) rotate(180)" fill="#c5cfd6"/>
        <rect id="Photo_Background-2" data-name="Photo Background" width="128" height="84" rx="4" transform="translate(128.123 84.814) rotate(180)" fill="#dde3e9"/>
        <g id="icons8-night_landscape-2" data-name="icons8-night_landscape" transform="translate(10.53)">
          <path id="Mountains-3" data-name="Mountains" d="M37.043,0,74.086,60.453H0Z" transform="translate(74.086 60.453) rotate(180)" fill="#afb9c5"/>
          <path id="Mountains-4" data-name="Mountains" d="M32.748,0,65.5,44.26H0Z" transform="translate(107.984 44.26) rotate(180)" fill="#c5cfd6"/>
        </g>
        <circle id="Sun-2" data-name="Sun" cx="12.181" cy="12.181" r="12.181" transform="translate(111.882 68.573) rotate(180)" fill="#fff"/>
      </g>
    </g>
    <g id="Figures" transform="translate(167.068 169.427)">
      <g id="Figure" transform="translate(416.022)">
        <g id="Head" transform="translate(94.426)">
          <g id="Head-2" data-name="Head" transform="translate(0 38.573)">
            <path id="Head-3" data-name="Head" d="M0,0,8.387,39.09C3.71,44.58.544,51.309,1.073,58.848,2.6,80.57,32.836,75.791,38.717,64.828S43.9,26.054,36.3,24.094c-3.032-.781-9.49,1.133-16.063,5.095L24.362,0Z" transform="translate(42.632 74.099) rotate(180)" fill="#b28b67"/>
          </g>
          <path id="hair" d="M14.53,35.208c3.211-.527,11.856-.889,13.45-.888,1.019,0,2.123.233,2.726-.7.494-.766.313-2.062.461-2.951.171-1.033.414-2.052.661-3.069a31.2,31.2,0,0,1,3.24-8.231A25.3,25.3,0,0,1,47.06,8.509,38.508,38.508,0,0,1,65.267,6c6.534.53,12.449,2.687,18.619,4.717a39.021,39.021,0,0,0,18.186,1.751c6.2-.952,10.876-4.309,16.1-7.5,5.35-3.263,11.463-5.4,17.787-4.906,5.9.458,11.344,2.9,16.226,6.152,4.567,3.047,8.336,6.712,10.463,11.871,2.289,5.549,2.287,11.64-1.477,16.545-5.456,7.109-15.584,8.947-24.01,8.764A45.873,45.873,0,0,1,122.9,40.788c-6.137-2.158-11.44-5.817-17.181-8.785a44.707,44.707,0,0,0-8.4-3.361c-2.833-.8-5.623-1.167-8.187.544-2.713,1.81-5.144,3.589-8.248,4.722a26.6,26.6,0,0,1-9.3,1.671c-6.172-.048-12.257-1.971-18.251-3.259-4.889-1.05-10.119-2.1-15.1-1.087-2.08.421-5.117,1.291-5.868,3.452C45,36.976,49.967,52.611,46.4,64.088c-1.924,6.195-13.486,13.436-17.982,10.18-2.848-2.063-1.119-4.772,0-6.56,2.143-3.424,2.876-7.823-1.089-10.207-3.42-2.056-7.017,2.827-7.085,2.821-.94-.074-9.063-4.668-14.66-11.372C.066,49.278-.772,45.637.547,42.66S10.094,35.936,14.53,35.208Z" transform="translate(3.27)" fill="#191847"/>
        </g>
        <g id="Bottom" transform="translate(48.966 227.261)">
          <path id="Leg" d="M71.1,0,32.963,124.935,14.487,231.184H0L19.523,0Z" transform="translate(40.387)" fill="#997659"/>
          <path id="Leg-2" data-name="Leg" d="M57.464,0c-2.591,68.6.458,103.979,1.038,110.211s8.519,46.643,27.315,123.065L70.38,227.964c-29.7-70.09-39.827-106.518-43.234-115.721S14.69,65.625,0,0Z" transform="translate(67.672)" fill="#b28b67"/>
          <g id="Left_Shoe" data-name="Left Shoe" transform="translate(95.274 221.724)">
            <path id="shoe" d="M54.062,5.106a2.026,2.026,0,0,1,2.6,1.369L58.6,13.3a65.36,65.36,0,0,1-.913,8.017H.516s-2.228-7.381,2.573-7.97,7.976-1.063,7.976-1.063L37.636.42a1.013,1.013,0,0,1,1.35.54l1.708,4.151s4.444,2.078,7.223,2.078Z" transform="translate(0 -0.332)" fill="#c5cfd6"/>
          </g>
          <g id="Right_Shoe" data-name="Right Shoe" transform="translate(0 221.724)">
            <path id="shoe-2" data-name="shoe" d="M54.062,5.106a2.026,2.026,0,0,1,2.6,1.369L58.6,13.3a65.36,65.36,0,0,1-.913,8.017H.516s-2.228-7.381,2.573-7.97,7.976-1.063,7.976-1.063L37.636.42a1.013,1.013,0,0,1,1.35.54l1.708,4.151s4.444,2.078,7.223,2.078Z" transform="translate(0 -0.332)" fill="#c5cfd6"/>
          </g>
          <path id="Bottom-2" data-name="Bottom" d="M65.75,0,49.533,63.653H0L7.386,0Z" transform="translate(50.809)" fill="#69a1ac"/>
          <path id="Bottom-3" data-name="Bottom" d="M61.778,0c8,24.039,3.041,63.653,3.041,63.653H14.273L.373,0Z" transform="translate(63.903)" fill="#89c5cc"/>
        </g>
        <g id="Body" transform="translate(0 111.544) rotate(-8)">
          <path id="Skin" d="M1.245,2.191c-1.133.7-2.373,3.323.624,5.375,7.469,5.112,18.232,14.059,19.686,17,2.975,6.024,17.836,83.552,17.836,83.552l22.227-.083s-25.393-82.125-26.959-86c-2.349-5.811,2.622-14.66,4.747-19.416-3.35-1.5-4.907.414-6.61,2.325C30.98,6.98,29,9.017,24.489,6.924,18.723,4.25,13.956,0,8.273,0A13.2,13.2,0,0,0,1.245,2.191Zm199.107,46.5-29.9,17.6L180,82.779l28.754-28a87.216,87.216,0,0,0,20.566-11.8c1.2-1.446,2.51-4.219-3.144-2.978s-11.657,2.292-12.72.456,2.069-4.648.1-7.05a.744.744,0,0,0-.6-.287q-2.708,0-12.609,15.566Z" transform="translate(230.369 181.288) rotate(180)" fill="#b28b67"/>
          <path id="Clothes_Back" data-name="Clothes Back" d="M0,112.145l8.613,2.262c18.027-47.4,91.7-74.338,97.632-92.127,2.176-6.524-2.333-10.312.326-12.125L95.932.855c-2.121,2.073-5.869-2.386-14.7-.269S5.035,54.593,0,112.145Z" transform="matrix(-0.996, 0.087, -0.087, -0.996, 133.021, 121.944)" fill="#d8a523"/>
          <path id="Clothes_Front" data-name="Clothes Front" d="M68.872,152.1l-.419-5.987C51.934,133.418,10.991,95.5.323,24.912-1.564,12.425,5.475,9.7,4.461,4.114L19.393,0c0,4.114,11.333,5.812,14.256,16.492,1.642,6,4.046,13.489,6.918,21.823.271-11.037,2.368-21.188,6.936-29.6,11.4-20.975,77.255,2.028,84.136,23.426,8.333,25.914-29.077,42.391-28.063,106.992l.733,10.479a4,4,0,0,1-3.712,4.27L73.14,155.8c-.1.007-.19.01-.284.01A4,4,0,0,1,68.872,152.1Z" transform="translate(212.059 155.842) rotate(180)" fill="#f9bf29"/>
        </g>
      </g>
      <g id="Figure-2" data-name="Figure" transform="translate(0.103 95.877)">
        <g id="Head-4" data-name="Head" transform="translate(66.828)">
          <g id="Head-5" data-name="Head" transform="translate(15.665 28.214)">
            <path id="Head-6" data-name="Head" d="M0,76.281,8.627,36.04C3.816,30.388.559,23.461,1.1,15.7,2.672-6.662,33.779-1.742,39.829,9.544s5.332,39.916-2.488,41.933c-3.119.8-9.763-1.166-16.525-5.245L25.061,76.28Z" fill="#b28b67"/>
          </g>
          <path id="hair-2" data-name="hair" d="M45.6,25.465a32.686,32.686,0,0,0-10.487-1.16,18.061,18.061,0,0,0,1.277-9.124c-.374-3.006-1.716-5.566-2.958-8.249a11.285,11.285,0,0,0-2.192-3.41,7.47,7.47,0,0,0-3.539-1.9,9.464,9.464,0,0,0-4.077,0c-.593.125-1.125.4-1.706.547s-.884-.218-1.316-.593A7.452,7.452,0,0,0,16.715.061a10.014,10.014,0,0,0-4.422.531A8.654,8.654,0,0,0,8.611,2.954a6.18,6.18,0,0,0-1.1,1.692c-.107.257-.125.409-.381.5-.237.087-.514.09-.759.173A9.552,9.552,0,0,0,.877,10.3a15.8,15.8,0,0,0-.863,6.49C.1,19.49,2.537,26.55,4.82,29.124A15.328,15.328,0,0,0,12.74,33.6,22.682,22.682,0,0,0,8.6,41.324a37.821,37.821,0,0,0-1.9,9.382,30.644,30.644,0,0,0,.47,9.249,10.024,10.024,0,0,0,4.479,6.526A21.386,21.386,0,0,0,15.1,68.1a22.684,22.684,0,0,0,3.552,1.139c2.308.477,4.968.4,6.746-1.443a12.673,12.673,0,0,0,1.813-2.305c.168-.291.269-.482.065-.766a5.478,5.478,0,0,0-.955-.869A9.007,9.007,0,0,1,23.144,57.9c-.284-2.448.373-5.607,2.751-6.675,2.935-1.319,6.168.195,8.777,1.606,1.109-3.916,3.386-7.442,6.955-9.239,3.949-1.987,8.481-2.22,12.539-3.925a7.48,7.48,0,0,0,2.913-1.854,3.77,3.77,0,0,0,.837-1.37,2.219,2.219,0,0,0-.58-1.721C55.6,32,49.02,26.51,45.6,25.465Z" fill="#191847"/>
        </g>
        <g id="Bottom-4" data-name="Bottom" transform="translate(0 192.271)">
          <g id="Seat" transform="translate(0 28.214)">
            <path id="Ballsy_Ball" data-name="Ballsy Ball" d="M160.81,76.8c0,42.418-36,76.8-80.4,76.8S0,119.222,0,76.8,36,0,80.405,0s80.4,34.386,80.4,76.8Z" fill="#c5cfd6"/>
          </g>
          <path id="Skin-2" data-name="Skin" d="M132.169,67.309C125.519,44,120.46,23.487,119.182,15.827,116.132-2.438,142.637-3.5,146.14,5.575c5.3,13.74,14.559,58.884,25.682,127.072l-12.714,3.712C145.729,106.727,136.053,80.923,132.169,67.309ZM3.916,43.363c12.276-4.856,55.264-20.051,76-24.349,5.958-1.236,11.732-2.383,17.162-3.42,16.137-3.083,24.5,26.05,8.955,28.288C67.324,49.456,12.451,55.212,7.756,55.858a5.979,5.979,0,0,1-.813.056C.782,55.916-3.478,46.288,3.916,43.363Z" transform="translate(73.24 33.612)" fill="#b28b67"/>
          <path id="Leg_Back" data-name="Leg Back" d="M66.579,44.65a13.589,13.589,0,0,1-.18-3.462L0,7.364V0H7.9s96.357,24.57,98.476,31.492c.015.049.028.1.04.147l.1.131c12.73,17.521,20.355,103.057,22.858,109.461l-24.4,3.642C95.641,110.246,65.786,86.123,66.579,44.65Z" transform="translate(113.82)" fill="#2c463c"/>
          <path id="Leg_Front" data-name="Leg Front" d="M32.451,68.16l20.055-6.884c-6.074-1.217-11.67-2.3-16.456-3.143C5.126,52.7-3.891,36.141,1.441,0H58.416c9.307,2.676,57.674,22.973,82.77,33.769,16.609,7.146,11.373,32.9,1.967,39.607a.919.919,0,0,1-.522.816c-34.8,14.431-64.594,13.731-84.16,13.03-8.885-.318-15.66-.637-19.835.463Z" transform="translate(66.83)" fill="#3b5d50"/>
          <g id="Right_Shoe-2" data-name="Right Shoe" transform="matrix(0.438, 0.899, -0.899, 0.438, 88.223, 68.433)">
            <path id="shoe-3" data-name="shoe" d="M4.158,4.37A1.859,1.859,0,0,0,1.774,5.623L0,11.874a59.716,59.716,0,0,0,.838,7.338H53.267s2.044-6.756-2.359-7.3-7.316-.973-7.316-.973L19.224.081a.93.93,0,0,0-1.238.5l-1.566,3.8s-4.076,1.9-6.625,1.9Z" fill="#69a1ac"/>
          </g>
          <g id="Right_Shoe-3" data-name="Right Shoe" transform="translate(224.507 158.134)">
            <path id="shoe-4" data-name="shoe" d="M4.671,5.244A2.088,2.088,0,0,0,1.993,6.653L0,13.68a67.176,67.176,0,0,0,.941,8.249h58.9s2.3-7.595-2.65-8.2-8.218-1.094-8.218-1.094L21.594.423A1.044,1.044,0,0,0,20.2.979L18.444,5.25S13.865,7.388,11,7.388Z" transform="translate(0 -0.332)" fill="#69a1ac"/>
          </g>
        </g>
        <g id="Body_Long_Sleeve_1" data-name="Body/Long Sleeve 1" transform="translate(5.391 77.835)">
          <path id="Skin-3" data-name="Skin" d="M1.281,90.683c-1.165-.719-2.442-3.427.642-5.543C9.607,79.869,20.678,70.64,22.175,67.6c3.06-6.212,13.48-66.76,13.48-66.76L57.476.931S37.266,66.219,35.655,70.214c-2.416,5.993,2.7,15.119,4.883,20.023-3.446,1.543-5.048-.427-6.8-2.4-1.868-2.1-3.91-4.2-8.546-2.042C19.26,88.556,14.357,92.94,8.511,92.94a13.557,13.557,0,0,1-7.23-2.257ZM189.165,31.9,156.181,18.215,163.543,0l33.309,24.476a89.6,89.6,0,0,1,22.642,9.105c1.432,1.3,3.162,3.949-2.775,3.493s-12.2-.671-13.024,1.356,2.774,4.45,1.117,7.185a.787.787,0,0,1-.723.39Q201.164,46.006,189.165,31.9Z" transform="translate(0 100.027)" fill="#b28b67"/>
          <path id="Coat_Back" data-name="Coat Back" d="M0,2.331,8.86,0c35.9,25.931,54.456,80.158,97.934,105.941l-8.778,13.075C26.277,116.431,2.772,50.364,0,2.331Z" transform="matrix(0.996, 0.087, -0.087, 0.996, 97.871, 6.921)" fill="#e87613"/>
          <path id="Shirt" d="M0,119.124H79.895c3.651,0,2.963-5.275,2.435-7.937C76.239,80.465,52.463,47.348,52.463,3.616L29.417,0C10.356,30.678,3.764,68.449,0,119.124Z" transform="translate(58.306 3.671)" fill="#dde3e9"/>
          <path id="Coat_Front" data-name="Coat Front" d="M.106,166.683C-1.737,107.039,20.83,61.14,39.715,33.465A12.117,12.117,0,0,1,29.344,27.09C20.921,11.881,23.963,3.507,32.965.754S49.994,3.671,64.336,3.671a11.171,11.171,0,0,1,1.71.122l7.648.437s31.048,105.3,17.126,140.51H27.67a200.579,200.579,0,0,1-10.43,21.943Z" transform="translate(21.653)" fill="#ff9b21"/>
          <path id="Shade" d="M23.6,38.189H0C4.329,27.786,9.1,14.937,14.192,0c2.119,18.408,5.284,31.256,9.41,38.187Z" transform="translate(49.323 106.55)" fill="rgba(0,0,0,0.1)"/>
        </g>
      </g>
    </g>
  </g>
</svg>
