<svg xmlns="http://www.w3.org/2000/svg" width="91" height="87.848" viewBox="0 0 91 87.848">
  <g id="userup" transform="translate(-6399.5 1684.067)">
    <g id="noun-users-1405374" transform="translate(6400 -1652.728)">
      <path id="パス_568" data-name="パス 568" d="M107.553,258.861H102.48A18.051,18.051,0,0,1,134.645,247.6l-3.957,3.145a12.74,12.74,0,0,0-10.147-4.87A13.012,13.012,0,0,0,107.553,258.861Z" transform="translate(-102.48 -212.694)" stroke="#fff" stroke-width="1"/>
      <path id="パス_570" data-name="パス 570" d="M453.845,258.861h-5.073a12.993,12.993,0,0,0-23.134-8.117L421.68,247.6a17.886,17.886,0,0,1,14.1-6.8A18.1,18.1,0,0,1,453.845,258.861Z" transform="translate(-363.845 -212.694)" stroke="#fff" stroke-width="1"/>
      <path id="パス_566" data-name="パス 566" d="M256.14,272.83h-5.073a21.917,21.917,0,0,0-43.833,0H202.16a26.99,26.99,0,0,1,53.98,0Z" transform="translate(-184.099 -216.821)" stroke="#fff" stroke-width="1"/>
      <path id="パス_569" data-name="パス 569" d="M149.43,163.237A11.618,11.618,0,1,1,161.1,151.67,11.67,11.67,0,0,1,149.43,163.237Zm0-18.162a6.595,6.595,0,1,0,6.595,6.595A6.582,6.582,0,0,0,149.43,145.075Z" transform="translate(-131.369 -130.159)" stroke="#fff" stroke-width="1"/>
      <path id="パス_571" data-name="パス 571" d="M446.79,163.237a11.618,11.618,0,1,1,11.668-11.567A11.669,11.669,0,0,1,446.79,163.237Zm0-18.162a6.595,6.595,0,1,0,6.595,6.595A6.582,6.582,0,0,0,446.79,145.075Z" transform="translate(-374.851 -130.159)" stroke="#fff" stroke-width="1"/>
      <path id="パス_567" data-name="パス 567" d="M274.545,119.57a16.945,16.945,0,1,1,16.945-16.945A16.975,16.975,0,0,1,274.545,119.57Zm0-28.715a11.872,11.872,0,1,0,11.77,11.77,11.887,11.887,0,0,0-11.77-11.77Z" transform="translate(-229.494 -85.68)" stroke="#fff" stroke-width="1"/>
    </g>
    <path id="Icon_awesome-plus" data-name="Icon awesome-plus" d="M17.438,9.628H11.4V3.591A1.342,1.342,0,0,0,10.06,2.25H8.719A1.342,1.342,0,0,0,7.378,3.591V9.628H1.341A1.342,1.342,0,0,0,0,10.969V12.31a1.342,1.342,0,0,0,1.341,1.341H7.378v6.036a1.342,1.342,0,0,0,1.341,1.341H10.06A1.342,1.342,0,0,0,11.4,19.688V13.652h6.036a1.342,1.342,0,0,0,1.341-1.341V10.969A1.342,1.342,0,0,0,17.438,9.628Z" transform="translate(6410.88 -1667.96)"/>
    <path id="Icon_awesome-plus-2" data-name="Icon awesome-plus" d="M14.116,8.222H9.23V3.336A1.086,1.086,0,0,0,8.144,2.25H7.058A1.086,1.086,0,0,0,5.972,3.336V8.222H1.086A1.086,1.086,0,0,0,0,9.308v1.086A1.086,1.086,0,0,0,1.086,11.48H5.972v4.886a1.086,1.086,0,0,0,1.086,1.086H8.144A1.086,1.086,0,0,0,9.23,16.366V11.48h4.886A1.086,1.086,0,0,0,15.2,10.394V9.308A1.086,1.086,0,0,0,14.116,8.222Z" transform="translate(6459.766 -1673.773)"/>
    <path id="Icon_ionic-md-arrow-round-up" data-name="Icon ionic-md-arrow-round-up" d="M29.327,16.112,19.774,6.267a2.171,2.171,0,0,0-1.6-.642h-.029a2.171,2.171,0,0,0-1.6.642L7,16.112a2.108,2.108,0,0,0,0,3.08,2.358,2.358,0,0,0,3.222,0l5.661-5.917V28.531a2.284,2.284,0,0,0,4.563,0V13.275L26.1,19.192a2.358,2.358,0,0,0,3.222,0A2.108,2.108,0,0,0,29.327,16.112Z" transform="translate(6426.459 -1689.692)"/>
  </g>
</svg>
