<svg xmlns="http://www.w3.org/2000/svg" width="27.799" height="30.166" viewBox="0 0 27.799 30.166">
  <path id="videocall" d="M5.377,31.583V29.317H28.172v2.265Zm0-27.9V1.417H28.172V3.682Zm11.4,14.171a3.987,3.987,0,0,0,4.058-4.058,3.986,3.986,0,0,0-4.058-4.058,3.986,3.986,0,0,0-4.058,4.058,3.987,3.987,0,0,0,4.058,4.058ZM5.411,27.524a2.415,2.415,0,0,1-1.792-.761,2.5,2.5,0,0,1-.744-1.809V8.045a2.513,2.513,0,0,1,2.536-2.57H28.137a2.415,2.415,0,0,1,1.792.761,2.5,2.5,0,0,1,.744,1.809v16.91a2.5,2.5,0,0,1-.744,1.809,2.415,2.415,0,0,1-1.792.761Zm2.57-2.468a11.248,11.248,0,0,1,8.793-4.3,11.227,11.227,0,0,1,4.836,1.116,10.661,10.661,0,0,1,3.957,3.179h2.672V7.943H5.31V25.056Zm3.551,0H22.05a8.091,8.091,0,0,0-2.333-1.4,7.913,7.913,0,0,0-2.942-.524,7.649,7.649,0,0,0-2.908.524A8.734,8.734,0,0,0,11.533,25.056Zm5.242-9.537a1.6,1.6,0,0,1-1.2-.507,1.69,1.69,0,0,1-.49-1.217,1.691,1.691,0,1,1,3.381,0,1.69,1.69,0,0,1-.49,1.217A1.6,1.6,0,0,1,16.774,15.519ZM16.774,16.5Z" transform="translate(-2.875 -1.417)"/>
</svg>
