<svg xmlns="http://www.w3.org/2000/svg" width="97.163" height="80.969" viewBox="0 0 97.163 80.969">
  <g id="web" transform="translate(-4536.837 1073)">
    <g id="noun-responsive-2070196" transform="translate(4461.829 -1134.25)">
      <path id="パス_444" data-name="パス 444" d="M93.979,126.025h25.353l-3.887,12.955h-3.653v3.239h35.626V138.98h-3.653l-3.887-12.955h12.4v-3.239h-58.3a3.238,3.238,0,0,1-3.239-3.239v-3.239h61.537V113.07H90.741V67.728a3.238,3.238,0,0,1,3.239-3.239h71.253a3.238,3.238,0,0,1,3.239,3.239V90.4h3.239V67.728a6.477,6.477,0,0,0-6.478-6.478H93.979A6.477,6.477,0,0,0,87.5,67.728v51.82a6.477,6.477,0,0,0,6.478,6.478Zm42.519,0,3.887,12.955H118.827l3.887-12.955Z" transform="translate(-12.494)"/>
      <path id="パス_445" data-name="パス 445" d="M148.75,105h9.716v3.239H148.75Z" transform="translate(-62.406 -35.653)"/>
      <path id="パス_446" data-name="パス 446" d="M218.75,105h9.716v3.239H218.75Z" transform="translate(-119.451 -35.653)"/>
      <path id="パス_447" data-name="パス 447" d="M288.75,105h9.716v3.239H288.75Z" transform="translate(-176.496 -35.653)"/>
      <path id="パス_448" data-name="パス 448" d="M358.75,105h9.716v3.239H358.75Z" transform="translate(-233.541 -35.653)"/>
      <path id="パス_449" data-name="パス 449" d="M428.75,105h9.716v3.239H428.75Z" transform="translate(-290.586 -35.653)"/>
      <path id="パス_450" data-name="パス 450" d="M204.775,154.574V141.619A1.619,1.619,0,0,0,203.156,140H141.619A1.619,1.619,0,0,0,140,141.619v19.433a1.619,1.619,0,0,0,1.619,1.619h53.44v-3.239h-51.82V143.239h58.3v11.336Z" transform="translate(-55.276 -64.176)"/>
      <path id="パス_451" data-name="パス 451" d="M159.433,288.1v-6.478A1.619,1.619,0,0,0,157.813,280H141.619A1.619,1.619,0,0,0,140,281.619V288.1h3.239v-4.858h12.955V288.1Z" transform="translate(-55.276 -178.265)"/>
      <path id="パス_452" data-name="パス 452" d="M281.933,288.1v-6.478A1.619,1.619,0,0,0,280.313,280H264.119a1.619,1.619,0,0,0-1.619,1.619V288.1h3.239v-4.858h12.955V288.1Z" transform="translate(-155.104 -178.265)"/>
      <path id="パス_453" data-name="パス 453" d="M385,281.619V288.1h3.239v-4.858h6.478V280h-8.1A1.619,1.619,0,0,0,385,281.619Z" transform="translate(-254.933 -178.265)"/>
      <path id="パス_454" data-name="パス 454" d="M479.291,236.25H459.859A4.858,4.858,0,0,0,455,241.108v38.865a4.858,4.858,0,0,0,4.858,4.858h19.433a4.858,4.858,0,0,0,4.858-4.858V241.108a4.858,4.858,0,0,0-4.858-4.858Zm1.619,43.723a1.619,1.619,0,0,1-1.619,1.619H459.859a1.619,1.619,0,0,1-1.619-1.619V241.108a1.62,1.62,0,0,1,1.619-1.619h19.433a1.619,1.619,0,0,1,1.619,1.619Z" transform="translate(-311.978 -142.612)"/>
      <path id="パス_455" data-name="パス 455" d="M490,271.25h3.239v3.239H490Z" transform="translate(-340.5 -171.135)"/>
      <path id="パス_456" data-name="パス 456" d="M504.574,306.25H491.619A1.619,1.619,0,0,0,490,307.869v9.716a1.619,1.619,0,0,0,1.619,1.619h12.955a1.619,1.619,0,0,0,1.619-1.619v-9.716a1.619,1.619,0,0,0-1.619-1.619Zm-1.619,9.716h-9.716v-6.478h9.716Z" transform="translate(-340.5 -199.657)"/>
      <path id="パス_457" data-name="パス 457" d="M504.574,393.75H491.619A1.619,1.619,0,0,0,490,395.369v9.716a1.619,1.619,0,0,0,1.619,1.619h12.955a1.619,1.619,0,0,0,1.619-1.619v-9.716a1.619,1.619,0,0,0-1.619-1.619Zm-1.619,9.716h-9.716v-6.478h9.716Z" transform="translate(-340.5 -270.963)"/>
    </g>
  </g>
</svg>
