<svg xmlns="http://www.w3.org/2000/svg" width="61.106" height="61.114" viewBox="0 0 61.106 61.114">
  <g id="wordpress" transform="translate(-23.993 -23.972)">
    <path id="パス_333" data-name="パス 333" d="M369.207,205.6a26.229,26.229,0,0,0-1.172-7.746l-11.612,30.135A25.985,25.985,0,0,0,369.207,205.6Z" transform="translate(-288.652 -150.986)" fill="#00749c"/>
    <path id="パス_334" data-name="パス 334" d="M193.628,307.5a26.08,26.08,0,0,0,16.819-.117l-7.933-20.568L193.628,307.5Z" transform="translate(-147.295 -228.226)" fill="#00749c"/>
    <path id="パス_335" data-name="パス 335" d="M59.839,200.888a25.98,25.98,0,0,0,12.226,30.018L59.919,201.051Z" transform="translate(-30.204 -153.618)" fill="#00749c"/>
    <path id="パス_336" data-name="パス 336" d="M86.9,76.271l-1.116-.05c-2.436-.04-2.166,2.488-2.166,2.488l8.641,21.673,5.809-13.876-3.243-8.257c-1.3-2.183-4.468-2.16-4.468-2.16v-1.15h18.17l-.027,1.276-1.891.117a1.773,1.773,0,0,0-1.878,2.24l7.885,21.063,2.26-5.832c4.009-9.089,1.536-15.815,1.536-15.815-4.015-8.26,1.059-9.445,1.059-9.445.321-.046.622-.071.917-.085A25.99,25.99,0,0,0,74.69,75.065l12.164-.125.043,1.331Z" transform="translate(-44.021 -30.676)" fill="#00749c"/>
    <path id="パス_337" data-name="パス 337" d="M83.761,54.531A29.213,29.213,0,1,1,54.552,25.318,29.248,29.248,0,0,1,83.761,54.531ZM54.552,23.972A30.557,30.557,0,1,0,85.1,54.532,30.6,30.6,0,0,0,54.552,23.972Z" transform="translate(0 0)" fill="#00749c"/>
  </g>
</svg>
