<svg xmlns="http://www.w3.org/2000/svg" xmlns:xlink="http://www.w3.org/1999/xlink" width="101" height="104.053" viewBox="0 0 101 104.053">
  <defs>
    <clipPath id="clip-path">
      <ellipse id="楕円形_19" data-name="楕円形 19" cx="12.314" cy="12.182" rx="12.314" ry="12.182"/>
    </clipPath>
    <clipPath id="clip-path-2">
      <circle id="楕円形_21" data-name="楕円形 21" cx="11.086" cy="11.086" r="11.086" fill="#4a8cff"/>
    </clipPath>
    <clipPath id="clip-path-3">
      <path id="パス_373" data-name="パス 373" d="M-527.692-43.477l3.135-2.291c.274-.224.483-.173.483.239v6.986c0,.462-.259.412-.483.239l-3.135-2.291ZM-538.3-45.509v5.2a2.134,2.134,0,0,0,2.144,2.124h7.6a.394.394,0,0,0,.391-.386v-5.207a2.133,2.133,0,0,0-2.144-2.124h-7.6A.4.4,0,0,0-538.3-45.509Z" transform="translate(538.3 45.9)"/>
    </clipPath>
  </defs>
  <g id="zoomurl" transform="translate(-5451.74 612.053)">
    <path id="パス_345" data-name="パス 345" d="M212.9,59.093h-7.5L192.15,47.22a2.5,2.5,0,0,0-3.349,0L175.4,59.093h-7.5a7.5,7.5,0,0,0-7.5,7.5v5.974L149.058,82.739a2.5,2.5,0,0,0-.65,1,6.826,6.826,0,0,0-1.525,4.224v51.79a6.823,6.823,0,0,0,6.824,6.823h73.386a6.823,6.823,0,0,0,6.824-6.823V87.963a6.826,6.826,0,0,0-1.525-4.224,2.5,2.5,0,0,0-.65-1L220.394,72.566V66.592a7.5,7.5,0,0,0-7.5-7.5Zm-22.5-6.649,7.5,6.649h-15Zm-25,14.148a2.5,2.5,0,0,1,2.5-2.5H212.9a2.5,2.5,0,0,1,2.5,2.5V94.613l-25,22.369-25-22.369Zm-5,23.571-6.074-5.449L160.4,79.29Zm68.514,49.592a1.826,1.826,0,0,1-1.825,1.824H153.708a1.825,1.825,0,0,1-1.825-1.824V89.238l27.494,24.621-24.42,21.87a2.5,2.5,0,1,0,3.324,3.724l25-22.245,5.549,5a2.5,2.5,0,0,0,3.35,0l5.549-5,25,22.245a2.5,2.5,0,1,0,3.324-3.724l-24.469-21.87L229.07,89.238Zm-2.5-54.991-6.024,5.4V79.29Z" transform="translate(5308.856 -657.576)" stroke="#eff2f1" stroke-width="1.8"/>
    <g id="zoom-seeklogo.com-1" transform="translate(5488.125 -587.618)">
      <g id="グループ_86" data-name="グループ 86" transform="translate(0 0)">
        <g id="グループ_85" data-name="グループ 85" transform="translate(0 0)" clip-path="url(#clip-path)">
          <path id="パス_369" data-name="パス 369" d="M-649.8-223.8h25.794v25.793H-649.8Z" transform="translate(649.112 223.082)" fill="#e5e5e4"/>
        </g>
      </g>
      <g id="グループ_90" data-name="グループ 90" transform="translate(1.126 1.096)">
        <g id="グループ_89" data-name="グループ 89" transform="translate(0 0)" clip-path="url(#clip-path-2)">
          <path id="パス_371" data-name="パス 371" d="M-626-200h23.38v23.38H-626Z" transform="translate(625.396 199.395)" fill="#4a8cff"/>
        </g>
      </g>
      <g id="グループ_92" data-name="グループ 92" transform="translate(4.977 8.32)">
        <g id="グループ_91" data-name="グループ 91" transform="translate(0 0)" clip-path="url(#clip-path-3)">
          <path id="パス_372" data-name="パス 372" d="M-550.1-57.7h15.429v8.916H-550.1Z" transform="translate(549.5 57.101)" fill="#eff2f1"/>
        </g>
      </g>
    </g>
    <text id="URL" transform="translate(5500.155 -552.732)" font-size="11" font-family="Eurostile-Hea, Eurostile"><tspan x="-10.109" y="0">URL</tspan></text>
    <path id="パス_420" data-name="パス 420" d="M493.047,388.04H477.87a2.1,2.1,0,1,0,0,4.2h15.177a2.1,2.1,0,0,0,0-4.2Z" transform="translate(5056.59 -973.409)" stroke="#eff2f1" stroke-width="2"/>
    <path id="パス_421" data-name="パス 421" d="M477.864,358.052h10.321a2.1,2.1,0,1,0,0-4.2H477.864a2.1,2.1,0,1,0,0,4.2Z" transform="translate(5056.595 -945.377)" stroke="#eff2f1" stroke-width="2"/>
    <path id="パス_422" data-name="パス 422" d="M477.864,323.872h5.486a2.1,2.1,0,1,0,0-4.2h-5.486a2.1,2.1,0,1,0,0,4.2Z" transform="translate(5056.595 -917.356)" stroke="#eff2f1" stroke-width="2"/>
    <rect id="長方形_38" data-name="長方形 38" width="100" height="100" transform="translate(5451.739 -608)" fill="none"/>
  </g>
</svg>
